<svg height="1em" viewBox="0 0 24 24" width="1em" xmlns="http://www.w3.org/2000/svg"><title>DeepSeek</title><defs><linearGradient id="deepseek-fill" x1="3" x2="21" y1="3" y2="21" gradientUnits="userSpaceOnUse"><stop stop-color="#38BDF8"/><stop offset="0.52" stop-color="#2563EB"/><stop offset="1" stop-color="#1E3A8A"/></linearGradient></defs><path d="M12 2.75c5.109 0 9.25 3.56 9.25 7.952 0 2.855-1.745 5.353-4.365 6.756.166.849.58 1.838 1.346 2.972.192.284-.09.65-.413.535-1.916-.683-3.272-1.488-4.177-2.343-.532.07-1.08.107-1.641.107-5.109 0-9.25-3.56-9.25-7.953S6.891 2.75 12 2.75Z" fill="url(#deepseek-fill)"/><path d="M7.3 10.48c.515-2.484 2.432-4.14 4.84-4.14 2.125 0 3.862 1.144 4.526 2.897.105.277-.213.505-.452.33-.94-.69-2.06-1.04-3.34-1.04-2.018 0-3.52.98-4.432 2.554-.27.466-1.252-.073-1.142-.602Zm8.934 3.183c-.54 2.386-2.413 3.998-4.76 3.998-2.134 0-3.854-1.114-4.54-2.835-.111-.28.202-.514.445-.34.93.67 2.05 1.004 3.32 1.004 1.98 0 3.444-.92 4.37-2.428.287-.467 1.275.103 1.165.601Z" fill="#fff" opacity=".92"/></svg>
