<svg xmlns="http://www.w3.org/2000/svg" viewBox="0 0 64 64" role="img" aria-hidden="true">
  <path fill="#E24329" d="M32 60 43.78 23.74H20.22z"/>
  <path fill="#FC6D26" d="m32 60 11.78-36.26H60.3L32 60Z"/>
  <path fill="#FCA326" d="M60.3 23.74 63.88 34.8a2.43 2.43 0 0 1-.88 2.72L32 60Z"/>
  <path fill="#E24329" d="m32 60-11.78-36.26H3.7L32 60Z"/>
  <path fill="#FC6D26" d="M3.7 23.74.12 34.8A2.43 2.43 0 0 0 1 37.52L32 60Z"/>
  <path fill="#FCA326" d="M20.22 23.74 32 60 43.78 23.74z"/>
  <path fill="#E24329" d="M20.22 23.74 14.63 6.56a1.21 1.21 0 0 0-2.3 0L3.7 23.74Z"/>
  <path fill="#E24329" d="M43.78 23.74 49.37 6.56a1.21 1.21 0 0 1 2.3 0l8.63 17.18Z"/>
</svg>
