<svg xmlns="http://www.w3.org/2000/svg" viewBox="0 0 128 128" role="img" aria-hidden="true">
  <path fill="#E24329" d="M64 117.6 87.5 45.3H40.5L64 117.6Z"/>
  <path fill="#FC6D26" d="M64 117.6 40.5 45.3H7.6L64 117.6Z"/>
  <path fill="#FCA326" d="m7.6 45.3-7.2 22a4.9 4.9 0 0 0 1.8 5.5L64 117.6 7.6 45.3Z"/>
  <path fill="#E24329" d="m7.6 45.3 32.9 0L26.3 1.7A2.4 2.4 0 0 0 21.8 1.7L7.6 45.3Z"/>
  <path fill="#FC6D26" d="m64 117.6 23.5-72.3h32.9L64 117.6Z"/>
  <path fill="#FCA326" d="m120.4 45.3 7.2 22a4.9 4.9 0 0 1-1.8 5.5L64 117.6l56.4-72.3Z"/>
  <path fill="#E24329" d="m120.4 45.3H87.5l14.2-43.6a2.4 2.4 0 0 1 4.5 0l14.2 43.6Z"/>
</svg>
