<svg width="48" height="48" version="1.1" xmlns="http://www.w3.org/2000/svg" desc="Created with imagetracer.js version 1.2.6" ><path fill="rgb(32,33,34)" stroke="rgb(32,33,34)" stroke-width="1" opacity="0.9921568627450981" d="M 23.5 12 L 24.5 14 L 22 13.5 L 23.5 12 Z " /><path fill="rgb(32,33,34)" stroke="rgb(32,33,34)" stroke-width="1" opacity="0.9921568627450981" d="M 38.5 13 L 37.5 15 L 38.5 13 Z " /><path fill="rgb(32,33,34)" stroke="rgb(32,33,34)" stroke-width="1" opacity="0.9921568627450981" d="M 8.5 14 L 21 14.5 L 8.5 15 L 8.5 14 Z " /><path fill="rgb(32,33,34)" stroke="rgb(32,33,34)" stroke-width="1" opacity="0.9921568627450981" d="M 22.5 16 L 21.5 18 L 22.5 16 Z " /><path fill="rgb(32,33,34)" stroke="rgb(32,33,34)" stroke-width="1" opacity="0.9921568627450981" d="M 36.5 16 L 35.5 18 L 36.5 16 Z " /><path fill="rgb(32,33,34)" stroke="rgb(32,33,34)" stroke-width="1" opacity="0.9921568627450981" d="M 20.5 19 L 19.5 21 L 20.5 19 Z " /><path fill="rgb(32,33,34)" stroke="rgb(32,33,34)" stroke-width="1" opacity="0.9921568627450981" d="M 31.5 23 L 30.5 25 L 31.5 23 Z " /><path fill="rgb(32,33,34)" stroke="rgb(32,33,34)" stroke-width="1" opacity="0.9921568627450981" d="M 15.5 26 L 14.5 28 L 15.5 26 Z " /><path fill="rgb(32,33,34)" stroke="rgb(32,33,34)" stroke-width="1" opacity="0.9921568627450981" d="M 26.5 30 L 25.5 32 L 26.5 30 Z " /><path fill="rgb(32,33,34)" stroke="rgb(32,33,34)" stroke-width="1" opacity="0.9921568627450981" d="M 23.5 34 L 26 34.5 Q 23.9 37.8 23.5 34 Z " /><path fill="rgb(32,33,34)" stroke="rgb(32,33,34)" stroke-width="1" opacity="0.9921568627450981" d="M 8.5 36 L 7.5 38 L 8.5 36 Z " /><path fill="rgb(17,19,20)" stroke="rgb(17,19,20)" stroke-width="1" opacity="0.996078431372549" d="M 6.5 0 L 41.5 0 L 47 3.5 L 48 11 L 26 10 Q 27.1 12.7 24.5 12 L 24.5 10 L 8.5 10 L 7.5 11 L 0 11 Q -1 4 3.5 1 L 6.5 0 Z " /><path fill="rgb(17,19,20)" stroke="rgb(17,19,20)" stroke-width="1" opacity="0.996078431372549" d="M 27.5 33 L 39 33.5 L 27.5 34 L 27.5 33 Z " /><path fill="rgb(205,205,205)" stroke="rgb(205,205,205)" stroke-width="1" opacity="1" d="M 8.5 10 L 9 13.5 L 8 13.5 L 8.5 10 Z " /><path fill="rgb(205,205,205)" stroke="rgb(205,205,205)" stroke-width="1" opacity="1" d="M 24.5 10 L 23.5 12 L 24.5 10 Z " /><path fill="rgb(205,205,205)" stroke="rgb(205,205,205)" stroke-width="1" opacity="1" d="M 26.5 11 L 25.5 13 L 26.5 11 Z " /><path fill="rgb(205,205,205)" stroke="rgb(205,205,205)" stroke-width="1" opacity="1" d="M 39.5 11 L 38.5 13 L 39.5 11 Z " /><path fill="rgb(205,205,205)" stroke="rgb(205,205,205)" stroke-width="1" opacity="1" d="M 24.5 14 L 23.5 16 L 24.5 14 Z " /><path fill="rgb(205,205,205)" stroke="rgb(205,205,205)" stroke-width="1" opacity="1" d="M 36.5 15 L 35.5 17 L 36.5 15 Z " /><path fill="rgb(205,205,205)" stroke="rgb(205,205,205)" stroke-width="1" opacity="1" d="M 22.5 17 L 21.5 19 L 22.5 17 Z " /><path fill="rgb(205,205,205)" stroke="rgb(205,205,205)" stroke-width="1" opacity="1" d="M 34.5 18 L 33.5 20 L 34.5 18 Z " /><path fill="rgb(205,205,205)" stroke="rgb(205,205,205)" stroke-width="1" opacity="1" d="M 19.5 21 L 18.5 23 L 19.5 21 Z " /><path fill="rgb(205,205,205)" stroke="rgb(205,205,205)" stroke-width="1" opacity="1" d="M 32.5 21 L 31.5 23 L 32.5 21 Z " /><path fill="rgb(205,205,205)" stroke="rgb(205,205,205)" stroke-width="1" opacity="1" d="M 17.5 24 L 16.5 26 L 17.5 24 Z " /><path fill="rgb(205,205,205)" stroke="rgb(205,205,205)" stroke-width="1" opacity="1" d="M 29.5 25 L 28.5 27 L 29.5 25 Z " /><path fill="rgb(205,205,205)" stroke="rgb(205,205,205)" stroke-width="1" opacity="1" d="M 14.5 28 L 13.5 30 L 14.5 28 Z " /><path fill="rgb(205,205,205)" stroke="rgb(205,205,205)" stroke-width="1" opacity="1" d="M 27.5 28 L 26.5 30 L 27.5 28 Z " /><path fill="rgb(205,205,205)" stroke="rgb(205,205,205)" stroke-width="1" opacity="1" d="M 12.5 31 L 11.5 33 L 12.5 31 Z " /><path fill="rgb(205,205,205)" stroke="rgb(205,205,205)" stroke-width="1" opacity="1" d="M 24.5 32 L 23.5 34 L 24.5 32 Z " /><path fill="rgb(205,205,205)" stroke="rgb(205,205,205)" stroke-width="1" opacity="1" d="M 10.5 34 L 9.5 36 L 10.5 34 Z " /><path fill="rgb(205,205,205)" stroke="rgb(205,205,205)" stroke-width="1" opacity="1" d="M 39.5 34 L 40 37.5 L 39 37.5 L 39.5 34 Z " /><path fill="rgb(205,205,205)" stroke="rgb(205,205,205)" stroke-width="1" opacity="1" d="M 22.5 35 L 21.5 37 L 22.5 35 Z " /><path fill="rgb(254,254,254)" stroke="rgb(254,254,254)" stroke-width="1" opacity="1" d="M 22.5 12 L 21.5 14 L 22.5 12 Z " /><path fill="rgb(254,254,254)" stroke="rgb(254,254,254)" stroke-width="1" opacity="1" d="M 26.5 34 L 25.5 36 L 26.5 34 Z " /><path fill="rgb(11,12,12)" stroke="rgb(11,12,12)" stroke-width="1" opacity="0.996078431372549" d="M 0.5 21 L 1.5 22 L 18 22.5 L 16 26 L 1.5 26 L 1 24.5 L 0.5 21 Z " /><path fill="rgb(11,12,12)" stroke="rgb(11,12,12)" stroke-width="1" opacity="0.996078431372549" d="M 32 22 L 47.5 22 L 48 26 L 30 25.5 L 32 22 Z " /><path fill="rgb(255,255,255)" stroke="rgb(255,255,255)" stroke-width="1" opacity="1" d="M 9 10 L 24 10.5 L 20.5 14 L 9 14 L 9 10 Z " /><path fill="rgb(255,255,255)" stroke="rgb(255,255,255)" stroke-width="1" opacity="1" d="M 28.5 10 L 38.5 10 L 39 11.5 L 19.5 38 L 9.5 38 L 9 36.5 L 28.5 10 Z " /><path fill="rgb(255,255,255)" stroke="rgb(255,255,255)" stroke-width="1" opacity="1" d="M 27.5 34 L 39 34 L 39 38 L 24 37.5 L 27.5 34 Z " /><path fill="rgb(12,13,14)" stroke="rgb(12,13,14)" stroke-width="1" opacity="0.996078431372549" d="M 0.5 18 L 1 20.5 L 0 20.5 L 0.5 18 Z " /><path fill="rgb(12,13,14)" stroke="rgb(12,13,14)" stroke-width="1" opacity="1" d="M 1 17 L 20.5 17 L 21 18.5 L 17.5 22 L 1 22 L 1 17 Z " /><path fill="rgb(12,13,14)" stroke="rgb(12,13,14)" stroke-width="1" opacity="1" d="M 36.5 17 L 48 17 L 48 22 L 33 21.5 L 36.5 17 Z " /><path fill="rgb(9,10,10)" stroke="rgb(9,10,10)" stroke-width="1" opacity="0.9882352941176471" d="M 0.5 24 L 1 26 L 15 26.5 L 12.5 29 L 1.5 29 L 0.5 30 L 0.5 24 Z " /><path fill="rgb(9,10,10)" stroke="rgb(9,10,10)" stroke-width="1" opacity="0.9882352941176471" d="M 30.5 26 L 47.5 26 L 48 29 L 28 28.5 L 30.5 26 Z " /><path fill="rgb(6,6,7)" stroke="rgb(6,6,7)" stroke-width="1" opacity="0.996078431372549" d="M 0 33 L 10 33.5 L 7 39 L 0 39 L 0 33 Z " /><path fill="rgb(6,6,7)" stroke="rgb(6,6,7)" stroke-width="1" opacity="0.996078431372549" d="M 25.5 33 L 24 35.5 L 23 39 L 21 38.5 L 25.5 33 Z " /><path fill="rgb(6,6,7)" stroke="rgb(6,6,7)" stroke-width="1" opacity="0.996078431372549" d="M 40 33 L 48 33 L 48 39 L 40 39 L 40 33 Z " /><path fill="rgb(7,8,8)" stroke="rgb(7,8,8)" stroke-width="1" opacity="0.996078431372549" d="M 1.5 29 L 13 29.5 L 11 33 L 0.5 33 L 0 30.5 L 1.5 29 Z " /><path fill="rgb(7,8,8)" stroke="rgb(7,8,8)" stroke-width="1" opacity="0.996078431372549" d="M 28.5 29 L 47.5 29 L 48 33 L 27.5 33 L 26.5 34 L 25 32.5 L 28.5 29 Z " /><path fill="rgb(14,15,16)" stroke="rgb(14,15,16)" stroke-width="1" opacity="0.9882352941176471" d="M 0.5 14 L 1.5 15 L 23 15.5 L 21.5 17 L 1.5 17 L 0.5 18 L 0.5 14 Z " /><path fill="rgb(14,15,16)" stroke="rgb(14,15,16)" stroke-width="1" opacity="0.9882352941176471" d="M 37 15 L 47.5 15 L 48 17 L 37.5 17 L 37 15 Z " /><path fill="rgb(15,16,17)" stroke="rgb(15,16,17)" stroke-width="1" opacity="0.9921568627450981" d="M 0 11 L 8 11 L 8 15 Q 1.9 16.8 0 13.5 L 0 11 Z " /><path fill="rgb(15,16,17)" stroke="rgb(15,16,17)" stroke-width="1" opacity="0.9921568627450981" d="M 40 11 L 48 11 L 48 15 L 38 14.5 L 40 11 Z " /><path fill="rgb(15,16,17)" stroke="rgb(15,16,17)" stroke-width="1" opacity="0.9921568627450981" d="M 24.5 12 L 22.5 15 L 24.5 12 Z " /><path fill="rgb(15,16,17)" stroke="rgb(15,16,17)" stroke-width="1" opacity="0.9921568627450981" d="M 8.5 38 L 20 38.5 L 8.5 39 L 8.5 38 Z " /><path fill="rgb(15,16,17)" stroke="rgb(15,16,17)" stroke-width="1" opacity="0.9921568627450981" d="M 24.5 38 L 39 38.5 L 24.5 39 L 24.5 38 Z " /><path fill="rgb(2,2,2)" stroke="rgb(2,2,2)" stroke-width="1" opacity="0.996078431372549" d="M 0 39 L 47.5 39 L 48 42.5 L 44.5 47 L 42.5 48 L 5.5 48 L 1 44.5 L 0 39 Z " /><path fill="rgb(0,0,0)" stroke="rgb(0,0,0)" stroke-width="1" opacity="0.23529411764705882" d="M 0 0 L 5 0.5 L 1 3.5 L 0.5 5 L 0 0 Z " /><path fill="rgb(0,0,0)" stroke="rgb(0,0,0)" stroke-width="1" opacity="0.23529411764705882" d="M 43.5 0 Q 50.3 -2.3 48 4.5 L 47 4.5 L 44.5 1 L 43.5 0 Z " /><path fill="rgb(0,0,0)" stroke="rgb(0,0,0)" stroke-width="1" opacity="0.23529411764705882" d="M 0.5 43 L 3.5 47 L 5 47.5 L 0 48 L 0.5 43 Z " /><path fill="rgb(0,0,0)" stroke="rgb(0,0,0)" stroke-width="1" opacity="0.23529411764705882" d="M 47.5 43 L 48 48 L 43 47.5 L 47 44.5 L 47.5 43 Z " /></svg>