<svg xmlns="http://www.w3.org/2000/svg" width="398" height="399"><path stroke="#000" d="M66 0h269l17 5 9 6q-1 3 2 4l3-2 3 2q-1 3 2 2v1l-2-1-3 1q-2 5 4 3l3-2 11 12-1 1 2 3 3 2 7 15q-5 2-1 4l2-1q2 1 1 5v2l-3 7 4 1q1 4-2 4v5q4-1 2 4l-4-1-2 3 2 2-1 5 1 5-1 3q-4-1-5 2l1 3-2 3 8 1v-4l-1-3 4-1v5l-1 2 1 1v11l-1 3 1 1v35l-2 1 1-3h-2l-1-5-3-6-3 2 4 6v5l-1 3 2-1 2-1 3 8h-1q1-3-2-2t-2 6q-5-1-7 2-1 7 3 10 2 1 1-1l1-1v-8q3-1 2 2l3 2 2-1v19l-1 1q-3-1-2 2l3 3v12h-1q1-3-1-2l-2 1-3-3-6-2-1-3-4 2-1-3 4-2-2-3 3 2v3l5 5q2 1 1-5l-2-4 1-4-3-3-8 3 1 1-4-1v-4h-4l-1-4-2 1 2-3-2-3 1-2-2-2-1 1-3-3-2-1h-2l-4 1q-3-1-1-2l2-4v-2q2 1 1-1l1-5q-3-1-2 3l-2 4q-4-1-5 2l3 7h-3q-1 4 3 5l4-2 3 1-1 3-8 2q1-4-1-5l-4-1q0-5 3-5v-5l-4-3 1-5-1-5-5-1-2 1 3-8-1-5-6 4-1 7-2 2-4-1-1-2 3-1 1-3-4-3-2 3-5-2q1-3-2-2 1 4-2 5l-6-3 1-4-6 1-3-1 2-3 3 1 4-1q2-4-2-3l-6-4 1-6-4 2 1 7h-1l-1-3q-5-1-6 2t2 4q2-1 1 2-1 2-2 0l-5-3-1-2 2-3-2-2q-4 1-3 5l-5 4v1l-5-1-1 4-2-3-3-1-3 1-1 6 5 1h-4q2 4-1 3l-3 1q2-4-1-3-3-1-2-5l-5-2q-1 5 3 7l-3 2q-1 3 4 1l-1 2q-1 5 2 6l-3 1-3-4q2 1 1-1l-4-5q3-2 2-5-4-1-3 3h-3l-2 3 7 6h-2l1 10q3-1 2 4l-2-2-2 2-3 2q1 4-1 5l-6-2q2 5-3 3l-2-9q-3-1-4 2l-4-1 2 9h-4q2-4-1-3l-3-1-2 4-7 6h-2l-2-2 30-29v2l-4 5 2 2 1 9 2 2 5-3-1-7 3-1-5-13 4-2 1-3 9-9q2 1 1-1l5-4 3 3q1-5-2-5l8-7 5 1 1-3h-5l21-22-1-3h-48l-93 91-2-1v-88l-1-2h-34l-1 1v150l-2-1q1-4-2-3v-3q-1-4-5-3l-2 4 2 4-2 4 2 4-1 3 1 3q-1 2 2 1l4 2 3-4v26l-4-4-7 2-1 4 7 6h2l5-5h34v-41l29-29 2-1 39 30q1 2-2 1l-2 1q-1-3-5-2-3 1-2 6h5l3-2-3 5-1 9 1 1-3 3 1 4-1 5q4 7 7 0 1-5-2-5l2-1 1-7q-4-2 0-4l2-3q2 1 1-2v-2q4 2 3-1l-1-3 8 6 2 2q2-1 1 2l5 4-5 2q-2 5 2 4l5 4h4v2h3v2q3-1 2 2l3 6 4-2v5h-2q-3 1-2 6l-3 2q-1 3 2 4 2-1 1 3l-5 4-1 8-1 1-1-3h-2l-4 3h-2q-3-1-2 2h-2q-3 1-2 6l-6-4h-4l-2 3 1 3-3 2-1 2-7-2-3 4-3-1v3l-3-4-5 2-2-4-6-1 2 4q4-1 2 4h-3v-2l-1-3h-8l3-2q1-4-2-5-7-1-8 2l-5-2 4-6q5 2 4-1l3 1q4 2 3-1l2-4-1-4 1-2-1-2-8-1 1-5 2 1q1-4-2-5l-5-1 1 4-1 5h-3v-7h-3l-3 1q1 4-6 2-2-3-7-2l-1 5 1 2q5 0 7 3 1-3 3 2l-1 2-4-1q-2 4-4 1l-4-9-5-6-4 2 1 4q-5-1-7 2l2 7q-6-1-7 4v1q-4-2-3-7l1-2-3-6h-6v-2l-1-3q-4-1-5 2l1 4-2 4 3-2 4-1v5h-2l-5-1-1 3-4-1-4-3 1-5q-1-4-8-3l-7-4-1-3-3 2-2 4-1-2q1-3-2-2l-3-1q1-3-1-2l-7 4 3 4h-2l2 7-1 1-10 1v-1q4 1 5-1l1-5-5-6h-2q-4 3-4 9l3-1 1 3h-5q-4-2 0-3l-4-7-3 5-2-4q3 1 2-1h-2q-1-5 1-6l-1-2h-8q2-6-2-8h-2q3-2 1-7l-5-3 1-2-3-6h-3v6l2 3q-4-1-2 6l1 2-1 3q1 2 5 1h1l2 4q-4 1-3 5l-3 1v-1l2-1q1-5-1-6-5-1-5 2l-4-2-5 4q1-5-2-6-3 1-2-2l4-2 5 2q2-1 1-4l-1-4q3 1 2-1l-2-3 3-2-3-11-7-1-2-1V71l6-23q7-16 19-27Q40 5 66 0Zm294 22-2 3 3-1q1-3-1-2Zm19 9v2l3 1q2-4-3-3Zm-8 5-1 4 5 3h2l-2-4q1-5-4-3Zm11 0q-1 4 2 3 1-4-2-3Zm-9 7q-3 2-2 7 4 1 3-1v-2q1-5-1-4Zm17 4-2 4 3-1q1-4-1-3Zm-8 3-3 2q1 2 5 1 2-4-2-3Zm-17 4v1l4 1q1 2 2 0 1-3-6-2Zm24 0-2 2h4q1-3-2-2Zm3 2-6 4h3l-1 2 3 3q4 1 2-3v-2l1-2zm-69 2-9 4-7 8-3 10v21l1 2h29l9-5q5-5 7-13v-8l-3-8-11-10zm39 0q-3 1-2 5l3-1q2-5-1-4Zm20 1-2 2 1 4-1-1q-3-1-2 2l6 3v-3h2l1-3zm-6 1-4 8 3 1 1-3zm2 9q-1 5 3 3 2-4-3-3Zm13 1-8 3h3l2 4 4 2 2-2 1-5q-1-3-4-2Zm-20 2v3l3 1v-2zm4 0v4l2-1q2 1 1-1zm9 4 2 4q2 1 1-2zm4 4v3q4 1 3-1zm-23 1-2 2 2 3 2-1q2-5-2-4Zm5 0 1 4-1 2q-1 2-2 0-3 1-1 3l-1 2q-1 4 4 2v-2l5-8q-1-4-5-3Zm7 0q-3 2 0 3 3-1 2 2l4 2 1 1q1-7-1-8l-3 1zm8 2v2l4 1-1-1q1-3-3-2Zm-26 1v3l4-1zm20 5-2 2q-1 2 2 1l1 1zm-5 1-2 3q2 3 3 0 1-4-1-3Zm10 0 1 5 5 3q2-1 1-5h-2zm-22 2v3l2 1q1-5-2-4Zm18 2q-3 1-2 5l-3 2q4 2 4 8v1l4-3-2-5v-7zm-6 2-2 2q-1 3 3 1l1-2zm-24 6 1 2q1-3-1-2Zm22 0-2 2 1 3q-1 4 4 2l1-5zm12 0v3l3 1-1-2q1-3-2-2Zm-18 2q-1 4 2 3 1-4-2-3Zm-61 2 1 4-1 3q-1 3 2 2l-2 3 2 2q3-1 2-4l4-3-4-3q1-3-2-2v-2zm67 7q0 3-3 2l-2 4 3 1 2-4zm6 0-2 4 2-1zm8 0 1 4q-1 2 2 1l1-4zm10 1-2 2q-1 3 2 2zm-83 1-2 2h3q1-3-1-2Zm17 0q-3 5 1 4zm-35 1-2 2q-1 4 4 2l1-2zm-92 1-2 2q2 3 3 0t-1-2Zm118 0q-1 3 2 2 1-3-2-2Zm66 3q-1 3 2 2 1-3-2-2Zm-57 2v5l3-1 6 3q2-1 1-5l-8-2zm50 0-2 2-4-1q-4-1-3 3l6 3 1 5 2 1-2-4 4-7zm-13 1-2 2 1 3h1zm-53 1v2q2 3 3 0zm12 0-7 2-1 5 3 1q3-2-1-3l6-2zm35 0-3 3q-1 2 2 1l1-2zm25 0-2 2 3 1zm8 1-4 1q-5 1-4 8v2q-1 3-5 2-3 1-2 7l-4 4q-1 2 3 1 2 5 4 2l-1-9 3-1 6 3q1-5-2-6l1-8 6-3 2 2-1-3q1-3-2-2Zm-106 1q-1 3 3 2 1-3-3-2Zm4 0q-1 5 3 6l3-1-1-3v-2zm89 3q-1 4 2 3 1-4-2-3Zm-6 1-1 5h1zm17 1-2 3q-1 3 2 2l1-2zm-55 1-3 1 1 5 5 1 1-1-3-3q1-4-1-3Zm28 1v2l3-1zm-41 2-3 3 3 3q3 1 4-1 2-7-4-5Zm-11 1-4 1q-1 4 4 2zm-50 1v3q2 3 3 0 1-5-3-3Zm12 0q-3 1-2 5l4-2q2-4-2-3Zm83 0v2l2 1q1-4-2-3Zm-6 1v5l4-2zm18 0-4 3q-1 3 2 4t4-1v-6zm-54 1-2 2 4 1 1-2zm77 0 2 3q2 1 1-1zm-48 1-2 3 4 1q2-5-2-4Zm-91 1q-1 4 4 2 1-4-4-2Zm7 0-2 2v1h5q2-4-3-3Zm135 4-2 2 2 3 1-3q1-3-1-2Zm-36 1-3 4-3 10 4 2 1-3q3-1 2 2l4 1 1 3 4-1q-3-3-2-10v-2l2 5q-1 2 2 1l-1 4h3l-3-12-7-4zm-102 1 2 4q3 1 2-2zm55 0-2 2 4 1q2-4-2-3Zm36 6-3 4 3 1 2-3zm25 1q-2 4 3 3l-1-1q1-3-2-2Zm7 1q-3 6 1 5l1-3zm5 1q-2 5 2 4 2-5-2-4Zm-38 3-2 4 6 1 1-3q-1-3-5-2Zm15 3-2 2-1 8q1 2 5 1l3 3 12-2 3-10-2-2q-4 1-3 6l-3 2h-3v-6q-3-1-2 2l-3 2-4-1 1-2zm-6 9 2 4 2-1zm19 11q-1 5 3 3 2-4-3-3Zm20 5-2 3 2 1zm-18 3-2 3q5 2 4-2zm15 1q-3 1-2 5 4 1 3-1v-2q1-3-1-2ZM72 230l-1 4q-1 2 2 1l1-2q1-4-2-3Zm15 7 2 4q2 1 1-2zm2 6-3 4 4 1q1-4-1-5Zm-12 6-2 2 2 2q3 1 2-2zm-70 2q-2 5 2 4 2-5-2-4Zm8 0-2 4 4 1v-5zm37 8 3 4q2 1 1-2zm12 2-4 3-2 3q1 2 6 1zm154 0v3l3 1q2-6-3-4Zm-185 2v3l4 1-2-4zm37 0-1 2v2q-1 2 3 1zm155 0v3l4 1q2-6-4-4Zm-196 1v3l4 1-2-2q1-3-2-2Zm9 2q-1 3 2 2 1-3-2-2Zm58 0-3 6 4 2 2-4-1-3zm-53 1q-3 1-3 5l4 3q1 3-1 2l-2 2-1 6q1 2 5 1v4h4l-1-2 1-5-2 1-2-5 5-3-1-7-2 1zm148 0v2l3 1q2-4-3-3Zm12 0-2 2q-1 4 3 2v-4zm-168 1-2 2-2-1q-3-1-2 2l3 1 4-2q1-3-1-2Zm-22 1-2 2 3 1q1-4-1-3Zm22 2-1 7 3-1q1-3-1-2l1-2q1-3-2-2Zm-6 1-2 2 4 2q2 1 1-2zm31 0-2 2 2 2q5 2 4-2-1-3-4-2Zm31 0v5l3 2 4 1q4 1 5-1 1-5-1-6l-6 4-4-1zm108 0-3 3 2 3 3-2q2-5-2-4Zm-119 1v2l5 2q2 1 1-2t-6-2Zm-7 1-4 6q1 2 5 1 2-1 1-5zm-43 3v4q-1 2 2 1l1-3zm32 2v7h3l-1-5q1-3-2-2Zm-50 2v4l2 1zm83 0v4l2 1q2-6-2-5Zm-37 1-2 2q-1 2 3 1 1-4-1-3Zm29 0q-1 5 2 6l3-2-1-3zm-56 1-1 5 3-1q2 1 1-2zm159 1-1 3h1zm18 1-3 3 2 2 3-1q2-5-2-4Zm-155 1q-1 4 2 5l2-1-1-2q1-3-3-2Zm34 4v6h4q2-1 1-5zm110 0-2 3 3 1v-4zm-154 1 2 2q1-3-2-2Zm88 2-3 2q-4 2 1 4l4-1-1-3q1-3-1-2Zm-89 1-2 3h4v-1zm81 0-1 1q-4-1-3 3l4 2 2-1-1-3q1-3-1-2Zm-6 7-2 2h5q1-3-3-2Zm4 1 3 4 1-2zm2 7-2 2q-1 4 3 2v-4zm82 2 1 6-1 2 2 3 2-1q-2-5 2-4l1-3q-2-4-7-3Zm-16 12v3q4 1 3-1z"/><path stroke="#000" d="M398 96v3h-1zm-32 57-3 4q1 2-1 1zm-35 8 5 2h-4zm-76 11 3 3v1l-7-1zm109 12q2 3 1 9h-1l-1-3v-2zm-146 1 2 1-1 3q1 3 5 2l6-2 4 4h-5l-1 4-6 2-2-6-4 2 1 7 3 3-2-2-9-6 9-7zm6 22 5 2-1 2zM1 261q3-1 2 3l3 2-1 2 1 2-4 5v3l1 2H2l-2-7 3-1 1-2-2-5H0l2-1zm238 6 2 4-2-2h-2zM12 293l2 1-2 3 1 1q-3 1-2-2zm-11 2 3 5H0zm22 1 1 4 3 2v1l-1-2-1 2-7-3-2 3 2 4-4 2v1l-3-4q-5 2-4-2v-2l7 3q2-1 1-5v-2l2 1h2zm42 2q3-1 2 2 1 2 5 1 1 3-2 2v3q4-1 5 2l1 3q5-1 3 3l-4-1-2 1-3-1 1-1-4-4v-6zm96 12v2h-2zm-51 2 1 3-1 2zm41 8 5 1q-1 4 3 5l1 1-3 4v2l-4 2v3l-3-3 4-3q0-8-3-12Z"/><path fill="#090909" stroke="#090909" d="M373 43q2-1 1 3h-1zm-2 4 2 1-1 2zm19 0 1 2h-3zm-28 12v4l-2-1zm-48 3-1 2zm-3 3-1 2zm69 4 1 3h-1v-2l-2 1zm-75 10v22h-1zm66 2q3-1 2 2v2l-3 6q-3-1-2 2l2 1h-3l1-3-1-2 3-1zm-11 4 2 1q-2 3-2-1Zm-15 10-2 3zm28 2 2 1q-2 3-2-1Zm12 7 2 2h-1zm-7 9v2l-2 1zm-160 7-15 16zm77 6q3 1 2 5-4 2-3-1l-1-2zm6 5q2-1 1 2l-2 3 5 4q-1 2 3 1l-1 2-5-1-3 1-1 7q3 1 2-1l4-2h2q3-1 2 2-2 1 1 2l3 2q-1 2 2 1l4-4 1 1 5 2 2-3 2 1-1 3q-6-2-5 2h3q-2 4 3 3l1 2-3 2 1 1 3-2 2 2 5 1q-1-5 3-6l3 1 1 7-1 3 4 1v6q-3 0-3 5l6 4v1q-2-4-4 0l1 3 7-2-2 3 1 3-1 2 5 1v-2q-3 1-2-1v-2l4 3 3-2q-2-3-7-2l6-3q-2-3-1-10h1l1 4 2-3v2l-2 6q3 1 1 7l3 2q4-2 3 3l-1-1q-6-1-7 2l-1-2-2 1v7q3 1 2-1l2-3q3 2-1 4l1 6q-3 1-2-1 3-2-1-4-4 1-3-2l-2-4q-3-1-2 2l3 6-3 2 1-2q-6-1-8 2l-1 3q4 1 3 6l3-1v2q-3-1-2 2l-1-1q-3-1-2 3l4 1h1v2q1 5-2 6l-2 1q1 2 3 0 3-1 4 2l-1-1-2 1q-2-2-3 1t2 2l1-2 3 1h1l-1 2h-2l-4 1v3q-3-1-2 2l2 1h-2q-2-2-6-1l-14 9q1 2-1 1l-4-1 1 5h-1l-1-3-2 4 1 2q4 2 3-1l2 1v4l-5-1-4-9-5 3-1 4-1-2-2-1-1 4h-2v-5q-3 1-2-1l-3-2q1 4-4 2v-9l-1-2-7-1-12-5-36-25q4-2 1-4l-3 2-6-4 1-5-6-1q-2 2-3 0 1-4-1-3l-2-1q1-6-1-8 4-2 3 3l3 4 6-4 2-3q5 2 3-4l-7-2-6 2-1-3q1-3 6-2v-5l-2-4 4 1q1-4 3 0 0 5 3 7l3-1q-1-3 2-2l4 2q2-1 1-5l4-4 4 3 4-1 3 1q1-4-1-5l-3-1-4 2v-1h1l-4-3q4-2 1-3l-1-3 2-1q-1 2 2 1 1 3 5 2l1-4h-2v-5q3-1 2 2l-1 2 3 1-1-5 6-2q-1-3 2-2l3-1q-1-3-6-2-1-4 3-5l6 4 1-4 5 1v-3h2q-1-3 2-2l1-4 3-1-2 3 1 1v2l5 4 3 1q1-3 4-2 1-3-3-2l-3-1q-2-6 5-4l2 3q3 1 1-3l-1-4zm2 17v4q3 1 2-2zm-6 8q-2 3 1 2zm24 3 1 3 1-2zm-27 5-2 2 2 1zm34 15-2 4 2-1zm-96 7v2l3 1q2-4-3-3Zm11 3v2h3zm93 1q-1 3 2 2 1-3-2-2Zm-99 1-1 3h1zm111 0v1h2zm3 10-2 1-2 3h2q-1 3 2 2zm-8 17 2 2q1-3-2-2Zm2 10q-1 4 2 5 2 1 1-3zm-55 15-1 4 3 1 1-3zm22 5-2 2 4 1zm-6 4-1 4-1 1-4-2q-1 3 2 4 4 1 6-2l1-1zm7 2 1 4q4 1 3-1zm-55-119q2-1 1 2zm66 1q4-2 3 3l-3 1-2-2zm-60 2 2 1-2 1zm10 0 2 1-2 1z"/><path fill="#090909" stroke="#090909" d="m253 147 3 2q1 2-1 1zm85 0q2 1 1 5l-4 9-5-1q4-2 3-8zm-5 9q-1 4 2 3 1-4-2-3Zm26-9 3 1-3 2v-1zm-99 1q2-1 1 2zm109 0 2 2q1 4-2 3l1-4zm-4 2 2 1-4 2q1 3-3 2v3l-1-1q-3-1-2 2l2 1h-2l-2-2q3-2 2-7h2q-1 3 2 2zm-108 1 2 4-1-1h-4l2-1zm-14 2q6-1 7 4l1 2h-2l-6-4zm-6 2 4 12-3 1 1 7-5 2-1-9-2-3 4-3q-1-6 2-7Zm160 1-1 2zm-46 3 1 3-2 1-3-1q-1-3 3-2zm28 7 1 3-4 3-1-2 4-1z"/><path fill="#090909" stroke="#090909" d="m369 167 2 1q-2 1 1 3v2h6l2-1-2 2h-9l-1 1-1-2h4v-1zm-5 1 3 1h1l-2 4q-4-2-2-5Zm-3 3q3 2 0 3zm-145 10 4 2q1 3-3 1v6l-3 3q-4-1-5 2 1 2-1 1l-6-4q-1-4 2-3l4 2 8-7zm154 7 1 3h-1zm22 4q4 2 1 4h-2l2-1-2-1zm-19 6 3 2-5 1zm7 1v2h-3zm-4 5 1 3q2 1 1-1h1q-1 2 3 1l2-1-1 2q-1 3 2 4l1-2v-2l2 2-2 3 6-2 2 3 2-1v2q-4-1-2 5 2 1 0 2l-1-3-7-2-1-3-2 1-3-3q3-2-1-4-3-1-2 4l-1 2q3-1 2 3l-1-1h-2v-4h-1v-1q2 1 1-1l-3-2zm-6 8 2 1-2 1z"/><path fill="#090909" stroke="#090909" d="M383 218q1 3 4 2l2 3 3-1v2l2 1h1l-1 4 3-2q2-1 1 3h-2v3q3-1 2 3h-2l1 3h1q-1 2-2 0h-4q1 3-1 2v2q1 2-2 1v2q2 4-1 3l-3 4h-5l3-1 1-2q1 2 2 0 1-3-1-2l-3-4 3 2 1-4 3 1v-2l-1-2v-2l-1-3-2 3 1 1q-3-1-2 3l1 1-3-4h-3l3-1q2-4-1-3-2 2-3 0l3-2-2-3 2-4-4 1-2-2h1l1 1 5-2 1 3-1 6 6 1 1-2q2 1 1 5 4 2 3-2l1-2-2-3q2-2 0-3-6 2-5-1l-1-4-4-1zm-27 4 2 2h-4zm1 5 2 1-3 2zm13 2 1 2zm-10 8 1 3-2-1zm-3 4v3h-1z"/><path fill="#090909" stroke="#090909" d="M397 242q2-1 1 3l-2 5q4-1 2 4-4-1-2 4h-3v2q1 3-1 2l-2-1v2l-4 2q-1 5 3 3v4h-2q1 3-1 2l-2-1-3 2 1-2-1-2q4-2 3-6-3-1-2 2l-2 3-1-2q2-5 7-5l3-4 2-1q-1-3 2-2l-1-2-6 2v-3h2v-3q4 2 3-1-2-2 1-3 4 2 3-2zm-5 5q-2 5 2 4l1-2q1-3-3-2Zm-30-1 1 2q-3 1-1-2Zm-146 4v2l-1 2h-2v6l3-1-1 2q-3-1-2 2-6 3 0 6l-1 2q-3-1-2 3h-1q1-4-2-3v3l5 5v2h-1q1-4-1-3l-4-1v-2q-1-4 2-5 2 1 1-1v-2l1 1-1-3-2 1 3-5 2 2q1-4-1-5h-2l3-2-2-3q4 0 6-3Zm149 0 5 1h1l-3 2-3-1zm12 0v3l-2 1-1-1zm-173 1q4-1 5 2l-1 2-3 1-2-2zm131 0 3 3 1 2h-3q-1 4 2 5l4-1v1l-4 1q-2 6 3 4l2-6 4 1q1 3-1 2-2-2-3 1l-3 4q-7 1-6-1l-2 1 1 1-5-3 2-3q0 3 5 2l1-2q-2-5-3-2l-3-1h2l3-1-3-5zm26 2 1 4-3 1v-2h-2zm0 1-2 2h2zm-7 1 1 2h1q-1 3-3 0z"/><path fill="#090909" stroke="#090909" d="m341 256 2 1h1v1h-4zm34 3 1 2zm9 0 1 2q-3 1-1-2Zm-21 1 2 4q-1 3-3 0v-2zm-132 1 5 5-1 3 6 3 1-3 4 3-1 4 5-1 4 4 1 2 3-1 7 5 3 6 2 1-2 3 4 5 1-2-2-3 1-3 7 1 3-4v4l-5 4-1 3 1 2-4 1v2l-1-2q-4-2-3 3h2v2q-3-1-2 2l7 4 1 5-1 2q2 4 4 1l2-4v4q-3-1-2 3l3 1q-2 1-1 6l-1 1h-2l2-1-1-4h-2q1-3-1-2l-9 7q1 3-1 4-3-1-1-2l1-5 6-2 3-5-1-5q-3 1-4-2l-6 4q1 3-1 2l-2-3q2 1 1-1l1-3-5-1 4-3 4-6q-2-2 1-3 1-4-1-3h-2q-3 1-2-3l1-2-4 3q1 2-2 1v2q3-1 2 2l-9 6 1 2h3l4-4h2v1q-3-1-2 2l-3 1-1 6 3-1 1 7-1-1q-3 1-2-3h-2l-1-1-3 2-1-3-2 4 1 2q3 1 2-1h1l-1 3-4-1-1-4 3-4q2 1 1-1v-2q4 1 2-3l-2 1-5 2-1 5 1 4q-1 4-6 3-1 5 4 7l-4 1-1-4q-3-1-2 2l-1 3q-3-5-5-1l3 3 3 1h1l-1 4 6-2-1-4-2 1q1-3 6-2 1 3-2 2v5l-1 2-6-1-4 1q-1 3 3 2v1l-4 2 1 1-3 3 2 2q1 3-1 4l-4 2-4 9-8-6v-3q3 1 2-1v-2q2 1 1 6l5 4v-3l-2-5 1-3v-2q2-1 1 2l4 2 2-5v-3l-3 2q1 3-2 2l-1-4-3 1v-6h2q-1-4 2-3 2-1 0-2l1-5v4l3-1 2 1 2 3 4-2-1-3-3 2-2-3-2 1 1-4h-2q1-3-1-2l-4-1 1 3-2-2-3-1-1-3 4-2q2 5 7 5l1-3v4h2v-4h2l-1-2-3 1 1-2 3-1q-1-3 3-2l2 1 2-1-1 2q-1 2 2 1l4-5-1-2 3-5q2 1 1-1 4-1 3-5v-2q1-4-1-3l-2 1 3-2v-6h4v-7q-4-1-5 2l-1-4-3-6q-4 2-3-1l-2-4q-3-1-2 3l1 1-3-1-1-3-4-1 2-4q5 2 3-3-4 1-4-4Zm20 34 2 6q-1 4 2 3l-1-5 1-2v-2zm16 16q-5 3 0 5h3zm-32 13-2 3q2 3 3 0 1-4-1-3Zm-10 17v3l4 1 1-3zm-3 4v2l3 1-1-1q1-3-2-2Zm74-84q5-2 3 5l1 3-6 4-1-4q3 1 2-3zm-75 1v3h-1zm173 0 3 2 1 4-1 2 1 5-1 2-1-4-1 2h-5l3-2q1 3 3-1l-2-4-3 1v-1q2 1 1-2v-2l2 1zm1 3q-1 4 2 3 1-4-2-3Zm-38-2-1 2v1l-1-1zm-30 1v5h-1zm-17 1 2 1q1 4-2 3zm-2 1v2l-4 3zm-105 1-1 2zm169 0 3 2h-1zm-13 1 1 2zm-23 1 1 2zm-24 1v2l-2 1-1-2 2 1zm18 0v2h-2zm5 1 1 2zm23 0 2 1h-2zm-159 1q2-1 1 2v3h-4zm123 0q3-1 2 2l-1-1zm22 0q4-1 2 3h-5v-2zm-45 1 3 2 2-1-2 3 3 1q0-3 5-2 4 2 1 4l-1-3q-4-1-3 2h-2l-9-3q-1-3 2-2zm31 0 2 2v1l-1-2zm4 0v4h-1zm22 1-1 2v1l-1-1zm15 0 1 2zm-45 1 2 2v1l-1-2zm11 0 1 2zm-22 1 3 4q-3 1-2-1zm9 0-2 3zm26 0q2-1 1 2l-3 5q-4-1-3-5l3 1zm-144 2 1 3h-1zm119 1 1 1-2 1zm10 0q3 2 0 3h-2l-5 4-1-1 3-5 4 1z"/><path fill="#090909" stroke="#090909" d="m340 279-1 2h-2zm-33 1v3h-1zm46 0 4 4v1l-4-2zm-36 1q5-2 4 2l-3 3q2 1 0 2-4 1-5-1l3-1 2-1zm26 1v3l3 1q-1 2-6 1-1-4 3-5Zm27 0q5-2 3 4l-1-1-3-1-1 2-1-3zm-20 2 4 5 2-1-1 2-5-2zm-326 1 3 2q1 2-1 1v-2q-3 1-2-1Zm185 0 1 2zm167 0 2 2q1 2-2 1zm3 0 5 1q-1 2-5 1zm8 0 2 1-2 4 1 1-3 3h-2q4-4 4-9Zm-87 1 1 2zm-26 2q4-1 3 2-4 1-3-2Zm32 0v3h-1zm29 0q3-1 2 2-3 1-2-2Zm35 0v3q-4 2 1 5l2 3-1 2-2-4-3-1-3 4-2 1 3-4v-3q-4 2-3-1h2l3 1zM1 289v3H0zm343 0v2l-2 3q-5 2-4-1h2l3-2zm6 0 1 2h1l-7 9 3 3 2 2v2l-3-4-3 2 1 5-2 4 1 2-6-1 2-4 3-2 1-6v-2l1 1-1-2 2-3v-2q-1-3 2-2zm8 0 2 4h-3l-1-2zm-71 2 5 3h1v1q-4-1-3 2h-1zm110 0 1 2v8l-1 3-4-2 2-1 1-6-3 2-1 2-2-1q-2 2-3 0l2-1 1-3 2 1q-1-3 2-2 1 2 2 0zm-366 1 2 1-2 1zm165 0 1 2zm122 0q5-2 3 5l-1 3q-3 1-2-1v-2l-1-3-4 3 2-3zm35 0 1 2zm-59 4v3h-1zm92 0v3l-2 1zm-98 2v2h-2zm15 0-1 2zm-5 1 1 3h-1z"/><path fill="#090909" stroke="#090909" d="m316 299-2 3q1 2-1 1l-2 1 3-4zm36 0 1 2zm-219 1q2-1 1 2h-3zm172 0 5 3q1 3-2 2l-2-4-3 2zm21 0 3 2h-3zm-304 3 1 2zm29 0 3 2q1 2-1 1zm315 0 2 1q-2 4-3 1h-2zm-31 1-2 3v2l-1-2zM3 305l2 2H4zm288 0 1 2-2 1-1-1zm39 0-1 2 1 2-2-1zm66 0-1 2v2q3-1 2 2l1 3q1 2-1 1-2 2-3 0l1-2h-2l-1-3-3-1q-1-4 5-2zm-76 1-1 2zm58 0q6-1 7 3h-2l1 5v2q1 4-1 5l-5-5 3-1q2-4-1-3l-3-1zm-349 1 1 2zm340 0q2-1 1 2l-9 3q1 3-2 2l-1-2zm-63 1-1 2zm-274 2 1 5h3q-2 5 3 4l-1 2q-1 2 2 1l1-2 1 1 2-4 2 1-1 4q-4-1-5 2v1l-6-4-1-4q-3 1-2-1l1-2-3 1q-1-3 2-2zm10 0 1 2zm43 0 2 2-1-1zm123 1 3 3-1 3-2 1 1 2-3 1 1-4q-3-2-2-5zm74 0v3l-2 2 1-3h-2zm43 0 1 3-2-1zm10 0q3 2-1 4h-7zm-294 1 1 2zm243 1 2 2h-1zm105 0v3h-1zm-334 1v2h-2zm53 1-1 2h-2zm3 0 6 3-1 2-5-3zm33 1-1 2zm-80 1q4-1 5 2v2l-1-2q-5 2-4-2Zm174 0-1 2zm99 0q1 3 4 2-1-3 3-2l-3 4q-5-1-4 2l5 1q-2 5 2 4-1-4 5-2l2-1-1 2q-4-1-3 2-1 2-2 0l-4-1q-2 4-6 3l-1-3-4 1v2l-1-1 1-3 4-2 2 1 2 3 2-1q1-3-3-2v-3q-3 1-2-2h-2l-2 1q-1-4 2-3l2 1zm50 0q3-1 2 2-3 1-2-2Zm7 0 1 3q-3 1-1-3Zm-342 1 1 3h-1zm32 1 2 2v1l-1-2zm24 0 2 2v1l-1-2-2 1zm161 0 1 6q-3-1-2 2v2l-3-1-1-2h2l2-1 1-3zm27 0-2 3z"/><path fill="#090909" stroke="#090909" d="m346 319 3 1-5 2v2l-1-2zm43 1 2 3q-5 2-4-1zm-266 1 2 2h-1zm187 0 1 2h-4zm10 0-1 2zM3 322l2 2-1-1zm249 0 4 1-1 2 1 3-3-1zm110 0 3 2h-6v-1zm4 0q3-1 2 2-3 1-2-2Zm-311 1 3 1-2 4-3-1zm0 1-1 2q2 3 3 0zm134-1 3 2h-2v1zm-146 1 1 3-2-1zm273 0-1 2zm40 0 2 1q-1 4 2 6l-1-1-4-2zm14 0h4v2l6 2 3-4-1 2-1 4-3-1-2 1-2-4-2 1zm23 0q2-1 1 2l1 1-3 1q-4-2 1-4Zm-360 1 4 5zm266 0q2 1 0 3v1l-1-1zm-232 1 2 2-1-1-3 2v1l-1-1zm64 0 1 1h-2v2l-1-1zm111 0q3-1 2 2l-2 1zm78 0v2h-2zm-207 1v4q-1 3-3 0h2zM3 328v2l-2 1zm28 0q3-1 1 5l-3 2 2-5zm273 0 1 1-2 1zm18 0-1 2zm65 0v2l-3 4q-4 1-3-1l3-2 1 1zM5 329v4H4zm9 0-1 2zm37 0 2 1 2-1v1l-2 1zm119 1q3-1 2 2l-2 1v-1h1zm124 0 3 1-2 3 1 3h-1q1-3-2-2v-2zm20 0q3 2 0 3zm34 0q6-1 7 3v1q-2-3-7-2zm-246 1v3q-3-1 0-3Zm82 0 2 2-1-1zm188 0q4-1 3 2-4 1-3-2Zm-157 1 3 2 2 4-3-1q2-5-2-4zm36 0 2 1h-2zm83 0 2 2h-1zm35 0q2 1 1 5l-1 2 1 3-1 4 1 1-3-1-1-5h-2l-2 1-4-1-1-4 5-4v3l-2 3 3-1q1 3 3-1l2-1zm-325 1 2 2 1-2v2l-3 2zm228 0v4l-2-2zm46 0 1 2zm-205 1 1 4-2-1zm31 0v3h-1zm109 0-2 3zm51 0 5 3q1 3-1 2l-3-1zm-40 1v3l6 3-1 2-3-4q-5 2-2-4Zm63 0-1 3 1 1h-1q-4-2 1-4Zm20 0 6 2-2 1-4-1zm-265 1-1 2 1 2-2-1zm96 0 1 3h-1zm69 0 1 2zm14 0 1 2zm13 0 2 1h1l-5 2v-1h2zm16 0q2-1 1 2h-3zm29 0 1 2zm-218 1 1 3-2 1 1-2-2 1-2-1q2 1 4-2Z"/><path fill="#090909" stroke="#090909" d="M214 337q3-1 2 2l-2 1v-1zm98 0 1 3-3 1zm-274 1v2h-2zm9 0 1 2zm44 0 2 1h-2zm60 0-1 2zm60 0q2-1 1 2zm46 0v2l-1 2-2-2h2zm46 0 1 3q3-1 2 3l1 1-5-5zm27 0q2-1 1 2h3l4 1 1 3q-1 2-2 0l-8-2-1-2zm-285 1-1 2q1 2-1 1zm14 0 1 2zm66 0 2 4-2-1zm5 0v3h-1zm51 0 3 2h-5zm160 0 4 1 2 3q2-1 1 2-3 1-2-1l-5-4zm38 0 1 4-2 1 1-3zm-343 2 1 2q-3 1-1-2Zm55 0-1 2zm98 0v3h-1zM4 342q1 3 5 2 1 3-1 2-2 3-4-1zm22 0 2 2-1-1zm187 0 2 2-2 1zm30 0 2 2-3 2q2 4-1 3l-2 3q-5 2-4-2l3-2 2-4zm17 0 3 2 3-2-1 3q-4-1-3 2l4-1-1 3 3-2v2l-1 3-6 4v-1q1-3-3-2-1 5 2 5v6l-2-1 1-2-4-6-4 1 3 4 2 2 1 5q-2 3-7 2v3q-5-3-4-8 3 1 2-2h-2l3-4-3-5 3-2 2 1h1q-1 2 2 1l-1-5h-3l3-4v3l5-2 2 1zm-3 4-1 2 3 1zm3 2q-1 4 2 3l1-2zm-3 2-2 2 2 2v-1q2-2 0-3Zm-8 10v2l4 2q2-6-4-4Zm76-18-1 2zm32 0-1 2-2 6q-3 1-2-1l-2-3 3-3zm18 0 2 2-1-1-3 2zm-295 2 1 2zm103 0 3 1h-3zm16 0-1 2zm69 0 2 1-2 1zm25 0 2 2-1-1zm33 0 3 2-4 6q-3 1-2-1v-2l2 1q2-1 1-6Zm-270 1q3-1 2 2l-1 2q-3 1-2-1zm285 0 4 4h-2zm-313 1 3 9-1-1-2 1-1-2q3-2-1-3zm179 0v2l-2 6-4 1zm5 0 3 2 2 5-2-2q-3 1-2-1z"/><path fill="#090909" stroke="#090909" d="m50 347 6 9q2-1 1-6 5-2 3 4l-2 3 2 3h3q-1 3 2 2 3 1 2 6-3 1-2-1l-3-2 1-2-4-2v2l-3-4 1-2q-4 1-3-1l-6-5zm227 0-1 2zm28 0-1 2zm61 0v2l-4 1q-1-3 3-2zm-334 1 1 2zm95 0-1 2zm33 0-1 2zm125 0 2 1-1 2 5 3h2l3-1 2-3q2-1 1 2l-3 2q3 5 5 0v-2l3 1-2 1 2 3 4-2h6l1 4q4 1 5-1l-3-1 1-4 3 2-1 2 4 1-4 7 1 2-3-3-4-1 1-2-5-1-2 6-5 2 2-6q-1-5-6-4v2l1 2 2-1-1 8q3-1 2 3-3-1-2 2l-2 3-3-1 2-4q4 1 3-2l-4-1-2 5q-3-1-2 2l-3 1q0 6-4 8l1-2v-3l-4 3q1 2-5 1l-2-2 1-2-1-2 5-6 2-1q1-3-3-2l-2 1q-1-3 6-2 2 6 5 1l2-1v-2q-4 2-3-1l3-4h1l-2-4q-4 1-3-1l-2-2zm9 13-3 3 1 3-1 2q-1 2 2 1l3-4-1-3q1-3-1-2Zm-5 9-5 6v2q3 1 2-1l3 1 1-2q1-3-1-2zm-8 3-2 4h2l2-3zm-2 5v4l5-1v-3zm51-30q3-1 2 2l-2 1zm6 1 1 3h-2v-1zM7 350l2 2H8zm8 0q2-1 1 3l1 1-4-1zm120 0 1 2zm18 0 3 6h-2v-1zm57 0q4 2 0 5 2 6-3 4-4-2 0-3-1-3 2-2zm137 0v3l-1 2-7-2 2-1 5 1zm-158 1 2 2-3 2-2-3z"/><path fill="#090909" stroke="#090909" d="m66 352-1 2-1 2-3 1 1-2zm263 0-1 2-2 1-1-2zm-180 1 2 1-2 1zm49 0q-2 2 1 4l-1 1-2-3zm153 0 2 1h1l-3 5-3 2-2 4-1-2q1-7 6-10Zm-230 1-1 2zm43 0q2-1 1 2l1 1-2-1-3 2q2 1 0 2l-2-4zm-68 1 2 1q-2 1 1 2 4-1 2 4l-1-1-3 2 4 6q5-2 3 4l-2 1q1-4-1-5-3-1-2 2l-7 3-2-7 2 1 2 2 4 1q2-4-1-3l-3-4 3-2zm175 0 2 2 1-2v2l-1 2zm-248 1 1 1h-2v2h-3q1 3-1 2l2-3zm29 0 1 4q-4 2-3-2zm27 0 1 2zm197 0v3l1 1h-2q1 3-1 2l1-4zm65 0 1 4-1 3v3l-3-1-2 1 1-2q-1-4 2-3l-1-1q-1-4 2-3zm-203 1q3 2-1 4v1l-1-1q3-2 2-4Z"/><path fill="#090909" stroke="#090909" d="m337 357-2 3q1 2-2 1-2-4 3-3zm-230 1 2 2h-1zm81 0q3-1 2 2-3 1-2-2Zm7 0-1 2zm7 0 1 3 4 1q1 3-2 2l-4-1zm29 0q3-1 1 4l1 2-3-1-1-2h2zm134 0h2q-1 3 3 2 2 1 0 3 1 2-2 1v3h-2l1-3-4-4zm-273 2q3-1 2 2l-3 2-1-2q3 1 2-2Zm77 0 2 1-2 1zm-139 1-1 2zm42 0 3 2v4q-4-2-3-6Zm10 0 1 2zm81 0 2 1h-2z"/><path fill="#090909" stroke="#090909" d="M377 361q2 1 0 3l-1 3q-3-1-2 2l6 2q-1-3 2-2l-2 3v1l-7-4-2 1-1-2q1 2 2 0-1-4 2-3l2-1zm-274 1 3 3-1-1q-4 1-2-2Zm81 0 2 1q-2 1 1 3l3 4-1-1-2 1-2-5-2 1 1-2zm10 0 3 3-1 2-1-3q-3-1-2 2l-2-1q-1-3 2-2zm48 0 2 2-2 5 2 1 1-2v2l-1 3q1 2 5 1l1-1 3 4h-2q1-3-2-2l1 4-3 1v-5h-3q1-3-2-2v-2q-4 0-5 3v2l-1-2-5-2 1 3-1 1-5-3q1 2-2 1l-2-3 2-1 1-2-1-2 2-3 2 1q1-2 2 1l2 2 3-1 3 3 1-1q2 1 1-2zm-15 7 2 3 3-1v-2zm-213-6 2 1h-2zm37 0 1 3-3 1zm90 0 6 5h-1l-7-1-1-2zm30 0 3 1-4 2q1 2-2 1zm160 0v3h-2zm-313 1q2 1 0 3v1zm14 0 2 1-3 1zm91 0q3-1 4 2l-5 3q-5-2-1-4zm42 0v4h-2zm45 0 2 4-2 1-2-2zm-181 1-1 2q1 2-1 1zm7 0 1 3q-3 1-1-3Zm165 0q3-1 2 2l1 1-3-1zm124 0 3 1 1 7h-1l-1-4h-2l1-3zm24 0 3 1 1 2 4-2h2l1 1q-3 1-2 4l-3-2q-3 1-2 5l3 1q1 3-1 2l-3-1q2-4-3-3-4 2 1 5-1 3 3 1v5l-2 1-1-5h-3v-5h-2l-4 3v-3l-2 4 1 1-5-2 1-2v-2q2-1 1 2l3-2 3-1 1-2h2l3-1-2-3zm-306 1 3 2h-3zm93 0 1 3-2-1zm123 0v2l-2 1zm73 0 2 1-2 1zm-205 1 3 2q1 2-2 1l-8 4 1-2 5-2v-2l1 1zm33 0 2 1h-2zm18 0q2-1 1 2l2 3 2 1-3 1-1-3h-3q1-3-1-2v-1z"/><path fill="#090909" stroke="#090909" d="m342 367 2 1h1l-3 2zm-267 1q3-1 2 3l-1 2q-3 1-2-1l1-2h-2zm78 0v2l-3 2 3 1-5 2-1 3h-3q5-2 4-8 3 1 5-2Zm61 0 3 2 5 7 3 2-4 1q1-3-1-2-3-1-1-2 1-3-1-2h-2v1l-2-5h-2zm-15 1 2 6 6-1v3l-2 1-4-1-2-4-2 1v-1zm125 0v2l-3 5 1 2-4 3-3-2-3 1-1 6q-3 1-2-1l-2-3 9-5 1-5 2 1q-1-3 3-2zm-7 7q-2 4 3 3l-1-1q1-3-2-2Zm-272-6 1 4-3-2zm293 0q2-1 1 2zm-272 1-2 3q-1 2 2 1v4h-1q1-3-1-2l-3-4q3 1 5-2Zm3 0q2-1 1 2zm64 0 2 3 3-2 1 2q-3-1-2 2l-1-1h-6l2-1zm9 0 3 2-3 2 1-3zm68 0q2-1 1 2zm-151 1v2l-2 1zm28 0q3-1 2 2l1 1-3-1zm24 0q3-1 2 2zm6 0-1 2zm39 0 2 2h-1zm10 0q5-2 3 5h-1zm-144 1 2 3zm9 0q3-1 1 5l-3-2zm10 1-1 2h-2q2 4-1 3v-1q-1-4 3-3zm8 0 1 5-1 2-2-3zm255 0 2 1h1l-1 2 2 2-3 1-3-1q-1-4 2-5Zm-226 1 3 2-1 1 3 3-3-1q1-3-2-2zm19 0 1 1-3 2-1 3h-4l4-3q-1-3 2-2zm62 0-1 2zm209 0q4-1 2 5l-1 3-10 2-2-5 5-4v3q-3-1-2 3l7-2 1-3zm-279 1 1 1q-3 1-1 3l-5-1zm103 0 3 3-1-1zm52 0 1 7-1 4v2l-1 3 2 1 2-1q1 3-2 2l-3 1q1-3-2-2v-5q3 1 2-3-1-3-5-2l1-2 1 1q-2-7 4-5zm-31 1h3q-2 5 3 4 3 2 1 7l-2 1-3-3h2q3 1 2-1zm-153 1v2l-2 1zm13 0-1 2v2l-1-2zm43 0 4 3q1 2-2 1l-2 1zm16 0 1 1q-1 4-6 3v-1q4 1 5-3Zm9 0v2l-1 4-5-2 4-1zm14 0v3l-1-1-5 3-1 2h-2l2-1 3-4zm19 0q5-1 3 3-4 2-3-3Zm-141 1 1 4-4-1q-1-3 2-2zm150 0 1 6-1-1h-2zm25 0 1 2h1q1 4-2 4zm45 0 3 2-1 3q-3-1-2 2l-2 1 1-4q-3-1-2 2l-2 1 1-5 3-1 2 3v-1zm78 0v3l-2 1zm-224 1q4-1 5 3h-1l-2-1-2 1zm54 1 1 2zm12 0 1 2zm123 0v2l2 1h-1zm30 0q3 2 3 8h-1zm-275 1 3 2-1 2 2 2q-3 1-2-1-3-2-2-5Z"/><path fill="#090909" stroke="#090909" d="M86 382q4-1 3 2l3 1q2-5 4-1l-1 2 3 1q-1 2-2 0l-4-1-2 3q3 1-1 3 1 2-1 1l-4 6v-1l2-6 3-1-1-4 1-2q-6 2-5-1zm28 0v3h-1zm11 0v3l-4 1-1-1-7 7 1 2-2 4-4 1 1-2 2-1 2-8 4-1q-1-3 2-2zm66 0v2h-2zm9 0 2 1q-3 1 2 3h1l-3 5q4 1 1 3 1 2-1 1l1-2-1-2-3-1 3-2zm135 0-1 2h-2zm-276 1 4 3q0 4 3 4 2-1 1 2l3 4 3-1q1 3-3 2l-4-2 1-2-5-5h-3v-2q-3 1-2-1zm10 1q2 1 1 5h-1zm168 0q2-1 1 2l-2 1-1-2zm65 0 1 2zm-174 1q3-1 2 2-3 1-2-2Zm36 0 5 1v3q-3-4-5-2zm160 0v3q-4-1-2 4h-2l-2 1 1-6q3 1 5-2Zm30 0 3 2-4 5-3-3zm-311 1 2 1-2 1zm164 0 2 1 2-1v1q-3-1-2 2zm20 0 1 1-3 2-1-2zm87 0q4-1 3 2-4 1-3-2Zm-170 1v2l-3 1 1-2z"/><path fill="#090909" stroke="#090909" d="m79 388 2 1 3-1v1l-3 1zm-20 1q4 2 4 8-3 1-2-2l-4-2zm13 0q3-1 2 3l1 1h-2q2-4-1-3zm26 0q3-1 1 5l1 1q-3-1-2 2l-3-2-1-2zm64 0 1 3-2-1zm61 0 2 5-3-1v-2zm5 0 3 2-2 6-2 1-1-1 3-5zm114 0 3 2q-2 4-3 1h-4zm-238 1 4 1-2 4zm18 0 2 1-1 2q-4 1-5-1l3-1 1 1zm23 0v4l1 1-4 3zm157 0-1 2zm-114 1v2h-2zm8 0 1 3-1-1h-2zm40 0 2 1v4l-2-3h-3zm76 0v2l-2 1zm-131 1 1 2zm28 0q2-1 1 2zm5 0q2-1 1 2l7 3-2 1-4-1zm-134 1 2 1-3 2-1-1zm228 0 2 6q-3 1-2-2zm6 0q3-1 2 2l-2 1zm-184 1 1 3q-3 1-1-3Zm6 1 1 1-2 1zm32 0 2 1h-2zm155 0 2 1h1l-2 1zm-231 1 1 3q-3 1-1-3Zm81 0 1 3h-3zm15 0q4-1 3 2-1 2-6 1v-1zm117 0 1 3h-2v-1zm-185 1-1 2zm83 0 6 1 3-1 4 2h-13zm-8 1 3 1h-3z"/><path fill="#010101" stroke="#010101" d="m361 11 3 2-1 2zm9 5v2l2 1h-2q-3-1 0-3Zm-10 6q2-1 1 2l-3 1zm19 9 3 1-2 1zm5 2 2 1q1 2-1 1zm-13 3q5-2 4 3l1 2h-1l-1-4-2 1zM382 36q3-1 2 3-3 1-2-3Zm-11 3 4 4-2-2zm11 11q4-1 2 3-4 1-5-1zm13 2 1 3-3 2 1 2-1 3q2 4-2 3l-3-3 1-2h-3l5-3-4-1 4-2q-1 3 2 2-2-2 2-4Zm-30 2q7-1 6 2-1 2-2 0l-4-1zm17 5 5 4-1 3h-2v3l-3-2q1-5-1-6zm-6 1v6l-1 3-3-1zm15 10q3-1 4 2l-1 5-2 2-4-2-2-4h-3zm-16 2 3 2q1 2-1 1l-2 1zm-10 9q4-1 2 4l-2 1h-3zm12 0 3 1 3-1q3 2 1 8l-1-1-4-2q1-3-2-2-3-1 0-3Zm17 1 2 2v2l2 1v9l-1 3 1 2-4 1 1 7-1-1h-7l2-3-1-3q1-3 5-2l1-7v-2q1-5-1-6h-2zm-20 8q2-1 1 3-1 3-3 0zm-12 2q3-1 2 4l-2-1zm18 2 1 1v7l2 5-4 3v-1q0-6-4-8l3-2q-1-4 2-5Zm-30 8q2-1 1 2zm-45 4h2q-1 3 2 2v1q-6 2-4-3Zm2 4v2l-1 3-1-2zm5 1q3 2 0 3zm60 2v3l-2 4-3-1 2-4q3 1 3-2Zm-62 1-1 2-3 2 1 1 2-1q-2 4-4 1l3-4zm86 0v4q-3 1-2-2zm-83 1q2-1 1 2h-3zm17 0 1 3-2 1zm-35 1 3 2v1l-1-2q-4-2-3 3h-1zm-92 1q2-1 1 2t-3 0zm119 0 1 2q-3 1-1-2Zm65 3q3-1 2 2-3 1-2-2Zm-57 2h2l6 2h-4l-2-1-3 2zm50 0 2 2-4 7 2 4-2-1-1-5-6-3q-1-4 3-3l4 1zm-54 2v3h-1zm35 0v2l-1 2q-3 1-2-1zm25 0 1 3-3-1zm-119 1 3 1h-3zm5 0v2l-2 1v-1q2 1 2-2Zm45 0-1 2zm5 0 2 1h-2z"/><path fill="#010101" stroke="#010101" d="M394 125q3-1 2 2l-7 4-1 8q3 1 2 6l-6-3-3 1 1 9q-2 3-4-2-4 1-3-1l4-4q-1-6 2-7 4 1 5-2v-2q-1-7 4-8zm-74 1 1 2zm15 0q4 0 4 3l-2-2q-3 1-2-1Zm-16 3v2h2v-2q3 2 0 3l-3-1zm-21 1 2 1-1 1h-3zm37 3v3h-1zm30 0 3 1-3 1zm-79 1 2 2-1-1zm53 1q4 2 1 4h-3l3-1zm-46 1-1 2zm59 2 4 3-4 2zm18 0h2v6q-1 2-4 1t-2-4zm-42 1-1 2zm-36 1 1 2zm53 0 2 1h-3l1 3-2-1zm-84 1-1 2v1l-1-1zm19 0-1 2v1l-1-1zm15 1v2l-2 1zm-31 1 1 2zm96 3-1 2zm30 0q2-1 1 2 4 3 4 10l-1 3-2 1-1-2q2-2 1-6l-4-6zm-129 1 1 2zm52 0v3q-3-1 0-3Zm23 0-2 3zm-88 2 1 4h-2zm11 0 1 2zm66 0 1 1-2 1zm-71 3-1 2v1l-1-1zm86 0-1 2zm27 0 2 1-3 2 3 6-1 2h2l-1 2h-3l1-2-2-1-2 1 1 2h-1v-2l-2 1 4-3-3-2v2l-2-2 3-1zm-18 1 2 2-1-1-3 2v1l-1-1zm-92 2 2 1h-2zm93 1-1 2zm-11 2 2 1-4 1v-1zm-90 1 3 4zm149 0v6h-1l-1-4zm-163 1-1 2zm124 0-1 2zm-102 3-1 2h-2zm-15 3v2l-2 1zm153 0q3-1 2 2 3 1 1 8-2 5-5 0 1-3-2-2 1 7-1 10l-3-1-1-9q2-3 7-2-1-5 2-6Zm-40 3 1 2h-3zm-106 1 2 2-1-1zm98 0 1 2zm4 0-1 2 1 3h-1l-1-3zm-94 2 1 2zm-9 1-1 2zm-19 1-1 2zm22 0 1 2q-3 1-1-2Zm125 0 2 1h-2zm-136 1-1 2zm5 0-1 2zm109 1 2 1 3-1 2 1-1 2-3-2-2 1zm-130 2 1 2zm126 1 2 1h-2zm15 0h2l2 2v1l-1-2q-3-1-2 2l-2-1zm-121 1-1 2zm115 0 1 3q-3 1-1-3Zm-9 1 3 2h1l-2 1zm14 2q3-1 1 4h-1zm4 0 2 3-3-1zm-154 1-4 5zm6 2v3h-1zm8 2 1 1-2 1zm-6 2 2 1h-2zm144 3 4 2h-3zm20 0-1 2-7 2 1-2zm-175 1-1 2zm164 0v2l-4 1 1-2zm13 0 1 3h-1zm-4 5-1 2zm4 1 2 4-3-2zm-3 1v3h-1zm3 6 2 2h-1zM72 230l2 1v2zm0 3 1 2q-3 1-1-2Zm16 6 2 2h-1zm11 2-1 2 2 6-2 4 2 4-1 3-1-2 1-3-2-4 2-4-2-4zm3 0q3 1 2 5h-1zm-13 2 1 2zm17 4 1 4-2-1zm-29 2 2 2v2l-1-3zm128 1-1 2zm3 0 1 2zm-194 2v3l3 1h-2q-3-1-1-4Zm195 2-1 2zM1 256l5 2H2zm51 3 4 2q1 3-1 2zm175 0 3 3 1 2-2-1q1-3-1-2zm-163 2v4h-1v-2l-4 2 1 3-2-1 2-3zm-63 1 1 2q-3 1-1-2Zm3 1 1 2zm29 0h2l2 4-4-1zm37 0 1 2zm37 0-2 3zM7 264v2l-1 2-1-1zm11 0 2 3zm11 0q3-1 2 2l2 2-4-1zm-28 1 2 2-1-1zm233 0 1 2zm-196 1q3-1 2 2-3 1-2-2Zm58 0-1 2zm-84 1v2q3-1 2 3l-3-1v-2zm219 0-1 2zm7 0-1 2zm-222 1 2 5h-1z"/><path fill="#010101" stroke="#010101" d="M35 268q2-1 1 2l-5 3 1 1-3-1v2q-3-1 0-3h2l-2-1q-1-3 2-2l2 1zm10 0 1 2zm-38 1v2H5zm14 0v2l-2 1zm20 0v3h-1zm7 0q2-1 1 2zm-45 2-1 2zm32 0q3-1 2 2l-1 2q2-1 1 2l-3 1zm59 0 1 2zm112 0v3h-1zM5 272l-2 3-1 5 3 2q-2-2-3 1H0v-7h1l1 2q-1-5 3-6Zm17 0 3 3-2-2zm38 0 3 1h-4l1 3-2-1zm38 0-1 2zm-54 1 2 4 2-1v1l-2 1zm41 0 1 4h-2l1-2zm17 0q2 1 1 6l-2 1 1-5zm-29 1 2 2-1-1-2 1zm26 0-2 3zm-68 3 2 2-1 3h-2l2-1q2-4-1-3zm12 0-1 2zm-33 1v4l-3 1v-1h2zm6 0 1 3-1 3-1-2 1-2zm9 1v3l3 3v1l-2-3-3-1zm45 0 4 1h1q-1 2-4 1zm-58 2 2 5-2-1zm46 1q2-1 1 3h-1v-2l-1 2-1-1zm-37 1 1 3h-1v-2l-2 1zm81 1 2 1h-2zm88 0v3h-1zm-158 1 2 2-4 1zm60 0-2 3-3-1h2zm5 0 1 2zm9 1 1 2zm145 0 1 1-2 1zM9 287l3 2-1-1q-3 1-2-1Zm6 0 4 1h1q-1 2-2 0l-4 1zm42 1v2l-2 1v-1q2 1 2-2Zm-50 1-1 2zm246 0v3h-1zm-223 1 3 1h-3zm58 0 2 1h-2zm-45 1q3-1 2 2zm66 0-4 5q-4 1-5-2l3 1h2zm-96 1 5 1h1v1l1 1-3 2 3 1 2-1-3 2h-2l-2 1-4-5 3-1zm23 1 1 5h1q1 2-2 1v3l2 1 1-2v2q-2 3-4-1zm30 0 1 1-3 2zm65 0 1 1-2 1zm-39 1-1 2h-2zm31 0 1 1-2 1zm-62 1-1 2 2 3-3-2zm67 0-1 2zM2 296l2 3zm123 0v3l-2 1v-1q2 1 2-3Zm124 0v2l-3 2 1-2q2 1 2-2Zm-199 1 2 1-3 1zm16 0 1 1-2 1zm14 0 1 2zm40 0 1 2zm45 0 3 1-2 1zm-92 1q3 2 0 3-5 1-6-1h6zm-19 1 1 2zm29 0q2 3 9 3h-6zm22 0 1 1-2 1zm30 0 5 6zM1 300l2 1H1zm17 0 2 1h-3v2l-1-1zm9 0 1 3h-1v-2l-1 3-3-1h2zm117 0 5 2h-1l-4-1zm-27 1-1 2zm-107 1 4 3h-2zm94 0 1 3-2 4-1-2 2-3zm17 0 4 2-1-1-2 1 2 2zm48 0v4h-1zm77 0 1 2zm-136 2 2 1h-2zm-68 1 2 1v2zm29 0q3-1 4 2l-1-1q-4 1-3-1Zm36 0 1 1-2 1zm-40 1 1 3-2-1zm95 0 3 1-1 2h-2q1 2-1 1l-2 1zm-146 1-1 2zm40 0v2l3 1h-3l-3-1zm85 0 2 3zm9 0v3l-2-1zm20 0 2 1h-2zm-123 1 3 1h1v1l2 1h-2l-4-2zm130 0 1 3h-1zm69 0-2 3zm-166 1v2h-4zm38 0v2l-2 1zm5 0 1 1-2 1zm29 0 1 2zm-56 2 4 2h-3zm58 1-1 2zm57 0 1 2zm-136 1 2 1-3 1zm59 0 2 1-2 1zm14 0-2 3-1-2q1 3 3-1Zm-24 1-3 4zm54 1v3l-2 1zm34 0-1 2zm-103 1 1 2zm98 1-1 2zm-77 2 3 1q2 4-2 3-5-2-1-4Zm42 0 1 2zm-21 1 2 4-3-2zm88 0 2 1q-2 3-2-1Zm-74 1-1 2zm-52 2q2-1 1 2h-3zm44 0 2 3zm6 2-1 2q1 2-2 1l1-2zm58 0 1 2zm-67 2v3h-1zm15 0q7-1 8 3l-2-2q-6-1-7 1zm-10 2-1 2zm57 0-1 2-2 1 1-2zm-82 1v3q-4 1-3-2zm20 1-2 3h-2zm50 1 3 1h-3zm-49 1 2 1h-3v5h-1l-2-2h1l1 1zm33 0 1 3-2-1zm21 0 2 1h1l-2 1zm-26 3 1 2z"/><path fill="#F7F7F7" stroke="#F7F7F7" d="M110 101h33v88l3 3 93-91h47l1 3-86 86v2l69 50q7 6 20 7l3 3v37l-1 1h-6l-12-3-16-7-76-56-6-4h-3l-30 31v39l-1 1h-31l-3-2V103zm281 228 2 1h-2zm0 4h4q-1 3 2 2h1v6l-5 13q-3 1-2-3l3-4-2-2-2 1-1-2q-1-4 2-3l3 2 1-2q-3-2-2-5-3 1-2-3Zm-6 11q3 1 2 5l-5-2q-1-3 2-2zm-5 6q3-1 1 3-4 2-3-1zm6 0h2l1 1-4 3-1-2zm-362 3v2l-7 3-1-2zm1 2q3-1 2 2l-3 3q2 1 0 2h-2v5l5-3v2l-2 3 3 1 2-4q4 2 1 4v2l-12-4 1-2-3-2q-1-3 2-2l3-2 1 1q-1-4 2-3zm187 3 2 7 4 2q-1 2 2 1v3h2l3 4 3-1 1 3-2 1q1-3-2-2h-2q-3 1-2-2l-5-7h-3q1-3-1-2l-2-2zm-199 1 3 1v2l-3-1v2zm27 0 1 1-2 1zm25 0q2 3 6 3-1 4 3 6l-2 2 2 4-2 1 8 6q1 2-2 1l-1-3h-4q1-3-1-2l-3 1 1 4-1-1h-2v-4l4-1-2-1q-1-3 2-2v-3l-3-1q1-6-1-7-3 1-2-1zm24 0q3-1 2 2-3 1-2-2Zm95 0 5 4q1 3-3 1 2-4-1-3zm7 0q3-1 2 3l-2 1-1-1zm4 1 3 2v1l-3-1zm-139 2 1 3-4 2z"/><path fill="#F7F7F7" stroke="#F7F7F7" d="m182 363-1 2q-1 3 2 2l2-1 2 5 2-1q1 3-1 2 1 2-2 4-2 5 2 4 2-1 1-6l3-1-3-5 2-3q1 3 3 2l-1 4 3-2 2-5 2 1-1 2 6 3h1l2 2q2-1 1 2l8 11-4-1q1-4-2-5l-3-1q2-6-2-5l-4 1-3-6-3 1q1 5-2 7l-2-1q-3 2 0 3l2 2q1 2-2 1l-3 1v3q3-1 2 2l-1 3 4 1 2 4-1 2-2 1-2-3q-3 1-2-3l-5-6v-8l-4 3 1 1-1 2 3 1 1 3v1l2 2-1 2h2l-1 4-2 1h-10l-1-3h-2q-3 1-2-2l-3-2 1 3q1 4-2 4h-7l-1-3h-3l-1 3h-9l3-2-2-3 1-3-1-4-5 1-2 5h2l3-2 1 2q-3-1-2 3h-3v2l2 1h-5v-1q3 1 1-3l-4 3v2h-12q2-4-1-3-1 3-6 2l1-2h1l-2-4 3-2 3-4 3 1h1v2q-3-1-2 2l-1-1-4 2 2 3 3-2 2 1q-1 3 2 2l-2-5 3-4 2 2 2-3q1-4 6-3v1l-2 1q1 2 5 1l1-6 6-1v-2q3 1 2-1l6-3q5 3 0 5-5 0-7 4 1 2-1 1l-4-2 1 4 4 1 3-4 2-1 2 1 3-5q3 1 2-1-3-2-2-6l-4 1 4-5 3 4 7-2v4l-4-1q-1 4 2 3l1 3v1h4l-1-1v-9l4-3 2 2h-2l1 5h3q-1 3 2 2l2 1q3 0 2-4l-1-3-2 1-1-3q-4 1-3-1l3-1zm-10 7 2 11-1-1-2 1 1 2 1 2 4-3q2 1 1-3h2v-2l-2 1-2-1zm-9 8q-7 3-1 6l2-1-1-1 1-2q1-3-1-2Zm1 2 2 3h2zm-9 3-2 2 2 2q4 0 4-2l-1-1zm10 1-2 3q1 2 3 0l3 2 1-4zm-15 2v2l-1 2h2v-4zm25 0q1 3-1 2-3 1-1 3l-2 1 4 2q-1-4 2-5l2 1 1-3zm-28 1q-1 3 2 2 1-3-2-2Zm-14 1-2 3 5-2zm26 0 2 5q4 2 3-2t-5-3Zm-3 1-3 4 1 1 3-1zm23 2v2q2 4 4 1zm-49 2-2 4 3 1 1-4zm28 0 3 3q2 1 1-2zm18 1 2 3q3 1 2-1zm32-30v2q-3-1-2 2l-2-1q-1-3 3-2zm-147 2-1 2 1 3 4-2v2l-6 1-1-3zm-9 1v3q-3-1-2 2l-2 1v-1q-2-5 3-4zm-11 2-1 2v2l-4-1q1 3-1 2l-2 1q-1-4 2-5l3 1zm45 0q3-1 2 2-3-1-2 3h-1l-1-3zm49 0 4 3-1-1q-4-1-3 2h-1l1-2z"/><path fill="#F7F7F7" stroke="#F7F7F7" d="M145 370q3-1 2 4l-5 4-3-1-1 3q-6 0-7 3l3-4 1-2 2 1 2-3 2 1-1-3 2 1q-1 3 2 2zm-122 1 5 3 2 4 1 1-2 2-4-3q1-4-1-5-3 1-1-2Zm32 0 2 1-2 4h-3l1-3q3 1 2-2Zm45 0q2-1 1 3-1 3-3 0zm6 0 1 3-2-1zm-64 1 2 2v1l3-1v3q-3-1-2 2l7 8v3h-1l-2-4q-4-1-2 5l2 2-4-1 1-6q-1-3-2-1l-2 1 1-2 1-5zm36 0h2l3 3v1q-2-3-6-2zm120 2v2l-2 1zm-107 1h1v4h-3q3-2 2-4Zm23 0 2 1q-2 3-2-1Zm5 0q3-1 2 2l4 2q2-4 4-2l1-2 3 2q-4 4-12 5 2-4-1-3l-2-1zm192 0q3-1 2 2-3 1-2-2Zm-111 2 3 1 1 2 2-1v6l-3-1q2-2 0-3-3 1-2-1h-1q-3-1-2 2 4 1 3 6-4-1-2 4l3 1-3 1q-1 3 4 2 2-1 1-4l-1-2 3-2q-1 2 2 1l1 1 3-3 3-1 1 4 4-1q-1 3 2 2v3h2l2 1-2 3h-2l1-3-3-2-2 1-4-4h-2v2l1 3-5 2-4-1q-2 3-6 2l-1-4h2l-3-2 2-4-1-1q-2 2-3 0l2-4-2 1-1-2q4 2 3-2zm9 14q-4 2 1 4l1-2z"/><path fill="#F7F7F7" stroke="#F7F7F7" d="m110 378 5 1q1 3-2 2l-3-1zm108 0 2 2q-1 3-3 0zm-121 1v3l-2-1zm129 0-1 2zm-175 1 4 1 1 4h-2q3-2-1-4-3 1-2-1Zm54 0q2 1 1 5-3 1-2-1l-1-2zm117 2 1 4 2 1-4 1zm-124 1q2-1 1 2l1 1-2-1-2 1zm30 0 1 2-3 1v-1q2 1 2-2Zm-94 1 4 1-2 1zM110 384v2q-3-1-2 2l-5 2q1 3-1 2l-2 1 2-4-1-2h2l2-1q1 3 3-1zm6 0 1 1-2 3q-4-2 1-4Zm111 0 3 2 2 3 1-2v3l-4-2-2 3h-3l5-4q1-3-2-2zm-152 1q2-1 1 2l1 3 5 1 4-2 2 2-3 2q1 2-2 1 1-3-3-2l-4 3q1 2 5 1l2-1v3h-6l-3-4 2-1-2-5z"/><path fill="#F7F7F7" stroke="#F7F7F7" d="M109 387q5-2 3 4-3 1-2 5l-5 2-2-1-3 1-1-2 3-2 2 1 2 2q3-3 3-10Zm-48 2 5 4-1 1zm31 1v3h2q-1 4 2 3l1 2-7-3q-1-4 2-5Zm-41 1 3 2q1 3-1 2l-3-1zm181 1 1 2q-3-1-2 3l-2 1z"/><path fill="#F7F7F7" stroke="#F7F7F7" d="M89 396q2-1 1 2h-4zm81 0v2h-3zm162 0 1 3h-1q-3-1 0-3Z"/><path fill="#1D1D1D" stroke="#1D1D1D" d="M373 44v3h-1zm17 4v2h-2zm7 16-1 2zm-24 8 1 3h-1q-3-1 0-3Zm14 6v2h-2zm2 3q2-1 1 2zm7 2 2 1-2 1zm-17 6 1 2h-3zm-11 2q3-1 2 2-3 1-2-2Zm18 2q4-1 3 2h2l-1 3-1-3q-4 1-3-2Zm-14 10 4 2h-2zm0 4 3 2h-2zm9 22 2 1-2 1zm-6 2v3h-1zm16 2 1 3-2-1zm-189 3-47 48zm161 11 3 1h-3zm-60 1 2 2q1 3-2 2zm61 1 1 1-6 3-1-2 3 1zm-4 6q3-1 2 2-3 1-2-2Zm-63 1 1 2q-3 1-1-2Zm37 0q2-1 1 3h-1zm-102 3-29 30zm82 0-1 2zm7 0 2 1-1 2zm7 2 1 1-2 1zm55 2-1 2v2l-1-2zm-89 1v3l-2-1zm68 2 1 1h-2v2l-1-1zm20 3-1 2zm-19 8 1 2zm-35 2v3l-2 1zm20 6-1 2v1l-1-1zm-116 1q5-1 3 3l-3-1zm118 1v2l-2 1v-1q2 1 2-2Zm-107 2 3 2h-3zm93 1q3-1 2 2-3 1-2-2Zm19 0 1 3-2 1v-2zm-118 1v3h-1zm124 0q3 2 0 3zm36 8 1 2zm-34 5 1 1h-2l1 3h-2zm-142 1 1 2zm155 0 2 2h-1zm2 3 3 3-2 1q2-2 0-3zm-5 5 2 2h-1zm-23 4v2l-3 1 1-2 1 1zm18 0v2l2 1h-1zm-129 1 1 2zm104 0q3-1 2 2zm35 0 1 2zm13 1 2 1h-2zm-17 3 2 1-2 1zm-28 2 3 1h1q-1 2-2 0-3 1-2-1Zm10 0 1 3h-1zm31 0v2l-2 1zm-203 2 1 2zm66 0 1 2zm131 0-1 2zm12 1-1 2zm-40 1 4 3h-2v-2l-1 2zm9 0 1 2zm-14 1v4l-3-1 2-1zm32 1-1 2zm-25 3 2 1-3 1zm32 1 1 2zm10 1 1 2zm-48 1 2 1v1l2-1v2l4 2-2 1 1-2q-7 0-7-4Zm8 0 2 1v2zm12 0 1 2q-3 1-1-2Zm3 1v2l-2 1zm10 1v3h-1zm-24 4 1 3q-3 1-1-3Zm26 0 1 4h-2zm-94 1 3 2-1 3-3-1zm75 0-2 3v1l-1-3zm3 0 2 1h-2zm14 0-1 2h-2zm-37 2q4-1 3 2-4 1-3-2Zm27 0v2l-2 1zm17 1 2 1v2zm-77 2 2 3-4-1zm51 0-1 2zm12 0 3 3v1l-1-2-2 1v-2l-2 1zm-7 1 2 2h-3zm14 0 1 3h-1zm-165 2 2 2-1 4-3-1q2 5-2 4v-5l2-1v-1zm133 0 3 4q-2-3-4-1zm22 0 2 1 1 7h-1l-2-7-2 1zm-66 1 3 4-1 1q-2 3-6 2-3-1-2-4l4 2 1-1zm56 0v2l-1 2-4 3v1l-1-2-2 1 7-5zm-49 2 4 3v1l-1-2-2 3h-2l2-1zm23 2 4 1h-3l1 4-2-1zm29 0q2-1 1 2zm32 0 1 3-2-1zm-14 1v4q-1 3-3 0h2l-1-2zm-174 1 3 2v3q-4-1-3-5Zm88 0 3 2v2l-4-1-1 8-1-3 1-4q-3 1-2-2 5 2 4-2Zm22 0 1 2zm7 0h3l4 3q1-3 3 2l-1 2q-5 1-5-2l-2 3 2 2h-3zm3 2 1 2q1-3-1-2Zm4 2q-1 3 2 2 1-3-2-2Zm7-4h4v2q-1 2-2 0l-2 1v-1zm-29 1 3 7h-4l1 4h-1q-3-1-2-6h2l-2-1zm4 1 1 3-2-1zm60 0 1 2h-3zm-157 1q3-1 2 4h-1zm103 0v3h-3l2-1zm43 0q2-1 1 2l-2 1zm-19 1 2 1q-1 3 2 2l2-1 2 1-1 2-6 1 1-2-1-2-1 2-4 2 1 2-1 2 2 1h-1l-4-2-2 1q-2-2-3 1l1 8h-2l1-2-6-3 3-2q-1 3 2 2l-2-3q2 1 5-3l2 1 3-2zm9 0 4 1-4 1zm38 0-1 2v1l-1-1zm-167 1 4 2v2l-4-2zm77 0v3l4-1 1 3h-1q1-3-2-2l1 4q-3 3-8 4l-3-1 6-4-1 2q-1 2 2 1l2-3-3-1-1-3h2zm73 0 1 3h-2zm13 0-1 2v1l-1-1zm-71 1 1 2zm-108 1 1 3-2-1zm157 0h3l6 5h-3l-3-2-1 2-1-2q-3-1-2 2l1 1-2-2zm-10 1 4 5h-3q2-4-1-3l-2 1zm-163 1 1 2q-3 1-1-2Zm129 0 1 2zm62 0-2 3zm5 0h2l1 1-2 1zm-186 1q2-1 1 2l-3 1z"/><path fill="#1D1D1D" stroke="#1D1D1D" d="m350 268 3 2 1 5-3 4v-1l-1-2 1-6-3 1zm44 0 2 3zm-78 2q4-1 5 2-1 2 2 1l2 1h1l-1 2-4-2v5l-1-4h-2l2-3q-4-1-3 2h-1z"/><path fill="#1D1D1D" stroke="#1D1D1D" d="M324 270v2h-2zm-117 1q3-1 2 3-3 1-2-3Zm4 0v3h-1zm117 0 1 2zm48 0 3 2h-3zm-139 2q3-1 2 3-3 1-2-3Zm68 0 3 2v1l-1-2q-3 1-2-1Zm57 1 3 1h-3zm-45 1 1 4-2-1zm43 0 2 3h1q-2 3-4-1zm22 0-1 2q-1 2 3 1v1l-3 1v-2q-3 1-2-2zm-85 1q4 0 4 3v1l-2-3q-3 1-2-1Zm9 0-1 2zm33 0 3 1h-3zm36 0-2 3 2 3-1 2-1-1q3-2-1-3zm-169 1 5 2h-1l-2-1 1 3q1 2-2 1zm89 0v3q-3 1-2-1zm13 0 2 1h-2zm-53 1q3 2 0 3zm87 0-1 2zm3 1 2 4-1 2q-5 2-3-4zm0 2-1 3h1zm11-2 4 5-6-3zm9 0 6 3-2 1-4-2zm-28 1 1 3-1-1-5 2 1-2zm46 0-1 2zm-68 1 3 3-1 2-2 1-1-2h2q2 1 1-1l-2-2-2 1zm9 0 1 5h-1z"/><path fill="#1D1D1D" stroke="#1D1D1D" d="m330 281-3 4 1 2h-2q0 5-3 7-3 1-2-1-2-2 1-3 2 1 1-1l-4-2 3-1 3 2zm23 0 1 3-2-1zm-52 1 2 2v3l-1-4zm-6 1v2h-2zm11 0 4 3h-3v2zm-40 1 5 2q-2 5 2 4-1-4 2-3l-1 2q-1 3 3 1l1-2v2q-2 1 1 2h1l-2 1q-2-2-7-1l-2 1 1-2h-3l3-2-5-3zm90 0 2 2-2 1zm13 0v3h-1zm18 0v3h-1zm10 0-2 3zm-57 1v2l-3 4h-2l2-1zm11 0 3 3v1z"/><path fill="#1D1D1D" stroke="#1D1D1D" d="m373 285 3 2h-2l1 4 1-3 2 1-3 4q1 2 6 1l1 5-4 5q-6 2-4-3l3 1 3-7h-3l-6-4-2 2 2 2q-5-2-1-4-1-5 3-3zm5 0q0 3 5 2h1q-1 2-4 1zm-170 1 2 2-4 1zm184 0v3h-1zm-82 1v3l-1 1-1-2zm22 0v2l-3 1 2 3 2 1h-2q-2-3-4-1v-3h2q-1-3 2-2zm18 0v2l-2 4v-1q-1-4 2-5Zm11 0q3-1 4 2l-2 1v-1h1l-3-1-2 3 3 2h-1l-3-3zm-59 1 1 2zm10 0q2 1 1 5l-2 1v-1q3 1 1-3zm2 0q5-2 4 2l-2-1-2 1zm80 0 2 1-2 4 1 1-2-3zm-6 1q2-1 1 2l-2 1zm-373 1q3-1 2 3l-2-1zm267 0 3 1-2 6-2-3zm61 0 1 2q-2-2-3 1l-3-1h2zm10 0 1 2h1q-1 2-2 0l-2 1 1 1h-3zm-157 1q3-1 2 2-3 1-2-2Zm101 0-1 2q-1 2 2 1v5h-1l-2-6zm21 0-1 2zm63 0 2 1-2 1zM6 293v3H5zm26 0q3-1 2 2-3 1-2-2Zm240 0-1 2 2 4q-1 3-3 0h2l-1-3-2 1zm16 0 1 2zm55 0-1 2h-2zm-80 1 1 1-1 4 3 1 2-1q1 3-2 5v2l-1 2-1-2-7 6q-1 2 2 1l2-1-2 3-4 1 1-6 3-1q-1-3 3-2l1-2-1-3h1l-3-2q-3 1-2-2 3 1 2-1zm17 0-2 3zm24 0 2 3zm13 0 1 2-1-1-3 2zm46 0 2 1-3 1zm-112 1h4v2l-1 2 1 5q-3 1-2-3zm40 0q3-1 2 2l-1-1zm-2 1v4h-1zm14 0v2l-3 2q2 1 0 2l-1-2 3-2zm8 0 2 2h-1zm22 0-1 2z"/><path fill="#1D1D1D" stroke="#1D1D1D" d="M365 296h2l1 1-3 2-4-1q2 1 4-2ZM9 297q4 0 4 3 1 3-1 2l-2-3 2 2-1-3-4 1v-1zm19 0q3-1 2 2-3 1-2-2Zm293 0v5l-5-1-2 1 1-3h2l3 1zm24 0 1 3h-3zm-58 1-1 2zm8 0q4 2 1 4l-1 2-3-1 3-2zm-47 2q3-1 1 3l-3-1zm34 0q3-1 2 4l2 5-3 1 4 4q2 1 1-2v-2q3-1 4 2l1 3-3-1-3 2q-1 2 2 1v1l-3 2 1 3-2-2q-3 1-2-1l3-6-4-1-1 2 1 1h-4q-1-4 3-3v-2l1 1v-4q4 2 3-1l-1-3-5 6q-3 1-2-2l3-1q3-2 2-7Zm-149 1 1 2q-3 1-1-2Zm145 0-1 2zm34 0 1 3h-2v1l-1-1zm43 0 2 1q1-2 2 1h-2v1h-3zm17 0 1 3h-2zm16 0 4 1-2 5-3-1 2-3h-4zm-98 1-2 3zm17 0 1 2zm37 0 1 2 2-1 1 4h-1l-1-3q-2 2-3 0zm38 0q2-1 1 2zm-330 1 1 2zm217 0q4-1 3 2l-2 1zm93 0 3 1-2 1zm-45 1 1 1h-2v3l-1-2zm51 0-1 2zM2 305l1 3 2 1H4l-3-1zm19 0 2 1q-2 3-2-1Zm288 0-2 3v3l-2-3zm29 0 1 3-2-1zM9 306l3 2-1 2zm325 0 2 5-4 2-3-4-6-1 4-1 5 4zm35 0 2 2v1l-1-2-2 1zm-338 1 2 2-1-1z"/><path fill="#1D1D1D" stroke="#1D1D1D" d="m291 307 2 2-1-1-2 1zm-40 1v4l-3 1 1 2h-1l-1-3-3 2zm18 0 3 1-1 2 6 3v3l-1-3-7-4zm77 0v2l-3 2zm4 0 2 2h-1zm-52 1 2 1v2zm-282 1 3 1h-3zm376 0 1 2zM6 311v3q-3-1 0-3Zm34 0 6 3q-1 2-2 0-5-1-4-3Zm273 0 1 2zm-259 1v3q-3 1-2-1zm6 0 3 2v1l-1-2q-2 3-2-1Zm206 0 1 4-2-1zm71 0q2-1 1 2-3-1-4 2h-6v-1q7 2 9-3Zm36 0q4-2 3 3l-6 4-1-1zm-355 1 2 1-4 2-1-2q1 3 3-1Zm14 0v2l-2 1zm264 0v2l-2 1zm-208 1v3q-1 3-3 0h2zm17 0q3-1 2 2-3 1-2-2Zm38 0q3 2 0 3zm160 0q3-1 2 3-3 1-2-3Zm15 0-1 2zm71 0 2 1-3 2v-1q2 1 1-2Zm-341 1v2q-1 3-3 0h2zm216 0v2l-1 2-2 1 2 2-4-2-1-3 3 1 2-1zm6 0 1 2zm125 0v3l-2-1zm-384 1 3 1-1 3v-2q-4-1-3 2l1 1-2-3zm7 0 3 1 1 1h-3zm107 0q2 1 1 6h-1v-5l-1 2-1-1zm119 0 2 2v5l-3-1 1-4zM2 317l4 3v2l-1-3-4 1 1 3-2-1 2-3zm68 0 1 5q-4 1-1-5Zm10 0 2 1-1 3q-3-1-1-4Zm258 0 1 2zm20 0 1 3-2-1zm-307 1 1 4-4-1q-1-3 2-2zm87 0 1 3-2 1-1-2zm129 0-1 2v1l-1-1z"/><path fill="#1D1D1D" stroke="#1D1D1D" d="M273 318q3-1 2 3h-1q1-3-1-2zm36 0 2 1 1 3zm66 0q2-1 1 2h3v3h-3l-4-2q-1-3 2-2zm-78 1-1 2 2 3 1 1-1 5h-4v2q-1 2-2 0h-7l8-1 4-3-1-4-3 1v-1zm3 0v2l-2 1zm14 0q3-1 2 2l-1-1zm15 0-1 2zm21 0-1 2q1 2-2 1v-1zm39 0 1 2h-3zm-351 1q3-1 2 2-3 1-2-2Zm45 0q3-1 2 3l-2-1zm25 0q3-1 1 3l-3-1zm15 0 1 2zm147 0q2-1 1 2h-3zm84 0v3h-1zm39 0 1 1h-2l1 3-2-1zm5 0v5h-1zm-376 1q4-1 5 2l2-1 3 3q-1 4 2 5l-3-2q1-3-2-2l2 6h-3q1-4-2-3l-1 3-6-2v-2h-2q1-3-1-2l2-3zm0 1-3 4 1 2q-1 2 3 1 2-1 1-5zm5 1v3l2-1q1-3-2-2Zm-2 5-2 2q-1 2 2 1zm21-7 1 3 1 1-1 1q-3-5-5-1v2l-2-3zm51 0 1 2zm159 0 2 1h-2zm-154 1q2-1 1 3l-1-1h-2zm163 0q1 3 3 2-1 2 2 1v2l5 2h-1l-3-1-4 2-2 6q1 2 3 0l1 1-2 1 3 2h-1q-2-3-5-2v-7l-2 1v-1l2-1 2 1 3-2-1-4q-2 2-3 0zm9 0 2 1q-2 3-2-1Zm78 0-3 4h-2zm12 0q3-1 2 2l-1-1zm-50 1v3q-3-1 0-3Zm5 0 1 3-2-1zm-264 1 2 2q-1 3-3 0zm172 0 4 2h-2q2 5-2 4zm26 0v3l3 2-1 2-5-1 2-1 3 1q1-3-1-2-3-1-1-4Zm50 0v2l-2 1v-1q2 1 2-2Zm31 0-2 3zm36 0 1 3h-2v-1zm14 0-1 2zm-96 1 2 1-4 2zm29 0 1 3-2-1zm12 0-2 3zm-187 1q3-1 2 3h-2q-1 2 2 1v4l-1 3-3-1 2-4-1-3zm94 0v3q-3-1 0-3Zm3 0 1 2zm6 0v2l5-2v2q-2-3-4 2v1l-1-2-2 1 1-2zm131 0v3q-3-1 0-3Zm-309 1 3 1 3-1 1 2-4-1v4l-2-3h-3zm45 0v4l-2-1zm18 0 2 1-2 1zm191 0-1 2zm43 0 3 1-2 3-4-1zM4 328v6H3l-1-3zm280 0-1 2zm46 0 1 2h-3zm3 0 2 2 2 3-3-2q1-3-1-2zm-217 1q7-1 9 4v1l3-1 3 2v2l-3-1q1-3-2-2l-1 5 3 1 1-2v4l-5-3 1-3-3-5-4-1-3 1 2 3 3-2-1 2q-1 2 2 1l-1 2-3-1-1 2-3-1q-1-5 3-8Zm231 0-1 2zm13 0-1 2zm18 0 1 1-3 2v1l-2-2q2 1 4-2Zm20 0v4l-4-1 3-1zm-361 1v2h-2zm13 0 3 1 2-1q1 4-1 5l-6-2zm0 1 1 2h1zm250-1 1 2h1l-1 2zm9 0 2 1h-2zm74 0-1 2zm7 0 2 2-2 3-2-3zm-349 1q4-1 3 2l-3 1zm19 0v3h-1zm39 0 2 1-1 1 3 3q-1 3 2 2v1l-2 1 2 1-4 1 2-3-1-4-3 4-1-1 2-4h-2zm6 0 1 1h-2l1 2 2-1v1l-2 1-2-2zm136 0-1 4h-2l-3 1-4-1 2-1v-2q1 3 5 2-1-3 2-2zm16 0-1 2z"/><path fill="#1D1D1D" stroke="#1D1D1D" d="m270 331 4 3h-6zm10 0 2 1h1l-3 2 1-2-3 2zm50 0q3 2-2 5l1 3v2l-3-1q4-2 1-3l3-4zm25 0 1 4-3-1h2zm17 0 1 3h-2l2 2 3 1 5-3v1q-3-1-2 2v1q2-1 1 2l-3 5-4-2h3q-2-2 1-3v-3l-4 2-1-3q-3 1-2-2v-2l1 1zm-326 1v3h-1zm136 0q4-1 3 2h-3zm125 0q3-1 4 2l-1-1q-4 1-3-1Zm38 0q2-1 1 2-4-1-5 3zm23 0v4h-1zm-333 1 1 2zm47 0 3 2v1l-1-2-2 1zm278 0 1 1-2 1zm-105 1 2 1-1 5 4 1 1-4 1 3q-1 3-6 2l-2-4zm-241 1 3 2-1 3-4-2zm54 0 3 1 1 1-3 2q1-3-2-2zm30 0-1 2zm8 0 2 1-2 1zm100 0 1 2q-3 1-1-2Zm8 0 3 1v2zm57 0v2l3 1h-4zm24 0v2q-3 1-1 3l-3-3h2q2 1 2-2Zm9 0 1 2-2 1 2 3h-1l-2-4zm5 0q4 2 1 4zm38 0v2l5 1h1l1 5h-2l-2-1q2-5-2-4zm-313 1v3l-4 1q-1-3 2-2zm121 0 3 2h-3zm39 0 1 2q-3 1-1-2Zm16 0 2 2-1-1zm113 0 3 2h-3zm63 0-1 2q1 2-1 1zm-349 1v2l-2 4q2 1 0 2l-1-2zm36 0 2 1-2 1zm37 0-1 2zm38 0q3-1 2 2-3 1-2-2Zm40 0 2 2h-1zm92 0v4l-1 3-1-1 1-2v-2zm85 0-1 2zm-326 1 2 2 1 2-2-1q1-3-1-2zm7 0q1 4 3 1l2 2-4 1zm6 0 2 2h-1zm33 0-1 4q-3 1-2-3zm5 0 1 3h-2zm46 0 3 2-1-1q-3 1-2-1Zm5 0 1 2zm62 0v3l-3-1-2 1zm95 0 2 3h1q-2 3-4-1zm40 0v3h-1zm-273 1-1 2zm51 0 2 3zm167 0 2 4h-2zm33 0 3 3-1 3 1 1q-3-1-1-2 1-4-1-3zM9 340l-1 2zm48 0 3 2q-1 3-3 0zm124 0 2 2-1 2zm61 0v3l-2 1zm71 0q2-1 1 2zm28 0 2 2-1-1zm5 0 1 3q-1 3-3 0zm-301 1 1 2h-3zm62 0 1 1-2 1 1 1q-3-1 0-3Zm157 0v2l-2 1zm31 0 1 2v2q-3-1-1-4Zm76 0-1 2zm13 0q3 2 0 3zm-268 1 2 3zm7 0v3q-3-1 0-3Zm35 0 3 2-1-1q-3 1-2-1Zm94 0q2 1 0 3v1l-1-1zm23 0 2 1v2zm57 0 1 2z"/><path fill="#1D1D1D" stroke="#1D1D1D" d="m387 342 1 4-2-1zm-361 1 3 2-3 4v-1l1-3-2-1v2l-1-1zm42 0v3h-2zm18 0 3 1-2 1 2 2zm41 0 1 2zm17 0q2-1 1 3l-2 1 1-2h-2zm20 0 1 1-2 1zm62 0 1 2zm99 0 1 2zm-252 1 2 4h-1zm23 0 1 2zm73 0 2 2v1zm8 0q3 2 0 3zm19 0 2 1-2 1zm10 0q3-1 2 2l-2 1v-1zm9 0-1 2-2 1 1-2zm24 0-1 2zm27 0v3l1 1-2 1v-2q-4 1-3-1 2 1 4-2Zm63 0 1 2zm-310 1 1 2zm44 0 2 2h-1zm19 0 1 3h-1zm28 0 1 1-2 1zm16 0 2 4v2l-2 1-1-1v-2zm65 0 1 2zm77 0 1 2zm38 0 2 1-2 1zm6 0 2 2-1-1zm58 0-1 2zM8 346l-1 2zm106 0v4q-3-1-1-2zm48 0 2 4h-1zm3 0 1 2zm140 0-1 2q-3-1-2 2l-1-1-2-1-2 1q1-3 3-1zm62 0v3h-1zm-159 1 2 3q-3 1-2-1h-2zm81 0 4 1h1l-1 2-1-2q-4 1-3-1Zm40 0-3 4-1-2 1 1zm22 0 1 2zm28 0 5 1q2 5-2 4 2-4-2-3l-4 1q-1-3 2-2zm10 0q3-1 2 2l-1-1zm-301 1 1 1h-2l1 2h1q-1 3-3 0zm189 0 3 1h1l-4 2zm41 0 4 1h1v2l-3-2-2 1zm42 0 2 2h-3zm-87 1 2 1q-2 3-2-1Zm40 0 2 1h-2zm31 0q4-1 2 4l1 1-2-4zm11 0v2h-2zm-261 1v3q-3-1 0-3Zm12 0 1 2zm285 0-1 2q1 3-2 2zm-338 1 2 2h-1zm13 0v3q-3-1 0-3Zm96 0 1 1-3 2zm32 0q3 2 0 3zm89 0 2 2h-1zm75 0 4 3-2 3h-1zm-316 1 2 4h-1zm48 0 1 4-2-1zm29 0 1 2zm34 0 1 3-2 1 1-2zm17 0-1 2h-2zm28 0 2 1-2 2q4 1 1 3v-1l-2-4 1 1zm27 0 2 1q-2 3-2-1Zm45 0 1 1-2 1 2 1-2 1-1-2zm6 0v4h-1zm48 0q2-1 1 2zm18 0-1 2h-2zm-315 1v2h-2zm34 0-1 2zm117 0 1 2zm143 0 1 2zm45 0-2 3-1-2zm3 0 3 1 2-1-1 5 6 2 1-2q1 3 3-1-1-3 3-2 2 1 0 3l-4 6v2l2 1h-1l-3-1-4 1v3l-2-3 3-1 1-3-9-7zm-352 1 2 1h-2zm12 0 2 2v1l-1-2zm9 0-1 2-2 1 1-2zm15 0 3 2h-2zm44 0-1 2zm21 0 1 2zm16 0 1 2zm22 0 2 1-2 1zm6 0 1 1-2 1zm167 0 3 1-3 4q-3 1-2-3 3 1 2-2Zm-278 1v2h-2zm31 0v2h-3zm39 0 3 1h-3zm45 0-1 2h-2zm41 0-1 2zm108 0 2 2h-1zm34 0-1 2zm-327 1 1 2h-3zm7 0-1 2zm30 0 2 2h-1zm18 0 1 2zm11 0-2 3 2 1h1l-1 1q-2-3-4-1zm90 0h2q3-1 2 2l-2 1 1-2-2 1zm38 0-1 2zm14 0-1 2zm36 0-1 2v1l-1-1zm2 0 1 2-2 1v-1zm123 0-1 2q1 2-1 1zm-338 1 2 1q-2 3-2-1Zm53 0 1 3-2-1zm31 0-1 4 1 2-1-1-2 1-2-3 3 1zm16 0-1 2zm3 0-1 2zm34 0 1 2zm66 0 2 3zm17 0 2 1q-2 1 1 2 2-1 1 3l-2-1v-2l-3 1zm65 0v2q-3-1-2 2h-1zm15 0-2 3-2 1 1-2zm-316 1 2 1-2 1zm80 0 1 2-3 1v-1q2 1 2-2Zm9 0 1 2zm3 0 1 2zm64 0 2 2-1-1zm24 0v4h-1zm147 0-1 2zm-322 1-1 2zm19 0 2 1h-2zm79 0 2 3q-2-3-4-1zm19 0q2-1 1 2zm72 0v2l-2 1zm23 0-1 2zm26 0 1 3h-1v-2l-2 1zm76 0v4l-3 2h5v2h-2l-3 1-1-2q-4 1-3-2 4 1 5-1zm-282 1-1 2zm236 0 5 2-5 1zm14 0-2 3z"/><path fill="#1D1D1D" stroke="#1D1D1D" d="M359 360q3-1 2 2l-4 1zm-295 1-1 2zm28 0 1 2zm8 0 2 1q1 2-1 1zm30 0-1 2zm78 0 1 2q-3 1-1-2Zm86 0q2-1 1 2l1 1-3-1-2 1zm11 0v3h-1zm60 0 2 4-1 2q3 1 2-3h3l1 4-4 2q1-3-3-2v-2q2-2 0-3-2 4-4 1zm-335 1-1 2zm36 0 1 2zm50 0-1 2 2 2 1 1h-1l-3-3zm46 0-1 2zm96 0 1 3h-1zm16 0v3h-1zm14 0q3 2 0 3zm54 0v3h-1zm-309 1 2 2-1-1zm47 0 1 3h-1zm235 0v3l1 2h-1l-4-2zm70 0 2 1q-2 3-2-1Zm-286 1 1 2zm73 0-1 2zm154 0 3 1h1l-1 2zm-296 1-1 2zm13 0-4 5zm20 0 2 2q-1 2 2 1l2 3q-1-3-5-2l-2 1 2-4zm70 0-1 2zm23 0v2l-3 2zm8 0v2l-2 1zm21 0 1 2zm16 0 2 3 2 1h-2q-4-1-2-4Zm30 0 2 1h1l-2 1zm32 0q2-1 1 2h-3zm71 0 2 2h-2l-1 3-1-1q3-2 2-4Zm-278 1 2 1-2 1zm36 0 1 3 3 1h-2zm127 0 1 2zm88 0 2 1-3 1zm13 0 3 3v1l-1-2q-4 1-2-2Zm21 0 4 2 3-1 1 3-3 1v-3l-3 2v-1h1q-4-1-3-3Zm20 0v2l-2 1zm-326 1v3h-1zm20 0-1 2zm82 0q3 2 0 3zm71 0 3 2 2-1-2 3 1 1-5-2zm35 0 1 3-2-1zm4 0v2h-2zm-204 1 2 1-2 1zm84 0-1 2zm184 0v2h4v2l-4 1-3 5v-1q-1-4 2-3l-2-2 2-2zm-291 1 1 2zm61 0-1 2v1l-1-2zm20 0 1 2zm32 0-1 2zm98 0q2-1 1 2zm94 0v2l-3 2z"/><path fill="#1D1D1D" stroke="#1D1D1D" d="m355 369 6 3 4-3 1 3q-2 1 1 3v1l-6-3-3 1q1-3-1-2-2-3-4-1zm-309 1q2-1 1 2zm82 0 2 1h-2zm16 0 1 2zm137 0v2l-3 2zm-193 1 2 2v1l-1-2-2 1zm69 0q2-1 1 2zm83 0-1 2zm-202 1v2l-2 1zm26 0 2 1-1 2zm13 0v2l4 2-1-1-4-1-2 1zm6 0 1 2zm44 0 2 1v2zm38 0 1 2zm24 0 1 2zm8 0 3 3-1-1zm71 0q4 0 4 3l-2-2q-3 1-2-1Zm9 0-2 3v1l-1-1zm53 0 1 1-1 2q-3-1 0-3Zm2 0 4 2v2q-6 2-4-4Zm45 0 2 1h-2zm-324 1-1 2zm61 0 2 1h1q-1 2-2 0zm34 0 2 1q-2 3-2-1Zm206 0 2 1h1q1 2-2 1zm18 0 2 1q1-2 2 1 1 2-2 1l-4 1zm-284 1 2 2-3 1v-1h1zm70 0 1 3-2-1zm80 0v3h-2zm50 0v3h-1zm34 0 1 4-2 1 1-2zm-281 1-2 3-1-2zm21 0 1 2zm34 0q3 2 0 3zm10 0 1 3-2-1zm30 0 1 2q-3 1-1-2Zm108 0 1 1-2 1zm22 0-1 2zm24 0 2 1q-2 3-2-1Zm55 0-1 2-2 1 1-2zm-315 1 1 2zm164 0 1 2v2l-2-1zm153 0v4h-1zm7 0 1 2zm6 0 1 1-3 2zm-323 1-1 2zm5 0 1 3h-2zm18 0-1 2zm21 0-1 2zm186 0v3h-1zm-234 1 1 2h-4zm39 0 1 2h-3zm17 0 1 3h-1v-2l-2 1zm140 0 1 4-5 3-1-2 2-4zm107 0 4 2h1q1 2-2 1zm-244 1 1 2zm71 0-1 2zm47 0 1 3h-1v-2l-2 1zm23 0 4 2h-4zm74 0 2 1h1l-3 2 1 1q-3-1-1-4Zm53 0 3 2-3 1zm-285 1q3-1 2 2l-1 2zm36 0 2 3zm134 0 2 1q-2 3-2-1Zm36 0 3 1-2 1zm21 0 1 3-5 1q-1 3 2 2h1l-2 1-3-1q-1-3 2-2v-1q-3 1-2-1h2zm17 0q3-1 2 3zm-184 1-1 2zm16 0-1 2zm98 0v3h-1zm44 0-3 4zm34 0 2 2h-1zm-268 1q3-1 2 2-3 1-2-2Zm50 0-2 3zm7 0-1 2zm87 0-1 2zm129 0 2 1h-2zm-187 1q2-1 1 2zm73 0q3 2 0 3h-2l2-1zm123 0 4 2q1-3 3 2 1 2-2 1v-2h-5zm-271 1 1 3h-1zm31 0q3-1 2 2zm82 0 1 2zm26 0 1 4-2-1-2 1 1-3zm61 0 3 1-2 1zm53 0v2l-2 1zm3 0 1 2zm8 0-1 2zm-280 1 1 2h-3zm29 0v3l-2 1 1 1q-4-2 0-3zm41 0 2 2-1 2v-1q1-3-1-2zm43 0-1 2zm2 0 1 2zm136 0 2 1q-2 3-2-1Zm33 0 1 4-2-1zm17 0 2 1h-2zm-258 1v2l1 1-2 1v-2l-3 2zm80 0v2l-3 2 1-2q2 1 2-2Zm68 0 1 2zm-197 1 2 2-1-1zm238 0-1 2zm-169 1-3 4zm43 0 2 1-2 1zm32 0 1 2zm138 0v2h-2zm13 0 1 2zm-210 1 2 1h-2zm9 0-2 3zm44 0q2-1 1 3h-1zm49 0 2 3h-2q-3 1-2-1zm76 0 2 3zm23 0 3 2v4l-1-2q-5-1-6 2 1 2-1 1-2-2-3 1l-2-1h2q-1-3 3-2zm7 0-1 2zm-185 1v3q-3 1-2-1zm199 0-1 2zm-191 1-1 2zm117 0h2l1 1-2 1zm21 0v3h-1zm21 0v4l-1-2h-3zm-254 1 1 4-2 1v-2zm99 0v3h-1zm35 0 1 2zm115 0-1 2zm-255 1 1 2zm20 0 1 2h-3zm133 0q3 2 0 3-3-1 0-3Zm93 0q3-1 1 4l1 2h-1zm3 0q3-1 2 2l-1-1zm35 0 1 1-2 1zm-204 1-1 2h-2zm35 0 1 2zm50 0-2 3q1 3-2 2v-1q2 1 1-1zm-142 1 2 1-2 1zm25 0-1 2zm77 0 1 1-2 1zm-32 1 1 1-2 1zm119 0 2 1-3 1zm13 0q2-1 1 2-1 2-4 1v-1zm-216 1 2 1-2 1zm32 0 2 2h-1zm70 0 1 2zm45 0 2 1q-2 3-2-1Zm85 0-1 2zm16 0-1 2z"/><path fill="#040404" stroke="#040404" d="m368 18 3 2-3 1q-3-1 0-3Zm12 14q3-1 2 2-3 1-2-2Zm4 0q2-1 1 2zm-11 5q2-1 1 2l2 4-3-3q-3 1-2-1zm-5 50 2 1q-2 3-2-1Zm-61 22h2q-1 3 2 2 3 2 0 3l-5 1 1-4zm1 7 1 1-3 2zm-14 1q5-1 3 3-4 2-3-3Zm36 6h2l7 1 1 2q1 3-1 2-2-4-9-2zm-59 2v2l-4 1-1-2zm54 0v2l-3 1h-2l1 3h-2q-1-4 2-5zm-31 5 2 2h-1zm5 2v3h-1zm36 1q4-2 3 3l2 2q-4 1-5-1zm-77 3 2 1q1 2-1 1zm17 1-1 2 1 2-2 1q-1-4 2-5Zm25 0v2l-2 1zm-13 3 3 4zm37 0 2 1h-2zm20 1q4-1 3 2t-3 0zm-48 1 2 2h-3zm18 5q3 2 0 3zm-61 1 3 4-1 1v-1zm-4 1 1 3h-1zm16 0 3 1h-3zm46 1 1 2zm5 1-2 3zm8 0-1 2zm-80 1-1 2zm3 0 1 2zm86 0v3h-1zm33 0-3 4zm-112 2 4 1h-4zm69 0 3 3-1-1q-4 1-2-2Zm26 0q2-1 1 2l-3 1zm18 0q3-1 1 4h-1v-3l-3 2zm-123 1 2 3zm112 1-1 2zm-24 1-1 2zm-93 2 1 2zm123 0 5 4 1 2-2-1-1-3q-4 1-3-2Zm-106 1 1 2zm112 0 1 3h-1zm-135 2-2 3 2 3-3-2zm104 0v2h-2zm-84 1 1 2zm92 1v3h-1zm17 0 1 2zm6 3-1 2h-2zm10 1-1 2zm-26 2 2 1h1l-2 6 3 1 2-1 2 4h-2v2l-4-1-2 1-2-3q3 1 2-2l-2-6zm-97 1 1 1-2 1zm93 1v4h-1zm-1 5-1 2zm-109 3-1 2zm128 0q3-1 2 3l-1 2q3-1 2 2l-2 3 3 2q4-1 5 2l-5 2v-2l-4 1-2-3 1 1 1-4q-2-2-1-6zm-145 2 1 3h-2q-3-1-2 2h-1l2-3q2 1 2-2Zm5 1-1 2h-2zm-22 5 4 2h1l-3 1zm13 2-2 3zm14 3 3 1h-3zm155 1 2 2 1 2-2 4q4 1 3 6l-3-1q1-3-2-2v-3l-1-3-2 1-1-3-2 1 1-2zm-161 4-1 2zm139 1 6 4h3l4-1-1 2-7 5 1 6q-5 1-6-2l-1-4q3-2 2-7l-3-1zm-146 2 1 2z"/><path fill="#040404" stroke="#040404" d="m381 201 2 1-3 1zM74 231l-1 2v1l-1-1zm15 6 1 3h-1q-3-1 0-3Zm11 4 3 3 4 7 1 1v9l-3 4-6-2 1-8-2-4 2-4-2-4zm-13 3 3 2-1 2h-2zm289 0v3l-5 8v6l3 2q-1 5 3 3 1-3-1-2v-1l-1-3 5-1-2-6h7v2l2 4q-1 2-2 0-3 1-2-1l-2 1-1 3q3-1 2 2l-4 5 1 2q3-1 2 2v2q1 2-2 1v3l3 1h1l-3 2-4-2q-2 2-3 0l2-3-3-2q-3 1-2 5l-6-1q-1 3 2 2l2 2-1 3q3 1 2 5-3-1-2 3l-4-1v-3q3 1 2-1-1-3-4-2l-7 5-1-2q-3 1-2-1l3 1 2-1 2-3 3-1-6-6v-3l1-4q5 2 4-2l-4-3v-3q3 1 2-2l-1-2q1-4 5-3-1-4 3-5 3-1 2 2-3-1-2 2l-3 6 2 3 4-10q3 1 2-1 4-2 1-3l1-6zm-10 20q1 3-2 5-1 3 2 2v3q-5-2-7 2l3 3q2 1 1-2l9-3-4-3 1-3 5 3 1-3zm10 7 3 5 1-2z"/><path fill="#040404" stroke="#040404" d="M379 245q4-1 3 2l3 1q1 3-1 2-2-3-3-1h-2zm-304 5q4-2 3 3l-1-1q-3 1-2-2Zm-61 1 3 2q1 4-3 2zm-7 1q3-1 2 2-3 1-2-2Zm-6 5q1 3 7 1l1 2v3l3 4-1 2q-3-1-2 3l1 3q-3-1-2 2l1 5q-5 1-6-2v-5l2-4q3 1 2-1l-1-3 1-2q-2 1-4-2v-3l-3 1zm4 21v2h3zm58-15 1 4-3 1-2-3zm146 0-1 2zm-192 1q4 1 3 7v1l5 4q1 4-2 6l4 3 1 4v1l5 1 3-1q-2 4-1 12l-2 3h3l1-2q1 2 2 0-2-5 3-4l3 6h-3l2 3 8 4h-2l-7-2-2-4 2-3-3-2q1 4-3 6v3l4 7-8-5 1-4-3-5-3 2q1 2-1 1l-2 3 1 4q3-1 2 2l4 4q3-1 2 3l9 7q1 2-2 1v5l-2 1v-4l-7-7q1-5-2-6h-4q3-2-1-3 1-3-2-2l-2 1-2-6q-5-1-4 2l-2 1 4-5 2 1v-1l-2-3 2 1 3 3 2-1-1-4-6-1 4-1 5 3 2-1-1-3-3-1-1-3-4 2q-3-1 0-3 2 1 1-1l1-4q3 1 2-2l-1-2 2 1q-1 3 3 1l-2-4-4-1q-2 3-5 2l1-5q-3-1-2-5l3-2-3-6zm14 28 1 4q3 1 2-2zm-3 5v2l2 1q1-4-2-3Zm42-33 2 4h-1q-3-1-1-4Z"/><path fill="#040404" stroke="#040404" d="m1 266 2 2q1 4-2 5l-1-1 1-4zm95 1 2 2q1 3-1 4l-4-2zm136 0 2 1h-2zm-191 1h3l5 4q2 5-2 4-3 1-2 6l1 2q4-1 3 2l-1 3 1 1-4-1q1-4-1-3l-4-1 1-5 3-3q2 1 1-2l-4-2zm-12 5 3 2h-2zm30 0h5v2l-3 1zm22 0q3-1 4 2 1 2-1 1zm9 0q3-1 2 2-3 1-2-2Zm10 1q4-1 2 5l-2 1-8-2 1-2 4 1zm146 0 2 1q-2 3-2-1Zm-173 1 2 2-1 3q-5 2-4-1zm162 0 1 2zm-24 1 1 2zm30 0 1 3-2-1zm-211 2q3-1 2 3-3 1-2-3Zm214 1 2 3zm-181 1q2-1 1 3l1 2q-1 3-3 0l1-3zm32 2q3-1 2 3-3 1-2-3Zm-8 1 4 2-1 2-3-1zm-55 1q3-1 2 2zm69 1q5-2 4 2l3 1q1 6-3 7h-2l-6-4q-1-4 2-5zm107 0-2 3zM3 286q2 1 1 5l3-1q-1-3 2-2l-2 3q1 3-3 1l-2 4 5 4 6 3 1-2-1-3q3 1 2 6-5 1-7-3H4l-4 3q-1-4 3-3l1-2-4-5 3-6zm52 0 1 4q-4 2-3-2zm-40 2-1 2q-1 3 2 2v1l-4-1q-1-4 2-3zm3 0 1 4h-1zm69 3q4-1 5 2l-1 2-2 1q-3-1-2-5Z"/><path fill="#040404" stroke="#040404" d="m12 293-1 2v2l-1-2zm237 0v3h-1zm104 0 3 5q3 1 1-4h2l3 1-1 3 1 2-3 2q-2-3-3-1-4 1-5-2zm-312 1q3-1 2 3-3 1-2-3Zm25 0 6 4q1 4-3 2l-2-3-3 2q4 1 3 7l-1 2 4 3 2 3 2 1 5-1 1-3 1 3v1q3-1 2 2 2 1 0 2l-4-3q-3 1-2 6l-2 1-1-3 2-4-2 1-1-1-6-2q1-3-1-2l-3-2h-2l-4 2-4-1 9-2-2-8q3 1 2-1l-2-3 3-2q1 3 3-1Z"/><path fill="#040404" stroke="#040404" d="m78 294 3 5 5 3h7l1 4-2 3 3 2 2 2q6 1 5-1 1-3 3-1 3-1 4 2l-1 4 2 1 1-4-3-9-4 2 1-2-2-3 4-3 2 6 2 1-1 4q5 2 3-3l-1-3 4 3 1 4v2l-1 2 1 1-4-2-2 4 1 2 4 3 1 3-7 3q1 3-4 1-2-2-7-1-3 1-3 5l1 2-2 3-8-2 4-4v-2l-2-4q-5 2-4-1l3-5 2 1 2-1 2 5q4-1 6 2h6l4-7-3-4 1-3-3-2-2 3 3 5-1 1-4-2q1 2-2 1l2-4q-1-3-5-2l-4-4h-5l-3-2 1-3 4 4h2q2-1 1-4l-2-2-4 1-4-3-2 4 3 2-2 3h-2q-4 1-3-1l-2-4h-4l2-1 3-9zm35 29-2 2h3q1-3-1-2Zm18-29q2-1 1 2l1 1-6 1 2-3zm-12 1 3 1 2-1q2 5-2 4zm-69 3q4-1 3 2l3 1 1 4-2 3-3 1h-4l2-1-1-3h-3zm2 4-2 2 4 2zm114-4 5 1 1 3h-4l1 6q6-2 8 2 2 8-2 11l-4-2-2 2q-5-1-6 2l-1 3q-5 1-6-3l-1-3q-6-2-5 2l3 3q-1 4 1 6l-4 2 1 4-3 1 1 4q-5 1-6-2l3-9-1-7 4-1-1-3q-2 3-7 2-2-5 3-4l1-3 1 1 3-3 1 1q3 1 4-1l-2-4q-3 1-2-1h-1l-6-2q-2-7 4-5l1 1h8l5-3q2 2 1 9-4 1-3 5 3 1 2-2l3-2zm-21 4v3q4 1 3-1zm14 0q-1 3 2 2 1-3-2-2Zm-3 5-1 3h1zm9 3 2 4 2-1q1 2 2 0v-3zm8 5v2q2 3 3 0zm-12 2q-3 1-2 6l4-1q1-4-2-5Zm-10 12-2 3 2-1z"/><path fill="#040404" stroke="#040404" d="m134 299 6 7 4 8h-3q1 3-1 2l-4 1-1 7-1 1q-4-1-5 2-1 4 4 2l3-1v7h-1l-2 1-4-1q1-3-2-2-3-1-2-6l-3 1q1 3-1 2l-2-3 2-5 3 1 2-1q-1-4 2-5 1 3 3-1 2 1 1-2l-1-2 3-3q4 1 5-1zm0 14v2l2-1zm-4 6q-4 2 1 4 4 1 2-3zm4 11-3 1q-1 3 3 2zm-16-29q2-1 1 2h-3zm142 1 3 3-1 2-2-2-4 4-2 1-2-3q1-3 5-2zM6 303l1 3-2-1zm117 0 2 2h-1zm125 0 1 3h-1z"/><path fill="#040404" stroke="#040404" d="M133 304v3l-5-1 2-1 2 1z"/><path fill="#040404" stroke="#040404" d="M126 306q2-1 1 3l1 2 2 1-2 3q-6-1-7 4l-1 2-3-3 3 1 5-5q4 1 2-3zm122 1-1 2z"/><path fill="#040404" stroke="#040404" d="M123 310q2-1 1 2t-3 0zm-67 3 8 4 1 3q1-3 3 2l2 5-2-2q-4-1-3 2l-1 5-4-2-2-7q-4 1-5-1l-2-5 5-2zm191 4q5-2 3 4-3 1-2-1zm-200 3 1 2zm184 1-1 2-3 1 1-2zm7 0 1 2q-3 1-1-2Zm-160 2q5-2 4 2l-4 1q-3-1 0-3Zm85 4 5 2q1-2 7-1 4 2 1 4-3-1-2 2l6 1q-6-1-8 3l2 3 5-2 2 8-1 5-3-1 2 4 6 1q1 3-1 2l-3 4h-6l7-4q1-3-2-2h-2l-3 1 1 1h-3v2h-6l1-2 4 1q-1-6 2-8l-1-3 3-2 2 1q2-4-1-3-1-3-6-2-1 3-5 2l-4-2q1-5-4-3v-4h-3v4l-1-5q4 2 3-2l2-4zm0 1-5 4 2 3q3 1 4-1 1-5-1-6Zm9 1-2 1q-3 2 0 3l2-1zm-91-1q6-1 5 2-2 3-7 1zm133 3-1 2zm31 0 4 1-3 5q2 4 4 1l3 2-5 4-2 10q3 1 2 6l-3 3-1-1-4 2q1 3-1 4l-5-2q-3-4-2-11l6 2q-1-4 2-3-1 4 2 3l-1-6 2-3-1-1 3-3-1-10zm-37 2 1 2zm-24 1-1 2h-2zm2 0 2 2h-1zm16 1-1 2zm-3 1v2q-1 3-3 0h2zm-16 1 1 3-2-1zm20 2q5-2 4 3l-4 1zm-107 1q5-1 6 3h-2v2zm95 0 4 1-1 3q2 1 0 2l-4-1-1-3zM87 358l2 1-2 1zm172 10q5-2 3 4l-4 5v2l2 3-3 1v-4h-1l-5-5v-3l6 1zm-8 16q2-1 1 2l-1 2 3 1 4-5 2 3 3 1 5-3 2 5q-3 1-1 3-1 2 2 1l5-1q-1 3 3 2h2l5-2q1 3-1 2l-3 1v3h-48l-1-4 3-2 2 4 3-1 1 1q-1-3 2-2l3-1-1-4zm25 11-2 2q-1 2 2 1t0-3Zm14 3 7 1h-7z"/><path fill="#7C8EA3" stroke="#7C8EA3" d="M322 59h12q8 3 12 10 5 5 3 18-2 7-7 11l-11 5h-24l-2-1V77q2-9 9-14zm75 8v2h-2zm1 8v3h-1zm-12 16 1 2q-3 1-1-2Zm-276 9h33l1 2v87l-1-88h-33l-1 1zm129 0h47l1 2-1-1h-47l-20 20zm48 4-39 40zm105 28v3h-1zm4 13v3h-1zm-32 3q3-1 4 2l-3-1zm7 7v2l2 1h-1zm4 0 1 2zm5 1 2 1-1 2zm-6 3v2l-2 1zm-16 4v2l-2 3v-1zm23 0 1 1-1 3q-3 1-2-2zm-10 2q2-1 1 2zm10 3v2l-2 1zm-20 1q3-1 2 2l1 1q-5 1-3-3Zm8 2 1 1-2 1zm9 0-1 2zm-19 1 1 2q-3 1-1-2Zm3 6q2-1 1 3h-1zm15 5 2 1h-2zm-18 3 2 1-3 1zm-3 2-3 4v-1q-1-3 2-2zm40 0v3h-1zm-18 2 1 2q-3 1-1-2Zm-21 2 4 1-2 1zm-2 2 1 2h-3zm41 3q3-1 2 3l-2-1zm-184 2 1 2zm142 4 2 4-2-1zm-135 1 1 2zm159 0v2h-2zm-155 3 1 2zm162 0v3q-3 1-2-1zm-12 1 2 2h-4v-1zm-143 4 1 2zm117 3 2 2-1-1zm38 0 1 2-2 1-1-1zm13 0v6l-3 2q-1-7 2-7zm-29 2 1 2zm16 1 4 1h1q-1 2 2 1v2h-4v-1l-3-1zm-23 1q3-1 2 2-3 1-2-2Zm-189 1-28 29zm68 0 1 2zm131 0v2l2 1h-1zm5 2 2 1h-2zm6 0q3-1 2 3-3 1-2-3Zm-201 2 1 2zm66 1 1 2zm116 0 2 1 2-1 1 2-1 3-2 1 1 1-4-1zm7 1 3 2-1 3zm16 0 3 1 2 4h-4l1-2-2-2-2 1zm-201 1 1 2zm66 1 1 2zm145 2 1 2q-3 1-1-2Zm-5 2 1 1-1 3-2-2zm-133 1 1 2zm107 1h1v4q-3 1-2-1zm14 1 2 1-3 1zm7 0 1 5-3 5-1-1 1-6h2zm-13 1q2-1 1 2zm-173 2 1 2zm178 0q3-1 2 4h2q1 2-1 1l-2 1h-3zm16 1 1 2 2-1-1 2-3 2q1 2-1 1l-4 1 1-2 2 1-1-4zm-190 2 1 2zm168 1q3-1 2 2l-5 1 1 4-3 1-1-6q4 1 6-2Zm25 4v3h-1zm-21 2 2 2h-1zm15 0q3-1 2 2-3 1-2-2Zm-176 1 1 2zm-72 1v40l-2 1 1-1zm220 0v2l-2 1zm-144 2 1 2zm156 2 2 1q-3 1-1 3-3 1-2-1-2-2 1-3Zm22 0v3h-1zm-174 1 1 2zm149 0v5h-1l-1-3zm15 0q3-1 2 3l-2 1v-1zm-51 2q3-1 2 3-3 1-2-3Zm57 1 4 4v1l-5-3zm-159 5 1 2zm78 0q3-1 2 3l-2-1zm76 1 3 3-2 1-3-1zm-150 2 1 2zm144 0v2l-2 1zm-38 2 1 3-2-1zm-102 1 1 2zm113 0v2h-2zm34 0 3 1h1l1 2-6 3-1 2-1-2 1-3q3 1 2-3Zm-75 2v3h-3zm34 0q2-1 1 2l1 2-4 3 1-3-1-2zm20 1 2 2-4 1zm-43 1 2 1-2 1zm11 0q4-1 3 2t-3 0zm-34 2 2 1-2 1z"/><path fill="#7C8EA3" stroke="#7C8EA3" d="M383 275q4-1 3 2v1q3-1 2 3l1 1q-3-1-2 2-3 1-1 3-3 1-2-2h-1l-2-1-3 1q1-4-2-3l1 3h-1l-2-2 4-2q1 4 3 1l3-2q1-3-2-2v-1q2 1 1-2Zm15 0v5h-1zm-27 1 3 1-2 4zm-18 1q2-1 1 2zm-57 1q4-1 3 2l1 2-3-1-3 1v-1l2-1zm45 2q2-1 1 2l-4 5-4 1-1 4q-3 1-2-1l4-5q-2-2 1-3 4 1 5-3Zm-15 1 3 1-3 1zm24 1q4-1 2 3-3 1-2-1zm-18 2v3l-4 2q1 2-1 1l1-2 2-3zm66 0v2l-3 2zm-52 1q3-1 2 3l-2 1zm-52 1 1 3-3 1v3l-2-3 3-1zm76 0 3 2h-2zm-29 1 2 1-2 4q-5-2 0-5Zm35 0v3l-2-1zm12 0q4-1 3 2l2 3-1 2-4-1v4l-1-2q-3-1-2 3l-2 3q3 1 2-2h3q1 3-1 2l-3 2-3-1 1 2h4q-1 4 2 3l3 5 3 2-2 7q-3 1-2-2l-1-3q5 2 3-3l-3-1-3 7 1 2-1 2 4 1 2-1-2 3q-1 3 2 2l3-1-2-4 3-2 2 7-2 3-3 2v-2h-2l2-1-2-1-3 1v6h5v3l2 3-2 1 1-3q-3-1-2 2l-2-1 1-3-3 2 2 5v1l2-1-1 2-2-1-1 2q3-1 2 3l-3 2 2-3-2 1h-3q1-4-2-3l-4-1-3 2 1 2 3-1-1 2q-1 3 3 1l-1-3 2 1 1 2h1l1 1h1l-3 1-1 3-5 1-3-1 1-4-2-2h-2l-5-1q1 3-1 2-2 2-3 0l2-3q5 2 4-1v-2l2 1 1-7-1-2 2-1q-1 4 3 2l2-3v2l-5 3q-1 4 2 3l2-1 2 1q4-1 3-7-3 1-2-3l3 1v-2q4 2 3-1 4-2 3-7-3-1-2 2l-2 3q-3-1-2-5h4l-1-3-6 2v3q-4-1-3-5l3 1 1-3-6-3-3 2v-1q-1-3 3-2 3-1 2-6-5-2-4 3l-4 2q2-4-1-3l-5 3-1-3q3-3 10-3l2-2v-2l-2 1-1-2 3-1 2 1 4-2q-1-3 2-2 2-1 1-5l-1-3h2q-1 3 2 2l5-6q-3 1-2-2Zm-10 18-1 3 1 5-1 2 4 5q-1 2 3 1l1-2-1-4 1-2-1-2q-1-3 2-2v-2l-3-2-2 1zm7 31-3 7q-1 2 2 1 2-1 0-2l2-4q1-3-1-2Zm2 6q-4 2 1 4 2-1 0-2 1-3-1-2Zm-2 2-1 1q-3-1-2 2l5 2q1-4-2-5Zm-65-56 1 1-3 2z"/><path fill="#7C8EA3" stroke="#7C8EA3" d="M378 288h7v2l-1 2-3-2-1 3-2 1q-3-1-1-2zm-269 1 1 2zm252 0q3 2 0 3zm-75 2v4l2 1-1 2q-5 2-3-4zm24 0 2 1-2 1zm35 0v5l-2 4q-3-4-10-4l-2 4 1 2-2 1-1-3 1-3h-1l-1 2q-4-1-3 3h-2l-2-1q-1-4 2-3l-1-1q-1-4 2-3l2-1v2q-3-1-2 2l2-1 5-2 2 1 1-3q4-1 3 2 1 3 5 2zm11 0v6h-1l-1-4zm38 0 2 1-2 1zm-100 1 1 3-2-1zm78 0 8 4-3 5-2-1-3 2q3-2 2-7-5 2-2-3Zm-21 2-1 2 1 7-4-1 1-2-1-2zm44 2v2l-2 1zm-104 1v3l-2-1zm19 1q4-1 3 2l-2 1zm58 0 2 2 1 2-1 2q-2-3-7-2zm21 1 4 2h-4zm-103 2q3-1 2 2h-4zm30 0 3 1q1 3-3 2l-2 3 1 1q-5 1-3-3l3-2zm46 0v2l-2 1zm-21 1 1 4q-4 1-1-4Zm13 0v2l-2 5q-3 1-2-1z"/><path fill="#7C8EA3" stroke="#7C8EA3" d="M325 303q4-1 2 3-5 0-7 4l2 2-3-1 1-4q3 1 2-1zm68 0 2 1-1 2q-4 1-1-3Zm-120 1 7 2-4 3 2 2 3-2 2-3 2 2-3 1q1 2-1 1-3 6-5 1-4 1-3-2 3 1 2-3l-2 1v-1zm63 1 4 4q-1-3 2-2l-1 3q-3-1-2 2l-2-1zm25 0q3-1 2 2l1 2q-5 2-3-4Zm35 0q3-1 2 3-3 1-2-3Zm-88 1 3 2h-2q-2 6 4 4l3 1-1 4 3-1v2l-2 1-2-1-2 1q2-5-2-4l-4 1q-1-3 2-2v-2l-1-3zm-17 3q3-1 2 2l1 3-2-1q1-4-1-3zm-31 1-1 2zm41 0q2-1 1 2zM7 311q4-1 3 2H5zm10 0q3-1 2 2-4-1-3 2l-2-1q-1-3 2-2zm312 0q2-1 1 2zm15 0q3-1 2 3-3 1-2-3Zm12 3 3 2q1 2-1 1l-4-1zm-75 2v3l-2 3-2-2 1-3zm114 0q5-1 3 3l-3-1zm-32 2 4 1q1-2 2 1l-1 2h-2q-4 1-5-1zM5 319v3H4zm247 0 3 2h-3zm36 0v4l-2-1zm19 0q3-1 2 2l-2 1zm37 0-1 2zm-77 1v3h-1zm84 0v2l-2 3h-4l1-3q5 2 5-2Zm5 0 2 2q1 4-4 2v4l5 5q-3 1-2-2h-2q-2-3-7-2l6-5zm-95 1 4 3q-1 2-2 0-5 1-2-3Zm12 0-1 2 1 2-3 1q-1-4 3-5Zm41 0 1 1-2 1zm57 0q3-1 2 2h-4zm-113 1v3q-3 1-2-1zm82 0 2 1h-2zM6 323l2 4-2-1zm238 0v2l-2 1zm80 0 1 1-1 2q-3 1-2-1zm8 0v2l-5 4 2-3zm-32 1 2 1-2 1zm44 0v3h-1zM366 324l5 4 3-1 1 3-2 1h-4q-4 1-3-2l1-2-2-1-5 3-1-4zm-54 1 3 2-2 3-3-1-4 1 1-3q3 1 5-2Zm-60 1v2q4-1 3 2-4 2-3-1zm41 0 3 2h-3zm44 0 3 2h-3zm-50 1h4q-1 3 2 2l-1 2-5-1zm-26 1 1 1-3 2zm15 0q4-1 2 4l-4 1-2-3q5 2 4-2Zm42 0 1 3h-4zm-247 1q3-1 2 2l-2 1zm164 0q3-1 2 2l1 2-3 1zm-13 1 3 3v4l-1-3q-3 1-2-1zm22 0 1 1-3 2zm87 0q4-1 3 2-4 1-3-2Zm-100 1 1 3-2-1zm67 0 1 1-2 1zm64 0 5 3-1 3-2 1-1-6zm17 0 2 1-1 2q-4-1-3 2h-4l2-3zm-259 1q3-1 2 2l-2 1zm-87 1 2 1 1 4q-3 1-2-2l-2 1q1 2-2 1v-4h2zm218 0v2l-3 2 1-2q2 1 2-2Zm34 0h7v2q3-1 2 2l-1-1-2-1-4 2zm63 0q4-1 5 2v1q-1-3-5-2zm-287 1v3h-1zm253 0 2 1-1 2q2 1 0 2-3 1-2-2h-3v-2zm7 0 4 6q4-1 3 2l4 1q-1 3 2 2l2-1 1 2 2-1 3 4 3 1-1 3-4-2-2 1 2-3-1-1-3 1h-2q-1 4 2 5l3-1 7 3q3-2 2-7h-2q1-3-1-2l-6-4-1-5 8-4v4q4-2 3 3l2 3h-1l-3-1-1-4-5-1-1 3 5 2 2 3q4-1 3 2l2 3q5 2 3-3l1-4 4-2h5l1 4-5 3v-2l-3 2v2q-3-1-2 2l3 2q-1 3 2 2h2l3-1 2-3 4 6 3 1q2 6-3 4l-1-2-1-3h-3q1-3-2-2l-3 3 2 2h-3q2-2 0-3l-4 1q-2-2-3 1l-1 2-6 2 3-5 3-1 2-6-3-1-3 1-3 5-5-3-3 2h-2l-4 2 2 3 2-1q-1-3 2-2l-2 3-1 3h-3q2-4-1-3l-2-1-5 2v2l1 4-1-1q-3-1-2 2h-2l-4 2v-2l-6-3-1 4-2-1-1 2q4-1 3 2l-2-1-1 2q-2-4-4 0v3l-2 4-3-4q-5-2-4 3l-9 8v2l-2-2 8-7 1-2-1-2 3-1 2-3 3 4q2 1 1-1l4-5q2 1 1-2 1-4 5-3-2-6 4-4v1q-3-1-2 2t6 2l-1-3 3 2q-1 3 3 1v-5l2-4q3 1 2-2l-3 1-3-1 2-1-1-3q-3 1-2-3l5 4 2 2h1v2q-1 2 2 1 4-1 3-6l-3 2v1l-1-1 3-4q2 1 1-1l2-3q-5-1-4 2l-3 4h-2l5-7-4-2-1-3-5-2-1-3z"/><path fill="#7C8EA3" stroke="#7C8EA3" d="M357 334v4l-1 2-3-1zm-230 1 2 2-3 1zm111 0 2 1q1 3-1 2l-3 1zm91 0 8 2-1 3q-4 1-5-1 1-3-2-2zm-222 1q3-1 2 2-3 1-2-2Zm11 0 1 5h-2l-1-2zm-54 1v3l-2-1zm169 0v2l-4 1q-1-3 3-2zm44 0 2 1-2 1zm-205 1 2 4-3 2 1-3q-3 1-2-1zm17 0v2h-2zm129 0 2 1 2-1-1 3q-3-1-2 2h-1q1-3-1-2l-2 1zm80 0q3-1 2 2-3 1-2-2Zm-206 1 1 3q-3 1-1-3Zm-86 1 3 2h1q-1 4 3 5l2-1 2 3q1-4 3 0l1 5-2 1 1-2-4-1v-3l-4 3 4 1 1 3-5 2 2 2h-2v1l-2-3 1-2q-4 1-3-1l-1-1 3-4-3-1q-1-3 2-2l3 2v-2q-3 1-2-1l-1-3-2 1q-5-2-1-4Zm301 0 2 1-1 3q-3-1-1-2zm-254 1h4q-1 3 3 2l7 7 2 5-2 1 1 1h-2v1l-1-3 1-4q-3-1-2 2l-4 2v2l-1-1 3-2-2-5q-3 1-2-1l1-2-3-2-2 5q4-1 3 2l-1 2 1 2h-2q2-4-1-3l-3-6q-3 1-2-1l3-2q-1 3 2 2zm22 0 4 3 1 2v1q2-1 1 2l-3 5 3-2 4-2 1 3-1 3h2l-1 2q-3-1-2 2h-1q1-3-1-2v-1l2-1-2-1-2 1q-5-1-4-6l3-4-1-3q-4 1-3-2Zm112 0v2h-2zm74 0q3-1 2 2-3 1-2-2Zm14 0v3l-1 2-1-1zm5 0q4-1 3 2l-3 2q1 4-2 3v-4q3 1 2-3Zm36 0q3-1 2 3l-1 1 2 2h-5zm-203 1 3 2h-2zm97 0 3 3h-2l1 5-4-2q-1-5 2-6Zm0 1-1 4h1zm22-1q5-1 7 2h-2q1 5-2 5v3l3 1 3-1v1l-5 3-4-2-3 9-4-1 1-4q4 1 5-2l-1-2 1-1-1-3 4 3v-1q-3-2-2-6 3 1 2-1l1-2-2 1zm54 0 4 4q1 2-1 1l-4-3zm-194 1 3 2h-3zm42 0q3-1 2 3l-2-1zm26 0v3l-1 3-1-2zm67 0 3 1-2 1zm-11 1q4-1 2 5l-2 1-2-4zm106 0h3v5q-3 1-2-1zm-203 1 4 2q1-2 2 1l-1 3 1 3-1 1h-2l1-3-1-3-3-1zm83 0 2 1 2-1-3 4-2 1 1 2-2 3h4l2-1-1 5q5-2 4 2-5 1-6-1l-1-3q-1 6-4 8l-2-2h2l-1-3-3 1v-1l6-3q1-3-1-2l1-2v-2l-4 3-1 2 2 1-3 1q-2-3-3-1l-4 2 2 2 2-1-1 2 1 3-2 3 1 1-2-2 1-2h-2l2-1-1-3-3 1h-2l1 2-2 1-2-1-3 1v2l-4-2 3-1q-1-3 3-2l2 1 1-3 4 1-1-1 1-3-3-1q1-3-1-2l-2 1-2-3 4 1 1-5 5 1h2l3-1 4 1q-1 3 2 2zm-9 5 1 4 1-2zm-6 1-2 3q3 5 6-1 1-4-4-2Zm84-6q-1 5 2 6 4-1 2 5h-1q1-3-1-2l-4-2v-4zm38 0 4 2-1 2zm-283 1v2h-2zm4 0 1 4q3-1 2 2 4 1 1 3l-1-3q-3 1-2-1zm79 0 4 2h-4zm285 0-2 3zm-358 1 3 2q-1 3-3 0zm60 0 2 1-3 2v-1q2 1 1-2Zm35 0 1 3-3 2-1-3zm4 0 1 3-2-1zm-90 1 3 2-1 2 5 1 2 4-3-3-2 1q1-3-3-2l-3-3z"/><path fill="#7C8EA3" stroke="#7C8EA3" d="M104 348v3q3-1 2 2l-2 5 5 3q3-2-1-4-3 1-2-3 3-1 2 2 3 3 8 2v2h-5v3q-4 1-3 7l3 1q1 2-1 1l2 3 2-1 1 3 3-4v-3q-3-1-2 2l-2 1-2-2q2-5 4-2l4-1 2 3 6-5q1-3-1-2l-1-2 3 1 1-3-2-4q3-1 2 2 4 1 1 3l1 4-1 4v2l1 3-5-2 3-1q2-5-2-4l-3 1-1 3q-5 0-7 4l2 2h-3v5h-2v-1q2 1 1-2-3 1-2-2h-1l-2 3-1-1q-3 1-2-2l2-4-4-2q1-3-1-2l-3-1-4-5 3-1q1 3 4 2l1 3 1-4-5-2 1-2-4-2-1-2 3-2zm-1 5-2 2h2zm49-5v3l-4 1 2 4 2-4 1 3-3 7 1 3-1-1-5 1-3-1q1-3 3-1 6 2 4-4l1-2-3-1-3 1q-1-4 2-3l5-4zm20 0 1 5-3 1v-1h1zm90 0-1 2zm-237 1 2 4q-3-1-2 3h-1v-3l-2 1v-2z"/><path fill="#7C8EA3" stroke="#7C8EA3" d="m115 349 1 3-2 1zm50 0 3 7 3-1v3h-2l-6-5-2 1q-1-3 2-2zm43 0 1 3-2 1zm-118 1q3-1 2 2-3 1-2-2Zm19 0q3-1 2 2-3 1-2-2Zm112 0 1 3-1-1q-3-1-2 3l1 1-2 1 2 4q-2 1 1 3 1 2-2 1 1-3-2-2v-4l-1-4q-3-1-2 3l-3 1v3l-1-4 2-7 3 2v1h2q-2-4 3-3zm5 0v3l-1 3-3-1 3-2zm88 0 2 1 1 4q-2 3-3-1l-2 1-1-1zm-159 1 2 1v2q-3 1-2-3Zm112 1 1 3-2-1zm124 0 1 4-3 1-1-2q4 1 3-3Zm-350 1 2 2q1 2-1 1l-4-1zm31 0 4 4h-2l-1 4h3l2 2q-2 3-3-1l-4-1 1-6zm21 0 1 4h1l2 4-4 5 5 4h-1l-4-1-1-3q-6 1-7-2-1-5 2-4l3 4q5 1 5-3l-2-4-2 5h-2l2-1q1-3-1-2l1-2zm2 0 1 2zm24 0 1 2q-3 1-1-2Zm179 0 2 1h-2zm-167 1 3 2h-2zm29 0-2 3q-1 3 2 4l2-1q-1-5 4-3l4 7-3 2 2 2h1l-1 3 1 1-2-4-7 2v-1l5-2v-2l-1-5-4 2q-1 3 4 1l-2 3q1 2-1 1l-3-1-2 1v-3l-2-5 2-4zm-138 1-2 3zm5 0 3 1-3 2v-1zm113 0q3-1 2 2l-2 1zm-104 1 2 1-2 4 4-3 1 1-2 1 1 1h-2l2 2 2 1 3-4-1-2h2l6 3 4-2 2 5 4-2v3l2 3-3 1-1-2q-3 1-1 3 1 2-2 1l1-5-2-4-3 4-1-2 1-2-4 2q-1 4 2 3v1l-8-3-5 4-1-1q2-2 0-3l-3 2q1 2-2 1l-1-2 4-1-2-2q-2 4-4 1l1-3h3q-1-3 2-2zm10 5v2l3-1zm131-5 1 3-3 1v3l-2-1-2 1 3-4 2-1zm75 0 6 5v1l-6-4zm-190 1q3-1 2 3l4-1 1 1-2 1h-2v1l-2-3h-3zm17 0v3h-1zm222 1v2h-2zm43 0 1 4-1 5q-3 1-2-1v-2l1-3q-2-2 1-3Zm-323 1-1 2zm4 0q2-1 1 2l2 4-1-1-3 3h-2l3-2q1-3-1-2l-2 1q-1-3 2-2zm93 0h2q-1 4 2 3 1-2 2 1l-6 3-3-1zm186 1v5l-1 3-2-2zm82 0q3-1 2 3l-1-1-3 2-1-1z"/><path fill="#7C8EA3" stroke="#7C8EA3" d="M81 361q3 1 2 5 3-1 2 2v4q-1 3 2 2l1 2-2-1v2h-2l2 3 8 1 4-5h1l-2-3h1l2 2h2l4-2-1 2q-1 4 1 6l-3 1 1 2-1-1-3 2 1 2-3 2 1-2-2-1 3-2-2-1-3 2 1-2q-2-4-4 1l-6-3q-3 1-2 5l4-1 1 6-1-1-5-2v-3l-2 3-2-1-1 3-2-3 2-1v-2l-4 2 1 3 1 4-2 1 1-2-1-4h-3l2-4-1-3q1-3 5-2l1 2-3-1 1 4q2-3 7-3l-2-5h2l-3-4 1-2h-4q2-2 0-3h-2l3-2q-2 4 3 3v-2l-2-3zm2 11 1 2q1-3-1-2Zm18 4 1 6q2-1 0-2l1-2q1-3-2-2Zm-2 1-4 4 2 1 3-2zm40-16q3-1 2 2-3 1-2-2Zm74 0 1 2zm38 0 2 1-1 2zm-184 1 1 4h-1z"/><path fill="#7C8EA3" stroke="#7C8EA3" d="M136 363q3-1 2 3l5 2h7l4-3-1 3-7 2-1-1-3 2q1-4-2-3l1 7-2 1v-5l-3 2-1-2h-2l2-1v-2l1 3h2v-2l1 1-2-3zm64 0 5 2h-1l-2-1-3 2zm8 0 2 1-1 1h-3zm16 0v5l-1 2h-2v1l-1-2zm34 0v3h-1zm35 0 1 3v-2l2 1-3 4v-1l-2-3zm64 0q4-1 5 2l1 1 2-1v4h-1q-2 3-5 2-1-3 3-2v-3l-5-1zm-223 1 1 2q-3 1-1-2Zm81 0 2 1h-2zm16 0 2 2h-1zm14 0 1 4-3-2zm-51 1q2-1 1 2l-2 1zm-15 1 2 1 2-1v1l-3 2v-2zm27 0 2 1-1 2-3 1v-1h1v-2l1 1zm131 0q4-1 3 2l2 3h1q1 2-1 1l-3 1q1 3-2 2 1-3-1-2l-6-1-1-5 3 2-1 2 3-2q-1-3 2-2zm0 3v3q4 2 3-1zm-318-2 7 5 2-1v1l-2 1 1 1-4-3-1 2-1-4zm10 0v2l-2 1zm23 0 2 1-2 1zm16 0 1 3h-2l2 5 2 1-4 2v-1l-2-3 1-2h-2l1-3q3 1 3-2Zm133 0 1 2zm177 0 4 1-3 1q2 1 0 2-5-2-1-4Zm-342 1v3h-1zm5 0 2 1v2q1 2-1 1v2l-3-4zm46 0q3-1 4 2l1 2-1 2 3 1h1l-2 4-1-4q-3 1-2-2l-2-4zm96 0 1 3h-3zm13 0 1 2-1-1-3 2zm3 0 2 3q-3 1-2-1zm57 0q3-1 1 3l-3-1zm-192 1-1 2h-2zm9 0 1 2v2l-2-1zm27 0 1 2q-3 1-1-2Zm54 0v2l1 1h-1l-3-1zm64 0 1 2zm29 0 2 4h-2v-2l-1 2-2-3zm120 0q1 3 7 1l2 3-3 1-3-1v2l-4-1 1-3zm-333 1-1 2zm156 0q2-1 1 2zm17 0 2 2h-1zm22 0q3-1 2 2l1 1zm42 0v2h-3zm8 0v2l-2 4q-3 1-2-1zm20 0q2-1 1 2l-3 2v-1zm-134 1 2 1h-2zm11 0 3 2v1l-1-2q-3 1-2-1Zm36 0 2 1-1 2 2 2-3 2 3 3q-5-2-3-5-3 1-2-1v-2q3 1 2-2Zm29 0-1 2q-1 3 3 1v2q-4 1-5-1zm47 0v2l-2 4-1-2zm38 0 2 2-1 3 3 1q-2-5 2-4l-1 4 4 2q1 3-1 2l-2 1v-3h-5l-1-1-4-2 2-4zm-295 1-2 3 1 3-2-1q0-4 3-5Zm19 0 2 3h1v1l1 1h-4z"/><path fill="#7C8EA3" stroke="#7C8EA3" d="M57 372v3h2q-1-4 2-3-1 4 2 5 2-1 1 2l5 3-2 4 4 4q2-1 1 3l5 5 6 1h-6l-3-1-2-4-3-1-4-5-1-4q-3 1-2-1l1-2-3-1q1-4-2-3l-1 3-2 1h4q1 3-2 2v3l2 2-3 3-2 1-3-1v2l-1-2-2 1 2-3-3-2 2-1 3 4 1-3 3 1-1-3q2 1 1-1-2 1-3-2l-3 1-1-2q-1-3 4-2h2zm-6 8v1h2zm3 1 1 2q1-3-1-2Zm72-9v2l3 2v1l-1-1-3 2 1-4h-3q2 4-1 3v-1l-1-2zm62 0q2 1 1 7l-2-1 1-2zm14 0v2l2 1h-1zm-178 1 1 4h-1zm23 0q2-1 1 3h-1v-2l-3 1v-1zm149 0q2 1 0 3-1 2 3 1l-1-1 1-2 1 3 3 1h-4l-3 2v-1l-2-3zm28 0 2 1h1l-2 1zm88 0h2q2-1 1 2l1 2-7 3-2-4h1q-1 2 2 1h2q2 1 1-2-3 1-1-2Zm50 0 5 3q2 4-2 3l-2 1v-4l-2-1zm16 0 1 1-2 1zm-343 1-1 2q-1 2 2 1l1-2v2q-4 1 0 3l4-1 2 1-2-4 2 1 1 3-2 5 1 3-1 1q-4 1-3-1l-3-2 2-1v-2q1-3-1-2l-3 1 1-2-2-1q-1-4 2-5Zm38 0 5 1q-1 3 2 5l-3-3q-5 1-4-3Zm77 0-1 2v1l-1-1zm66 0h2v4h2v1l-3-1zm17 0h3q-1 5 3 3v4q-3 1-2-2h-3q-3 2 0 3l2-1v3l-2 3 4-1q3 2 2 7 3-1 2 2l-3 1-1-5q-3 1-2-1l-3-1-1-4q-4-1-3 2l-1-1-2 1-4-5-1 6 2 1h-2v2l-1-9-1-1h2q5 1 5-3l1-2v2q-3 1-1 3-2-2-3 1l2 3h4q-2-2 1-3v-5l-2 1 1-3 3 2zm36 0 3 1v2l-2-1-6 4v1l-1-1 4-5zm90 0v2h-2zm-228 1 3 1h1q-1 2 2 1h1l-2 1-5-2zm43 0 3 3h-4zm18 0 1 1-2 1zm55 0v3l-3 2zm15 0-1 2zm-105 1v2h-2zm11 0-1 2zm12 0v3q-3 1-2-1zm171 0q3-1 2 2zm24 0 1 1-3 2zm-330 1 2 1-1 1 2 2zm162 0 2 2h-2v6l-2-6zm67 0 2 1-2 1zm-140 1-1 3 1 1-2 1q2 1 0 2l-4-1 3-1-1-1zm30 0v2l2 1v1l2 1h-5l1-2-3-1h2zm19 0 1 1-3 2zm69 0q2-1 1 2zm32 0v2l-4 1 1 1q-3-1 0-3zm40 0 1 3-1 2q2-1 1 2l-2-1-1 2-4 2-1-3q-5-1-3 4h4v2l-5 2-1-4-3 1-3-1 1 3h-2q-1 3 2 2l-1 2-3-1-1 4-7-2 3-1q-1-4 2-3l3 2v-5q3 1 2-1l2-3-2-1-2 1-1-2 4-3q-1 3 2 2v4h2l4-6 2-1 6 4-1-5zm32 0q2-1 1 3v2l-4-1zm-235 1 1 4-6 4 1-3-4 3 1 1-4-1 3-1-3-2-2 1q-1-3 2-2h2q2-1 1 2l3-2 4-1zm18 0-1 2h-3zm62 0v3q-4 1-3-2zm10 0 4 7-1-1-5 1 3-4zm-27 1v3h-1zm65 0 1 1h-2v5q-6-3 1-6Zm121 0 2 1-2 1zm-196 1q3-1 2 2l-3 2v-1q3 1 1-3Zm20 0 2 1h-3l1 2 2-1v1l-2 1 2 3 2-1-1 2v2l-2-3-3 1v-2l-1 2-1-1 1-4zm-2 4v2l2-1zm11-4 1 3 1 1h-3v2l-2-2h2l1-2zm143 0q4-1 3 2l2 4h-2q1-3-1-2zm-210 1 4 4-3-3zm10 0 1 2zm35 0-1 2zm157 0q3-1 2 2l2 3h1l-1 2-4 2q-3-4-8-3l-1-3q2-3 3 0l-1 2 4-1q-2-2 1-3zm-2 3 3 4q2 1 1-3zm-181-2 3 1 1 1-4 2-2-2z"/><path fill="#7C8EA3" stroke="#7C8EA3" d="m238 383 3 2v2zm-193 1 1 3h-1zm91 0 1 2zm13 0-1 2h-2zm16 0 2 1h-2zm-60 1 1 2h-4zm256 0q3-1 2 2l-7 4v-1l1-4zm-268 1 2 3h1q1 2-1 1l-2-1 1 3q-3 1-2-1l-1-3zm34 0 2 3zm23 0q2-1 1 3l-2 1 1-2h-2zm14 0 1 2zm12 0v2l3 2-1-1-3 2-1 3-2-3h1q-2-2 1-3v2l2-1zm55 0 1 3q-1 2-2 0-4-1-2 5l-1 1h-3l3-5v-2h2q2 1 2-2Zm114 0 1 3-2-1zm-204 1v2l-2 1zm26 0 1 2zm38 0-1 2zm121 0q2-1 1 2l1 1q-3-1-2 2l1 1q-3-1-2 2l-2-1v-2q0-4 3-5Zm-218 1 1 3h-1zm18 0-1 2zm19 0 1 4h-1zm-102 1q3-1 2 2-3 1-2-2Zm40 0-1 2h-2zm18 0-1 2v1l-1-1zm12 0v2l-2 1zm19 0 1 2zm28 0 1 2zm85 0 1 3h-3zm85 0q3-1 2 2-3-1-2 2h-1zm18 0q3-1 2 2 4 1 1 3l-4-2-2 4h-2l-8 2v-2q3 1 2-1l4-3 3 1zm-229 1-1 2zm74 0 2 2-1-1zm21 0 5 4q1-2 2 1h-2zm-48 1 3 2v1l-1-2q-2 3-2-1Zm66 0 1 2h-2q-1 2 2 1v4l-3-5zm78 0v2h-2zm-247 1q1 3 3 2l-1 1zm52 0 1 4-2-1zm67 0q3 2 0 3zm15 0 3 3v1l-1-2zm-140 1 4 3q1 2-2 1l-2-3-1 2-1-1zm32 0 2 3-3 1v-1zm29 0 2 1q-2 3-2-1Zm5 0 3 2q1 2-1 1v-2q-3 1-2-1Zm7 0-1 2v2l-1-2zm57 0 2 1-2 1zm133 0q2-1 1 2l1 3-1-1q-4-1-3 2h-4v-2q3 1 2-1zm13 0q2 1 0 3v2l-1-2-1 3q-3 1-2-2zm-197 1-2 3 2 1q4 1 6-1l-1 2h-7l-1-2zm23 0 2 1h1q1 2-1 1zm18 0 1 3-2-1zm2 0 1 3h-1zm25 0v2l1 1-5 2v-1l3-1q-2-2 1-3Zm10 0 5 5h-3q1-4-4-2zm98 0 1 4-2 1-1-3zm-139 1 1 2zm17 0 2 2 1 1h1l-3 1q2-4-1-3zm-127 1h5q-1 3 4 2v1l-9-1zm30 0 4 2 3-2v1q-3-1-2 2h-3zm16 0-2 3zm23 0-1 2zm35 0-2 3h-8l8-1zm40 0 2 2h-1zM230 396q3 2 0 3h-4zm53 0 3 1-3 2zm-139 1 1 1h9l-1 1h-10zm27 0v2h-4zm51 0 1 2h-3zm-136 1 4 1h-4zm27 0 4 1h-4zm63 0 8 1h-8z"/><path fill="#060606" stroke="#060606" d="m362 58-1 2zm-61 72-1 2zm0 4v2l-2 1zm-15 1q3 2 0 3zm8 1 2 1h-2zm16 1 3 1-2 1zm7 2v3q-3-1 0-3Zm-62 2q3-1 2 2-3 1-2-2Zm8 0 1 2zm46 0-1 2zm-48 1 1 2q-3 1-1-2Zm14 1 1 1h-2v2l-1-1zm25 0v3h-1zm-31 1 1 2zm26 0-1 2h-2zm-43 2 2 1-2 1zm56 0 1 2zm-52 1 1 4h-2l1-2zm81 0-2 3zm-21 2 3 2h-3zm24 2-1 2zm27 0 2 1h-2zm-108 1 1 4h-1zm69 1-1 2h-3zm33 4-1 2zm-103 1 1 3-1 2-1-1v-2zm97 0 1 2zm-26 1q2-1 1 3h-1zm-94 2-1 2zm136 7-1 2zm2 2 2 1h-2zm-115 2 1 2zm122 0-1 2zm-155 3-1 2zm4 0-1 2h-2zm17 0-2 3v1l-1-1zm4 0 2 2h-1zm-13 1-1 2h-2zm-12 2 1 2zm8 4 1 2zm4 0-1 2zm-23 3-3 4zm-3 8-1 2zm153 0 8 4h1l-3 4h4l3-1 3 1-1-2 3 2-5 3v-2l-7 1-6-4q-3 2 0 3 3-1 1 5l-2 4 4 4 5-1q-1 4 5 2l1 1 2-5 3 4-1 1 1 5-4 1q1-4-1-5-5-1-3 4l-2-1q1-3-1-2l-2-3-3 2 2 2 1 1-4 2 3 1 3-1 7 5-1 6v2l-1 7-3-2q-2 3-6 2l-3-1-3 1-1 7 1 2-8 6q1 5-2 7l-5-1q2-4-1-3l-2-5-2 1-4-2-2-4-4 3 3 5-3 1-6-3-1 4q3 1 1 8l2 1 1 1h-3l-1 3q-3-4-2-10l-2-2-1-6 5 1 3-4 8-3 3-3h5l3 1 1-2-1-4 5-2v3l4-1 2 3q3 1 1-3-3 1-2-3h-2l-3-4-4 1-1-2 3-2-1-5 1-4q-3 1-2-2 4 1 2-5-1-3-6-2l3-5 3 1-1 2 6-3q-1-3 4-2 4 2 1 4-1 2 2 1l2-7-4-3 2-3 6-1 1 1q1-5-3-3zm-5 23q-5 2-1 4l2-3zm2 2v3l3 1q2-6-3-4Zm-5 4-2 2 2 4q2 3 3 0l-1-2 1-3zm11 2-3 1-3 4 1 2 3 1-1 3q-1 5 3 6l4-1 2-3v2l3 1v-6l-3 1-3 2q-4-1-3-5l3-2-1-1 1-2 1 3q-4 1 0 3l3-1q2-1 1-4l-2-3zm-14 4v3q5 2 4-2zm3 4-2 1 1 2 2-1q1-3-1-2Zm1 3v3l5 3q3 1 1-3l-4-1q1-3-2-2Zm-7 16-2 2 2 3v1h4l-3-4q1-3-1-2Zm-132-55v5h-1z"/><path fill="#060606" stroke="#060606" d="m375 196 3 2h-2zm0 8-3 4-2 1 3-4zm-4 7 4 1q1 3-1 2zm22 1 2 2h-1zm-6 10-1 2zm9 2 2 1q1 3-1 2l-3 2q-1-4 2-5Zm-14 2q4-2 3 3l2-1q2-1 1 2l-3-1-1 3h-2zm-18 18 3 2q2 5-1 4l-3-1zm19 2 1 2zm3 2v2l-2 1zm-176 4 1 2zm131 9q3-1 2 2l-2 3q-5 2-3-4zm-110 1 1 2zm74 0 2 1 1 3h-1l-3-1zm77 2-3 4v1l-1-1zm-70 2q3-1 2 2 3 1-1 3l-2 4 5 4q-1 2 2 1l-1-4 3-1v4h2q1-4 5-3v4l-2-1q-3 1-2 5l2 4h-1q-2-3-6-2l3-5h-6l-2 2 1 12q-2 4-3 1h-3v6l1 1-4-3q-3 1-3 5l3 1 1 6-4 3 1 2 3 2q-1 3 2 4l3-2-1 2q1 3-1 2l-3 4-2-1-4 6 3 2-2 1 5 9-6 2-3-1 1 3-3 4-3-1h-2l-4-2 2-4 4 1q-1 3 2 2l1-4-2-2-2 1q-1-3 3-2l4 2 2-1 1-5-2-2-2 3v3l-3-6h2q-1-4 2-3l3-4-2-4 3 1 2-3-2-2-4 2 2-3q1-4-4-2l-4 6h-5l-1 2h-1l-3 2 1-6-2-8 3-1 2 2h-2l-1 5 6 3 1-2-1-4 4-3 3 1v-3l-5-8q-3 1-2 5l-4 1-1-2q3 1 2-2v-2l6-3v2l4-1q3-3 2-9-3 1-2-1l1-5-2-4 2-1v2l4 5 5 1q-1-3 2-2l1 5q6 2 4-4l-3-2-1-3 3-6-4-3q2-5-4-3l-4 2 3-4q4 1 5-3l1 3q-2 1 1 2l2-1-1-2zm-8 28-2 2q1 3-1 2l-3 4q4 1 3-1 1-3 5-2 1-4-2-5Zm-5 14-1 4 4 1q2 1 1-3h2l-4-2zm35-42v2h-2zm-99 1 2 3zm112 0 2 2-2 1zm-11 1 4 1-3 1zm-106 2 1 3-2-1zm104 2 2 2 2 3q4-1 3 2l-5 1q-5-2-2-3zm-100 1 1 2zm162 0v7q3-1 2 3l-4 5q-3 1-2-2h-2l-3-1q3-2 2-6-3-2 2-4 5 2 5-2Zm-1 7-2 2 3 1q1-4-1-3Zm-155-5-1 2z"/><path fill="#060606" stroke="#060606" d="m301 278 4 1q1-2 2 1l-1 8-1-2h-2v-3q-3 0-2-5Zm-94 3 1 2zm40 2v4h-1zM2 286l1 4-2 1-1-3zm248 0-1 2zm148 1v3h-3zm-388 1 2 1-2 8q-4 2-3-1l-2-3 2-1zm6 0 2 2v1l-3-1v2l-1-2zm335 0v3h-1z"/><path fill="#060606" stroke="#060606" d="m3 293 4 6 6 3 1-2v2l-2 1-10-7zm356 0 3 1h-3zm-25 3q2-1 1 2 1 2 3 0l1 1v8l1 1-3-5-5 4q1 4-2 3l-1-3 4-4v-2l-1-3zm-41 1v2l2 1-3 1z"/><path fill="#060606" stroke="#060606" d="m40 301 3 2-2 4 2 3 9 2 4-1h2l3-1h2l4 2q-1 3 3 2l4 3 2-1-2 7 2-1q3 1 1-4l3-2-1 2q-1 5 3 3l2-3-1-3h-3v-2l3-6-3-2 2-4 4 3h3l2-1q2 1 1 5l-3 1-5-3q0 4 3 4h5l4 4q4-1 5 2l-2 4q3 1 2-1l4 2 1-1-3-6 4-2 1 3-1-1q-3-1-2 3l3 2-2 3 3 2-3 4h-6q-2-3-6-2l-2-5-2 1-2-1-3 6q4-1 5 2l1 4q-5 1-4 8l3 1-4 1 3 4 5-1-1 5q6 1 7-3 1-3-2-2-5-1-4-6l3-2 1 2h-2l4 5v-2l6-2 3 1-1-2 3-5-3-2v2q-3-1-2 2l-3 1-2-5 1-2-2-1-2 4q-3 1-2-2 1-4 6-3l1 6 4-1q2-4-1-3v-1q5-1 6 2 2-1 1-5l4-1-3-6q-3 1-2-1v-2l4 3q1-4 3 0l1 1 5-6q4 2 3-1l2-3q-3 1-2-1l-1-4 6 1 2-6 4 7q-1 2-5 1l-3 3 1 4-5 2-1-2-3 2-1 4q-3-1-2 2l-1 3q2 1 0 2-6-2-5 3l-2 5 3 1q0 4 3 4 3 1 2-1l-1-3 5-4 1 3-1 3q2 1 0 2l-3 2 2 2-12-5 2 3 8 5 1 5-5-2 2 4q7 2 6-1l1-4 5 1 2-1 1-2 2 3q3 1 2-1l-1-4-4 1-2-1-2 1-3-6h2q3 1 2-2l-1-3 7-2v-7h-2l-2 1q1-4-1-3l-2 1 6-3 1-4v2q5 2 3-4h-3l6-2-1 6q5 1 7-2l1 3-4 1 1 9-1 2-1-9-3 2q-1 4 1 6l-6 1-1 4h3l4 3q1-3-2-4l3-1q-1 4 3 5h3q-1 5 3 3v-2q3 1 2-1l-2-2-2 1 1-2 6-1 5 1 1 4-2 4q3 1 2 4l-6 2q1-4-2-3v2l-3-5-2 3-7 3 1 3-2-2-5-1 1 3h1v2l-2-1-6 2v-2h4v-1l-6-3q2 4-2 3l-2 3 3 1q1-2 2 1l-2 1-2-1-1 1q-2-3-4-1l-1-4-2 2-3-3-1 1h-5v-3q-3 1-2-2-3-2-2-5l-4 1q1 3-2 2v3h-2l-5-2q1-3-2-2v2l-1-3-8 3 2-3-1-3-3-1-1-3-2-1-1 2-2-2 4-2 1-6-4 2 1 3-3-1v-3q3 1 2-4l-3-2q-2 3-3-1l-3 2v-1q-1-3 3-2l2 2v-2l-4-5 2-1 2 3h1v-6q-3-1-2 2l-1-1h-5l-7-4v2l-2-3q-3-1-2 3l1 1-2 1 1 1-4 2 3 3q2 1 1-1l2 1-1 4 3 1 2-4h-2l2-1 2 7 3 2q2 1 1-1h1l4 8v3l2 1-1 2h3q-1-3 3-2 4 2 1 4t-2 7l3 2-1 5-3-1 3-3-4-5q-3-1-2 2v1l1 1q-3 1-2 5l-2-5 1-4-2-4-3-2-5-3 1-2q-1-3-2-1l-5 1-9 7h-2l2 6 4-1q1 4-1 5l-4-1 1 3-3 3-2-1 3-2q1-3-3-2l1-2 3 1 1-2q-2-5-3-2l-7 4 1 1h-3q1 3-1 2l-4 3 1-3q-3 1-2-2l5-1 1-4 2 3 1-3-4-5v-3l-6-3-3 11h-2v-7l-2-1q2 5-3 3v-4q-3 4-5 0 2-5-1-4l-2 1q2-6-2-5l1 3-2 3-3-10h1l2 3 1-5-3-2v2q-3-2-2-7h2q4 0 4 3-1 3 2 2v-3l-3-7q-3 1-2-1l-2 1v2l-1-15q3-6 6 1H4l-3-1 1 4h2l6-1v3l-2-1-4 3q1 2 5 1h2l1-3 1 3q-3-1-2 2l-2 4 3 1 2-1 1-5q1 3 3-1l3-1 1 2 3-1 2 4v1q4-1 5 3 1 2-2 1l-2-1-1 1-3-3-1 1h-2l-6 5 6 4q-1 3 2 2l2 1 2-4 1 3q3-1 2 2l-1 6 3 2-1 2 4 1 2-1 5 2 3-4 2 1 7-3q2-4-3-3 1 3-3 2l-2-1-5 3-1-3-4-1-1-4q-5 1-3-3h2q2-1 1 2h2l1-2q2 1 1 5v1l5-2q-1 4 2 3l1-3-1-3q-4 2-3-2l-1-2h2q4 1 4-2l-1-2q2-2 0-3l-2 1v-3q4 2 3-2l-9-7q-1 4 3 5 3-1 2 2l1 1-3 2v2l-6-2v-4q-4 2-3-1l-1-4 1-3-3 1-2-1-3 2 2-3q2 1 1-1l3-2q1 4 3 1-1-3 2-2v3q-4-1-3 2l1 2-1 3 8 5-3-4-1-6q4-2 3-6Zm44 9-1 3 2 4 3 1-1-6zm-25 1v3l3 1h2zm-42 4v2l5 3q2 1 1-1zm66 4v4h2l1-2zm14 2-1 1q-3-1-2 2l3 1 1-2q1-3-1-2Zm6 0-3 3q-1 3 3 1l1-3zm-25 2q-3 2 0 3l4-1q1-4-4-2Zm-66 5v3l2-1q1-3-2-2Zm69 0-2 3 7-1 2 1v-3zm-30 1-1 1q-4-1-2 3l6 2q2-1 1-6l-2 1zm8 1-2 2 2 3v3q3-1 2 3l2-1 2 1v-5h-3v-3h-2q1-4-1-3Zm23 3q1 3-2 5l2 3q-1 3 3 1l-1-2 1-2v-2q1-5-3-3Zm-70 2v3l4 2 1-2v-3zm119 5v3l3 2v1h5q1-3-1-2v-1zm-115 1q-1 3 3 2 1-3-3-2Zm139 0q-1 3 3 2l-1 4 2 3 2-6zm-88 1q-3 5 1 4zm37 0-1 4 3-1q2 1 1-1zm40 1-3 4 4-1q1-4-1-3Zm-70 2q-3 4 1 3zm36 0-2 3q1 2 5 1l1-3zm-75 1v3q2 4 4 1 2 1 1-1zm80 2q-3 1-2 6 4 2 3-2 3-2-1-4Zm-5 2-2 2 3 1q1-4-1-3Z"/><path fill="#060606" stroke="#060606" d="m18 302 3 1-1 3 2 2zm127 0 3 2q1 3-3 1zm14 0q3-1 2 2-3 1-2-2Zm100 0-2 3zm-236 1 1 4h-1zm333 0v2l-1 2 2-1 3-1q3 2 0 3l-5 3-2 6 4 1-4 2-1-1q-5 1-6-1l3-12q2 1 0 3v1h4q-1-5 3-7Zm-37 1q3 2-1 4l-1 3 5 2-1-3 4-2-1 5 3 1-1 4q-3-1-2 3l1 1-3 1q-2-4-4 0l1 4q-3 1-2-1-1-3-2-1h-2q6-3 7-10l-10-4q-1-3 4-2l2 1v-5h2zm-207 1q2 1 1 5-4 2-3-3zm44 2v3h-1zm-140 2 3 1h-3zm230 0v2h-2zm-81 1h6v3q-1 2-2 0l-2 1zm-136 3 3 4 2 2h-2l-4-4zm84 1q4 0 4 3l-1-1q-4 0-3-2Zm253 0q2-1 1 2 2 1 0 2l-4-1-3 1v2l-1-2zm-193 1 3 2q-1 3-3 0zm-28 1-1 2z"/><path fill="#060606" stroke="#060606" d="m311 316 1 1-1 2-4-1zm-150 1q3 1 2 5l-4 1q-1-5 2-6Zm169 2q3-1 1 4l-5 5v2q4-1 3 2l-1 3-6 1-1-3-3 1 1 5 5 2-1 3q-3-1-2 3l1 2-3-1v-4l-1-4q-4 1-2-4l2-4q3 1 2-1l1-3q1 3 3-1zm-295 2 2 3zm318 0v3l-2 1zm-19 2q5-1 3 3l-3 1v-1zm-295 1 1 2zm221 1 5 1h1l-1 2 3-1-1 2q1 2-1 1l-2 1-2-4-6 4-3 6q4 1 1 3l2 2q4-1 3 2l1 2-3-1-4 2v-5h-1l-3 1q-1 4 2 5 3-1 2 2l-3 2-2-1-2 1 4-10 3-2-3-2-2 1 5-4q1-4-2-3l-4 3 2-3-3-1v-2q3 1 2-1h1q-1 3 2 2l4 1 3-5zm-230 1 1 2q-3 1-1-2Zm95 1v4q-4 2-3-3zm38 1q2 1 1 6-1 2-4 1l-2-3zm178 0 4 1q-1 6-6 9l-1-2-3 1-4-2q-1-3 3-2l2 1zm-190 1v2l-2 1zm66 0 4 4 1 4-4-2-1-3q-4-1-3 2l-1 2h-5v2q-1 2-4 1l-3-1v2q-2-2-3 1l-3 5h3l3-2q-1-4 2-3-1 3 3 2l1-3 4-1 4 2-3 1-2-1-6 3v2l-3-1-3 5-1-2-2 1-2-3 2-1v-2q1-3-1-2l-3-1q-2 2-6 1v-1l3-2 2 1 2-3 3-1 3 4 2-3q1 2 2 0l2-3 8 2 3-4q2 1 2-2Zm-12 6q-1 3 2 2 1-3-2-2Zm-12 1q-1 4 2 3 1-4-2-3Zm112-6 6 1h2l1 1-1 2-3-2h-5zm-118 2v3l-2-1z"/><path fill="#060606" stroke="#060606" d="M259 332h5v3l-1 4q4-1 3 2l1 1q-4 1-5-2l-1-4-1 4-4-2 2-4q2 1 1-2Zm16 1 3 2q-2 4-3 1l-2 1-2-2zm9 0v4l5 1h1q2 5-1 4l-2 1q1-3-2-2-3-4-5-2l2-3q2 1 2-3Zm-128 2q3-1 2 2l-1-1zm19 0q6-1 7 2l1 3-1-1-2 1-2-4h-2v4h-1q-2 2-3 0 0-4 3-5Zm-25 1 1 2zm-49 2v2h-2zm170 0 3 1h1q-3 2-2 6l-4-1zm-235 2q3-1 2 2-3 1-2-2Zm242 0q2-1 1 2h-3zm37 1v2l-1 2h-2zm-144 1q2-1 1 2t-3 0zm2 1q5-1 3 3l-4 1 1-2zm8 0q0 3 5 2l4-2v3l-3 3-2-2h-3v5h-2l1-7zm102 0q3-1 2 2v2l-3 6q4-1 5 3-1 2 3 1l2 4-3 2-3-1v2q-1 2 2 1l3 1-1 3-3 2q-2-4-9-3l-5 11 3 1h1l-1 3q2 3 7 1l2-3 2-1v3l-3 4-3 2 1 2h-2q-1 3 2 2l3-2q-3-2 2-4l6-5 1-4q3-1 2 3l-1 2 1 3 4 1q1-3 3-1 2-1 1 2l1 1-8 3-2 6h-6l1-2-4-1q1-3-1-2l-4 2h-5v-2h-4l-3 1-1-2 2-3-2-4-5 3-5-2v-2l-4 5v-1l2-7-3-2 1-2 3 2v4h2l1-2-2-4h2q4 2 3-2h-3l4-10-3 2v1h-2q1 3-1 2l1-2-1-2q4-2 2-9l4-4q3-1 2 3l1 1-3-1q-2 4 3 3l2-1q-1-3 2-2l2 1-2 4h2v4h2l2-1v-5h-1v-1q-1-6 2-8 4 2 3-2v-2zm-3 16-2 2 3 1zm-13 11 1 4-2 1-4 5 2 2 6-5h2q1-3-2-4l2-1v-2zm3 14v3q4 1 5-1v-2zm28 3-1 3q4 1 3-2zm-24 1-2 2 4 1q2-4-2-3Zm19 3-2 2 2 2 3-1q2-4-3-3Z"/><path fill="#060606" stroke="#060606" d="M165 344h3v2q3-1 2 2v2l1 2-4 1-2-4 2-3q-3 1-2-2Zm79 0-1 2zm32 0 1 3-3 3-2-1 2-1zm32 2q3 2 3 7l-1 2-5 2v-1l1-4h-7l6-4 2 1zm6 2q6-2 4 3h-3q1-3-1-2zm-57 2q2 1 0 3v1l-2-2zm-171 2q4-2 3 3l1 2-2 1 1-3-3-1zm67 4 3 1q-3 1-1 3l1 3-4 2-1-4zm-12 1h3q-1 3 2 2-1-3 2-2v6l-1-2-3 1-3-1zm-2 2-1 2v1l-1-1zm-27 1 4 1h1l-3 4 5 3h-3l-1-1-3 3q-5 1-3-4zm-29 1 2 2-2 1zm161 1 1 2zm-165 1q2 1 1 5l-2-1-1-2zm6 2 3 3h-2q1-3-1-2zm63 0 3 2-3 1q-3-1 0-3Zm88 1 2 3zm-180 1v3q-3-1-2 2-2 4-4 1l1-3zm194 2q4-1 3 2-3-1-2 3l2 2-4-3 1-1zm32 5v2l-2 1zm-157 1q2-1 1 2l-3 1zm112 20 3 2h-2z"/><path fill="#4C4C4C" stroke="#4C4C4C" d="m325 58 5 1h-5zm17 5 3 4zm56 0v5l-1 2h-2l2-1v-2l-2 1zm-2 11 2 1-2 1zm-11 2 1 3h-1zm-35 3v4h-1zm38 4v3l-3-1h2zm-2 7 1 2zm-15 14 5 2-1 2-4-1zm-4 1 1 2q-3 1-1-2Zm21 9q3-1 2 2l-2 1zm-21 10v3h-1zm-120 20-14 15zm148 3 1 2q-3 1-1-2Zm-34 1q3-1 2 2-2 4-4 1zm7 0 2 1q1 3-2 2v-2l-2 1zm3 6q2-1 1 3l-2 1 1-2zm5 1-1 2zm-17 2v2h-2zm23 0v2l-2 1zm5 0q2-1 1 2zm-6 5 1 1-2 1zm-24 2 1 2zm-1 2q3 2 0 3zm15 0 1 2zm-10 1q3-1 2 2-3-1-2 2h-1zm20 0q2-1 1 2zm-14 2q3-1 2 2v1l2 1h-5zm7 2 1 1-2 1zm-220 13-6 7zm193 2q3-1 2 3-3 1-2-3Zm-145 3v3h-1zm151 1 1 4-2-1zm3 1 4 1h-4zm24 0-1 2h-2zm-20 2-1 2zm15 4 3 1q1 3-1 2l-4-1zm-15 2v2l-1 3h1l1-2v2l-1 2-2-4zm-7 2 1 2q-3 1-1-2Z"/><path fill="#4C4C4C" stroke="#4C4C4C" d="M350 202q2-1 1 3v2h-2q2-4-1-3v-1zm0 7q3-1 2 2-3 1-2-2Zm28 0 2 2-2 3-1-2zm9 2 1 2q-3 1-1-2Zm-15 2 3 3h-1zm-134 1v3l-2 1zm109 0-1 2zm2 1q2 1 0 3v1l-2-2zm20 1 5 6q-3 1-2-1h-1v2l-1-5-2 1zm16 1v2h-2zm-22 1-1 2zm14 0 2 3-4 1 1-2 1 1zm11 0 1 1-2 1zm10 3v3l-1 1-3-1zm-52 2q4-1 3 2l-1-1q-3 1-2-1Zm10 0 2 1h1l-1 4zm20 0 2 1-2 1zm-8 1 4 2h-3zm18 0v2h-3zm3 2v3l-3-1zm2 1v2q3-1 2 2l1 2h-1v-2l-3 2q-1-3 2-2l-2-2zm-44 1v3q-3 1-2-1zm28 0v2l-4 2 1-3 1 2zm-6 1-1 2-2 1 1 1-2 4q-1 2 2 1l1-3 2 5h-3l-3-3 1-3-1-2zm16 0 3 1q2 4-1 3zm-4 1v2l-2 1v-1q2 1 2-2Zm-6 4 1 5-4-2zm-1 2 1 2q1-3-1-2Zm5-1q3 2 0 3zm7 0 1 2h1q-1 3-3 0zm-34 1v2h-2zm-5 1q3-1 2 3-3 1-2-3Zm51 0-1 2zm-36 2q2-1 1 2zm32 0-1 2zm-41 1 3 1-3 2zm30 0 2 3q-2-3-4-1zm5 0v2h-2zm-16 2-1 2zm4 0q1 3 3 2v2l-4-2zm16 1v2h-2zm3 0v2l-2 1zm-27 3v3h-1zm9 0 5 5q1 2-2 1l-5 3 1-2 2-1 1-2-2-2-2 4q-4-2 1-4zm16 1 2 2-1-1zm-31 1 3 3v1l-1-2-2 1zm28 0 1 2q-2-2-3 1l-1 2q-3 1-2-1zm7 0 1 2q-3 1-1-2Zm-26 3-1 2-1 2h-2q1 2-1 1l2-3zm-21 1 3 5-3-1zm23 1v2l-2 1zm17 1 2 2-2 3-2 1v-3l2 1zm-75 1 1 3h-1zm63 0 1 4h-4l2-1q-2-2 1-3Zm-38 2v3l-2 1zm25 0v4q-3 1-2-1zm33 0v4l-2-3zm-42 1 1 4h-3zm16 0 1 2 1-2 1 5h-1q1-3-1-2z"/><path fill="#4C4C4C" stroke="#4C4C4C" d="M311 259q4-2 3 3l4 6 3-1 2 4q-2 3-3-1h-4v7l-2-2q-4 1-3-1h2q3 1 2-2h-2l3-3q-3-2-1-3 1-4-1-3z"/><path fill="#4C4C4C" stroke="#4C4C4C" d="m319 259 1 4q-4 1-1-4Zm10 1q2-1 1 2zm57 0v3l-2 1-2-3zm8 0 3 3-1-1q-3-1-2 2h-4l-2 1 1-2q2 1 1-1h1l1 1zm-93 1q2 1 0 3v1l-2-2zm-8 1q3-1 2 3l-1 4zm40 0q3-1 2 2-3 1-2-2Zm13 2q3 2-1 4l2 2 1 1 3-1-1-3q3 1 2-1l3-2q1 3-2 5h2l2-1v4q-3-1-2 3l-1 2h-2l2-3-1-4q-3-1-2 3h-1q1-3-1-2-2 4-3 1-7-2-5 3l7-1v2l-1 2-4 3v1l-2-2 1-4h-3l1-3q-4-1-3 2l1 1-2-3 4-3v2q2 1 1-1v-2l2-3q3 1 3-2Zm-1 4-1 2 2 1zm11 1-2 2h2zm-119-4 1 2zm146 0 1 2zm12 0q3-1 2 2-3 1-2-2Zm-91 1q3-1 2 3-3 1-2-3Zm83 0 1 2q-3 1-1-2Z"/><path fill="#4C4C4C" stroke="#4C4C4C" d="m302 267 1 3-3 2v-1h1l-1-2zm27 0 6 3-3 3-2-1-1-3h-2zm53 0-1 2v1l-1-1zm-17 1q3-1 2 2l2 2q-4 2-2 4l-5 2-2-3q6 1 7-2zm25 1v3h-1zm-81 1 2 1-2 1zm86 0q3 2-1 4zm-78 2 3 1-3 1zm10 0 2 2-2 1 1-2zm44 0 1 2zm7 0 1 3h-2zm-85 1h3q-2 5 3 4l2 5v1h1v4h2l1 3-7-5q1-4-1-3l-3 2-1-2 5-1 2 1-1-4q-4-1-3 2l-2 1v-1q2 1 1-2h-2zm92 0 2 1h1l-1 3 2-1 2-3-1 2-2 3h-3l1-3h-3q1 3-1 2v-1q-1-3 2-2zm-81 1q4-1 3 2l-3 2-1-2q1 2 2 0zm17 0 3 2-3 2zm7 2 5 3q1 2-2 1l-5 1 1 3-1 3 3 1 2-1v1q-3-1-2 2l3-1v-6h3l2-1v1l-3 2q3 1-1 3l-2 4 3-1 1-3v3l4-1 1 2h-2v1l-4-1-1 3h-2l2-1-2-1-6 4-1-2q3 1 2-2l-3 1 3-6-2-8q6 2 4-4Zm0 12-2 2 1 3 2-1zm-120-10 3 1-1 3zm100 0 1 2 1-2v3l-1 3q-3-1-1-6Zm44 0 2 1h1l5 6q-1 3-3 0 1-4-2-5h-3q1 3-2 2v-1zm45 0v2l-2 1v-1q2 1 2-2Zm-57 2-1 2zm31 0 3 2h-2zm-26 1v3h-1zm34 0 1 2h-2l1 3-3-2q-1-3 2-2zm-64 1 2 2q1 2-1 1-2 2-3 0zm26 1-1 2zm5 0 4 1-4 1z"/><path fill="#4C4C4C" stroke="#4C4C4C" d="m353 283 3 3-1 3-2-3h-2zm-59 2q2-1 1 2l2 4-2 2h-3q-1-4 2-3l1-2zm14 0 2 2-3 1zm-40 1q4 2 1 4-3 1-2-1-2-2 1-3Z"/><path fill="#4C4C4C" stroke="#4C4C4C" d="m272 286 1 4q-4 1-1-4Zm67 0q3 2 0 3l-3-1zm7 0 1 3 2-3v2l-1 4-2 2-4-6h2q2 1 2-2Zm-28 1q4-1 5 2 1 2-1 1l-3 2q-2-2-3 1 1 2-1 1v-1l1-4 3 2 2-3-2 1zm66 0 2 1h-2zm11 0v3l1 1h-4zm-34 1 3 1-2 1h-2v1l-1-1zm-82 1 2 1q-2 4-4 1zm32 0q2-1 1 2-3-1-2 2h-1zm75 0-1 2-1 2h-2l2-1zm-100 1 3 1h-2q-1 3 2 5l-1 2-1-1 1-2q-3 1-2-3h-1l-1 6 2 1v1l4-1 1 1v-3l-2 1 3-2v6h-2q-2 3-6 2l1 3-2 1 1-2-2 1 3-4q4 1 3-2l-3 1-1-2q-3-1-2 4-1 2-4 1l-4-1 4-2-2-3 5-4 2 2zm95 0v4h-3l2-1zm-10 1v3l-2-1zm6 0v3q-3-1 0-3Zm-106 1 1 1-2 3 2 3-2-1-1-4zm81 0-1 4h-3zm35 0-1 3q2-1 1 2l-2-2h-2zm1 1 2 1-2 1zm-94 1 2 1 1 5-3-2zm28 0 1 4h-2zm17 0 3 1h1l-3 1zm-35 1q4 2 1 4h-2l2-1-2-1zm13 0 1 4h-3l-4 2q1 3-2 2l-1-5q2-3 3 0l-1 3 2-1h1q-1-4 2-3zm46 0 2 1q-2 4-4 1zm9 0q4-1 2 4h-1zM5 296l3 2H5zm325 0v5l1 2 2-1-5 3v3l-4-1 3-1q2-4-2-3l-4 2 2 3q-3 1-1 3l-3-1 1 2-2-1 2-6-1-3h-3l3-1 2 1h4q-1-4 3-3zm-4 4v2l3 1q2-4-3-3Zm-6 7v2l2-1zm25-11-1 2zm35 0-1 2zm-44 1q6-1 7 4v7l-3-1 2-1-1-4-1 3-1-4q2-2 0-3-4 1-3-1Z"/><path fill="#4C4C4C" stroke="#4C4C4C" d="m368 297 2 2-1-1-6 4 3 1h-4q1 4-4 2l-2 1 1-3v-2q1 3 3 2v1l2-1q-1-4 2-3zm-358 1 2 2v1zm337 0q3 2 0 3zm40 0 2 2v1l-1-2zm8 0v2h-3zm-13 1-1 2zm2 0 1 2zm-122 1 1 2q-3 1-1-2Zm90 0 3 3q-2-2-4 2v2l-2-3 2-1zm21 0h2l2 2-1-1q-3-1-2 3l1 1q-3 1-2-1zm-68 1q2-1 1 2l2 3v2l-3-1q1-3-1-2-4-2 1-4Zm86 0 3 2v1zm7 0v4h-1zm-30 1 2 2 1-2 1 3-4 1v-1zm13 0 1 2zm4 0 2 1q-1 3 2 5l-1-1q-3 1-2-3h-2zm-364 2q2-1 1 2zm291 0v5h-3l2-1-1-3zm4 0-1 2v1l-1-1zm20 0q2-1 1 2h-2l3 6h-2v-1l-2-5zm10 0 1 2v8l-2 4 2 1-4 3q-1 4 1 6l-2-1-1-3v-2l3-4v-2q-1-3 2-2v-4l-2-4zm46 0v3h-2zm-119 1 2 1v3q-3-1-2 2 3-1 5 2l1-2-3-1 2-3 2-1-1 2q-3-1-2 2l4-2v2l1 1-4 3q-1 3 2 2v1q-3-1-2 2h-1q1-6-1-7l-5-1 1-2v-2h1z"/><path fill="#4C4C4C" stroke="#4C4C4C" d="m364 305 1 2q1-2 2 1l-2 1zm18 0 2 2-1-1zM7 306q3-1 2 2H3zm257 0v3l-7 4 3-4zm89 0v3h-1zm20 0v2q0 3-4 2v-1l3-1zm-362 1 1 4h-1zm385 0 2 1v2zm-370 1 4 1 2-1-1 5q-4 1-5-1zm265 0 1 1-2 1zm23 0 2 1h-2zm46 0 3 2h-3v2l-4-2zm-66 1 1 6-3-1h2zm7 0 3 1-1 2-1-2-2 1 1 1q-3-1 0-3Zm26 0q4 0 4 3v1l-1-2-2 1 1 2-4-1zm57 0 1 4-2-1zm-364 1v3h-1zm288 0v4q-3-1-2 2l2 1h-3q-1-5 3-7Zm-224 1 3 2v4zm183 0v2q3-1 2 3l-3-1zm18 0h3q-1 4 2 3 3 2 0 3-4 1-3-1l1-2-3-1zm25 0 2 1h-2zm46 0q2 5 5 4l-1 3h-2l1-2-3-2-1 2 2 1h-4zm16 0 4 1h-3l-4 7 3 1q1 2-1 1l-2 1v-1l-1-3-2 1 6-5zm6 0 3 1q1 3-1 2l-1 3-2-2 1-2zm-317 1 1 2zm186 0 1 3-4 2q-1-4 3-5Zm142 0 3 1v3l-1-2-2-1-1 3-1-2zm-22 1q2-1 1 2zm-354 1 1 3q-4 2-3-1zm32 0q3-1 2 3l-2-1zm215 0 3 1-1 3-4-2zm59 0v3h-2q-3 1-2-1 2 1 4-2Zm17 0 4 2h1l-1 3-4-2q1 3-1 2-2 3-3-1l-2 1-2-1-1 3-1 2-1-5q3 1 3-2h6zm-26 1 2 1h-2zm-291 1q2 4 4 3l-1 1zm106 1v5l-2-1zm145 0 1 2 1-2v2q3-1 2 2l1 1-2 1 1 2-1 2h-4l4-2-1-3-2 1 1-3q-3 1-1-3Zm93 0 1 1-2 1zm24 0 1 3-2-1z"/><path fill="#4C4C4C" stroke="#4C4C4C" d="m10 318 3 1-3 1zm227 0q4-1 3 2-4 1-3-2Zm14 0h4v2q2 1 0 2-5-1-3 4l-1 2h2l-3 1v-4l-5 3q1-3-3-2l1 4 2-1v1l-4 3 1-2-2-2-2-5 7-2 5 2q2-1 1-6Zm1 1v2h3zm-8 4-2 2h2zm24-5v5q-1 3-3 0l1-2 1 2v-2q-2-2 1-3Zm20 0q3-1 1 5h-1v-4l-2 1zm20 0-1 2v1l-1-1zm4 0h2l1 1-2 1 3 2-2 1 1-2-3 2 1 3q-2-2-3 1h-3l4-2 1-3zm6 0-1 2zm39 0 5 4-4 1-1-3-2 1-1-2zm24 0 1 3h-1zm15 0 2 2-1 2-2-1-1 3-2-3 3-1zM4 319v3l4 3-2-2-5-1q-1-3 2-2zm294 0q2-1 1 2l-3 2zm53 0 2 2-4 3v-2zm-92 1 5 3h-1l-3-1q-1 3 3 2v1q-6-1-7 2l1-2q2 1 1-2zm18 0 1 2zm33 0-1 2zm23 1q2-1 1 3l-6 6-2-1 3-1v-2q1 3 3-1v-2l-3 2zm41 0 2 1v2l2 4-2-2-2 1v-1q1-4-4-2-2 4-4 1 2-3 7-2zm-352 1 2 2 1 7q-3 1-2-2h-3v-1l-1-2zm73 0q3-1 2 2-3 1-2-2Zm187 0 1 3-3-1zm38 0 3 2-1 2q2 1 0 2-4-2-2-6Zm26 0v2h-2zm-319 1q3-1 2 2l-2 1zm17 0 2 4-1-1q-4 1-1-3Zm257 0 2 1h-3v2l-1-1zm53 0 1 2-1-1-3 2zm34 0 2 1h-2zm-153 1q2-1 1 2l-3 1zm59 0 3 2v2l-4-2q-1 3 2 2l-2 3v-2q-3 1-2-2h-4q-2 4 3 3v1l-5 1h7l1 2v1l-1-2h-6l-1 2h-1v-2l-1 2-6 2 1 2h2q3-1 2 2l-3-2-3 1v2l-1-3q4-2 3-6h-4l4-1q-1-4 2-3l-2 4 3 1 4-6zm64 0q2 1 1 5h-1zm3 0 4 1h-4zm21 0-2 3v1l-1-3zm10 0-1 2zm-76 1 1 4-3 1v-1zm68 0 4 2h-1l-3-1zM7 326l1 2zm26 0 3 5-4-3z"/><path fill="#4C4C4C" stroke="#4C4C4C" d="m277 326 1 2q-3-1-2 2h-4v2l1 1-3-1q-1-3 2-2l3-1zm72 1 1 1-2 1 2 1h-2l1 3-2 1 2 1h-3l-1-3zm6 0 5 4q-1-4 2-3h1l-2 2 1 2 4-2 3 2-2 1-4-1v2l-3-1-2 3-3-4 2-1zm3 4q-2 3 1 2zm-288-3 4 2q-3 2-2 6l-2-1q-2 2-3 0l-2-6q4-1 3 2l2 1zm1 1v3l2-1q1-3-2-2Zm189-1-1 2q1 3-1 4h-3zm3 0v3h-3zm44 0 1 2zm12 0 1 3-3 1q1 3-3 2l-4 2-3-1q-1-3 3-2l3 1q1-4 6-3zm67 0-1 2zm2 0 1 3-2-1zm-285 1q3-1 2 2-3 1-2-2Zm119 0 4 4v3q3-1 2 2-3 1-2-1l-2-6-2-1-2 1zm77 0 1 1-3 2z"/><path fill="#4C4C4C" stroke="#4C4C4C" d="m304 329 1 1-1 2q3-1 2 2l-3 1-2-2zm6 0 2 1h-2zm22 0 2 1h-3q-1 3 2 2v1l-2-1-2 1zm20 0 2 2-1-1zm24 0 1 2 5-2v2l-2 1-1-1-3 2zm-258 1 4 2h-4q1 3-1 2l-2-3zm113 0 1 2zm141 0-1 2 2 2h1l-2 3 1 2 3 1h1l-3 2 1-2q-4 1-3-2l-3 1 1-3h2l-2-4zm-327 1v3h-1zm5 0 2 2h-1zm185 0v3h-1zm10 0-1 2zm90 0 1 2q-3 1-1-2Zm58 0-1 2zm-316 1 1 3-2 4h-2zm27 0 3 1-2 1zm126 0 1 2zm121 0 4 4-2 1-1-4zm38 0v3l2 1h-3zm6 0 3 2h-2zm-334 1 1 3 3 2v1l-1-2-1 3q-3 1-2-1l1-2-1-3-1 2-1-1zm39 0v3l-3 2zm23 0-1 2zm93 0 1 3-3-1zm34 0 1 2v-2l2 1-4 3v-2zm20 0v6l-3-1 2-1-1-2zm111 0 1 3h-1zm-297 1 1 4-4 1zm24 0q3-1 2 3l-2-1zm19 0q2-1 1 2zm97 0 1 4h-2zm98 0 3 5 1 1h-1q-5-1-3-6Zm8 0 1 1h-2q-1 3 2 2v1l-2-1-3 1 1-2 1 1zm14 0 1 1-2 1zm7 0 1 2zm26 0 2 1-2 1zm-347 1v3h-1zm4 0-1 2zm84 0 1 3h-1zm20 0q4-1 2 4l2 2q-4 1-3-1l-3-2zm103 0v3h-1zm3 0 1 4h-2l2 4-1-1q-3 1-2-5zm11 0v2h-2zm108 0v3h-3l2-1zm-233 1-2 3q1 2-1 1l-1-2zm59 0 1 2q-3 1-1-2Z"/><path fill="#4C4C4C" stroke="#4C4C4C" d="M212 336q3-1 2 3-3 1-2-3Zm21 0 1 3-2 1 1-2h-3zm56 0-1 2zm48 0 1 2zm48 0 1 2h-3zm-333 1q3-1 2 2-3 1-2-2Zm20 0q2-1 1 3h-1v-2l-2 3-1-1zm17 0-1 2zm13 0 3 2q1-4 3 0 1 3-2 2zm15 0v3q-3-1 0-3Zm92 0 2 1-3 2v-1zm9 0-1 2zm86 0q2 3 6 2l1 3 2-1q1 3-2 2v1l1 1-3 2 3 2q-1-3 3-2v1l-3 2v3q0-5-4-6l1-2-3-1h2l1-3-2-1v2zm36 0 1 2zm-305 1v3l-1 2 1 1-3-1q-1-5 2-4zm201 0 1 2zm54 0 4 3q1 3-1 2-4-1-3-5Zm26 0-1 2h-2zm34 0v3h-1zm7 0 2 5-2 1v-2l-2 1-1-1-4 4q-3 1-2-2h3v-2q1 2 2 0l1-3 2 1zm33 0q2-1 1 2t-3 0zm-351 1q2-1 1 2l3 1-1 3h-3l1-2-3 1v-1l2-1zm7 0 1 3-3-1zm44 0-1 2zm3 0 2 5-1-1q-3-1-2 2l7 1-2 4-2-1v2q-4-2 0-3 1-3-3-2l-2 1-2-3 5-2zm3 8v2l2-1zm133-8 2 2h-1zm72 0-2 5-2 1-1-2zm36 0v2h-2zm44 0v3h-1zm2 0 2 1-2 1zm-373 1-1 2zm123 0 4 3 1 2h-2q1-3-1-2-2 2-3 0zm67 0 1 3-3 1v-1zm16 0 2 2-2 1h4q-1 2-5 1l1-2zm46 0 1 1h-2l1 3-2-1zm-190 1 1 2h1l-3 2v-2zm80 0q2-1 1 2l-2 1-1-2zm4 0 2 1-2 1zm28 0 2 1v1q2 1 1-1h1l-1 2q-6 2-5-1zm43 0 3 2-3 1q-3-1 0-3Zm47 0 1 4-2-1zm11 0 4 2h1v2h4v5l-2-3q-3 1-2-1l-5-4z"/><path fill="#4C4C4C" stroke="#4C4C4C" d="M316 341v3l-1 2-1-1zm9 0 1 3h-1zm4 0 2 2h-1zm-276 1 1 3q-3 1-1-3Zm14 0v3h-1zm57 0q3-1 2 2l3 4h-1l-2-3-1 2-2-2zm48 0 2 1-1 2zm37 0q2 1 1 5h-1v-4l-2 1zm30 0 2 1q-2 3-2-1Zm29 0v3l-1 1 2 2-3-1q-1-4 2-5Zm10 0v6q3 1 2-3l-1-2h1l1 5-2 1-3-5zm88 0 2 5h-3l1-2zm7 0 1 3-2-1zm-312 1 1 2zm44 0 2 2h-1zm54 0 1 4h-2v1l-1-1zm91 0 2 1-1 3-2-1zm84 0 1 1-2 1zm6 0 4 4-2-2-2 1zm-329 1-1 2q-1 2 2 1h1l-1 2-4-2zm14 0 2 1-3 3 3 3-2-2-3 2zm33 0 1 3h-1zm58 0 3 2q1-2 2 1h-2l-2-2zm48 0 1 1-1 2h2l-1 2-3-3zm122 0q5 3 0 5l-1-1 1-2zm60 0 1 2zm-318 1 3 2-1 2v-3l-2 1zm21 0 2 2h-3v2l-3-1zm30 0 3 1v2zm63 0 2 1-2 1zm82 0v3q-3-1 0-3Zm9 0 1 1h-2v5q3-1 2 2l-3-3h-2l2-1-1-2zm160 0-1 2v1l-1-1zM6 346l3 4 1 1H9l-4-2zm13 0 1 2zm18 0-1 2zm154 0 3 3-1-1-3 1v-1zm24 0 1 2zm56 0 3 1h-2l1 4-2-1zm35 0 1 2q-3 1-1-2Zm24 0 1 2zm-252 1-2 3zm54 0 1 3-2 1 1-2zm4 0q2 1 1 5l-3-2h2zm16 0-1 2-1 2 2 1-3 2-1-2-2 1q1-3 3-1h1v-2zm18 0 3 2v1l-1-2-2 1zm35 0-1 2zm52 0q2-1 1 2zm75 0 3 2v1l-1-2-2 1zm9 0 1 2h-3zm19 0 2 1 2-1v1l-2 1-3-1 1 3 3-1-1 2 2 4 1-3 1 1q-1-4 2-3l4 2 2-1 1 4-1 2 2 1-2 1-1-2 1-5-2 1-3-1v2l-1-3-2 4-2 1 1 1-3-2-2 1 2-3-4-2q-1-4 2-5Zm-343 1-1 2zm25 0 2 1-2 1zm16 0 1 2q-3 1-1-2Zm45 0-3 4v1l-1-3zm2 0v3h-1zm10 0 1 2zm10 0v3h-1zm83 0-1 2 1 3h1q-2 4-4 1zm53 0 2 1-3 2zm38 0 2 2h-3zm47 0 2 2h-1z"/><path fill="#4C4C4C" stroke="#4C4C4C" d="M368 348v2h-4zm-336 1-1 2v1l-1-1zm5 0 2 1q-2 3-2-1Zm50 0 2 1-2 1zm41 0q2-1 1 3h-1zm74 0 1 3-2 1 1-2zm16 0 2 1h1l-2 1h-3zm49 0 3 2-1 2h-2zm9 0 1 1-1 2q-3-1 0-3Zm44 0-1 2zm10 0v3l-2 1v2l-2 4-3-1 3-1-1-3 2 2 1-2q-2-2 1-3zm7 0q2-1 1 3l2-1 1 1-4 1zm-323 1-1 2zm47 0 1 4-2-1zm53 0 1 3h1q-1 3-3 0zm79 0 2 2-1-1zm18 0 2 1h-2zm42 0 1 3h-2zm31 0 1 2zm38 0 1 2zm-288 1 1 2h-2v1l-1-1zm46 0v2q-3 1-1 3l-2-3 1 1zm10 0 4 2q1-2 2 1l-3 5-1-1 2-3-2-1q1 2-2 1zm33 0v3l-2 1zm54 0 2 1-2 1zm10 0-1 2 2 2 2-1q-2 5-5 0zm28 0 2 3h-3zm15 0 1 2zm-213 1 3 2h-2zm154 0 1 2zm49 0 4 2h-2zm85 0v2l-2 1zm11 0 3 1-2 1zm19 0 1 2zm-232 1-1 2zm3 0v4l2 1h-4zm25 0v5l-2-3zm8 0 2 2h-1zm22 0v2q-1 3-3 0h2zm51 0-1 2v2l-1-2zm28 0q3-1 2 2l-2 1zm20 0v3q-3 1-2-1zm12 0v3h-1zm29 0-1 2h-3zm86 0 3 2-3 1 2 4v1l-3-1-3 2 4-5q-4-2 0-4Zm-336 1 2 3q-2-3-3-1h-2zm117 0q3-1 2 2-3 1-2-2Zm33 0-1 2zm25 0v2l-2 1zm41 0 2 1v2zm75 0 1 1-2 1zm5 0-1 2h-2zm-282 1v4h-1l-1-2zm19 0-1 2zm147 0q3 2 0 3zm23 0q2-1 1 2zm78 0-1 2zm-236 1 1 4-2-1zm32 0v3l-3-1zm25 0-1 2z"/><path fill="#4C4C4C" stroke="#4C4C4C" d="m167 356 4 3h-2l-3-1zm85 0 1 3-2-1zm85 0-1 2q-5-1-3 3l2 1h-1l-2-3zm6 0 3 2h1l-1 3-2-3-2 1zm27 0 2 3zm-357 1q3-1 4 2l-2 1v-1h1q-4 0-3-2Zm37 0 1 3 1 1h-1l-4-2zm6 0 1 1-3 2zm25 0 2 1q-1 3 2 2v-2q3 2 0 3l-3-1-2 2h-3v-2l1-2 1 2zm32 0 3 1-4 1zm7 0 2 5h-2q2-4-1-3zm20 0 1 2q-3 1-1-2Zm51 0q3 2 0 3zm4 0 2 1-2 1zm32 0 1 1h-2v3l-1-2zm89 0 2 2h-1zm-297 1 1 2zm4 0v3q-3-1 0-3Zm45 0 1 1-2 1zm3 0 1 6h-1zm64 0v3q-3-1 0-3Zm44 0 1 1-2 1zm174 0-1 2zm-320 1-1 2zm12 0-2 3zm65 0-1 2zm42 0-1 2zm103 0 2 4h-1zm105 0 2 2-1-1zm9 0 2 2-1-1zm-342 1 2 4 1 1-3 2 1-2-2-2zm62 0v3h-1zm43 0 1 4h-1zm8 0-1 2q1 2-1 1zm21 0h2l1 1-2 1 4 1h-3zm11 0-1 2v1l-1-1zm79 0 1 1-2 1 1 1q-3-1 0-3Zm87 0-1 2v1l-1-1zm18 0 2 1-1 4-7-1 4-2 2 1zm-338 1 1 1-2 1zm29 0 2 1-3 1zm13 0 2 1h-2zm37 0-1 2zm27 0 2 3h-3zm3 0 1 2zm67 0 2 2-1-1zm135 0 3 1 1 4-2 1 1 1-2-1-2 1 3-2v-3l-2 1 1-2q-3-1-2 3l-1-1-2 1v-3zm-278 1 2 1-2 1zm23 0 3 2h1l-3 2q2-2 0-3zm67 0 2 1v1l1 1h-1zm4 0 2 1h-2zm31 0-1 2zm48 0 2 1-1 2-1-2-2 1zm6 0 4 3h-2zM245 362q3-1 2 2l-2 1zm30 0q2-1 1 2zm12 0 1 2q-3 1-1-2Zm26 0 3 2v1zm32 0 1 3 2-3-1 2q2 5-3 3zm15 0 2 1h-2zm12 0v2l1 1h-1q-3-1 0-3Zm-348 1 1 1-2 1zm82 0-1 2zm5 0-1 2zm45 0 1 3h-3zm48 0v4l-1-2h-2zm89 0 2 1-2 1zm28 0q3-1 1 4h-1zm44 0 1 2-4 2v2q-4-1-3 2l2 1h-3l-1 4h2l2-3v2h2v-2l3 3-1-1-5 1-6 4-6-4q-1-4 2-3l2 1q1 3-1 2l1 2 2-1q1 2 2 0l1-3-2-1q-3 1-2-1 2-4 4 0 2 1 1-2l3-2zm18 0 2 1v3l-2-1-3 1v-1q4 1 3-3Zm-368 1 2 1h-2zm120 0q2-1 1 2l1 1h-2l-2 1 1 2v2h-3l2-2-1-3 3-1zm14 0 3 2h-1zm20 0-1 2zm18 0 2 1h1l-2 1zm156 0-1 2zm-299 1 1 1h-2q1 3-1 2l-1-1-3 2zm50 0 2 3zm98 0 1 2zm6 0-2 3zm98 0-1 2-1 2h-3l2-3 1 2zm-208 1q3-1 2 2zm21 0 1 5-1 3-3 4 3 2h-2v2l-2-4 2-3h-2l4-2-2-1 2-1zm10 0 2 3zm125 0q3 2 0 3zm14 0-1 2zm55 0 1 2zm3 0 1 2z"/><path fill="#4C4C4C" stroke="#4C4C4C" d="m47 367 2 1-2 1 1 1-2-1q-2 4-4 1 2 1 5-3Zm28 0-1 2zm50 0-1 2zm20 0q2 1 0 3v1l-1-1zm11 0-1 2zm58 0 1 1-2 1zm-195 1 1 3-2-1zm42 0 2 1-2 1zm55 0 2 1h-2zm25 0 1 3-2 1 1-2zm11 0-1 2h-2zm103 0v3q-3-1 0-3Zm50 0-1 2zm41 0v3h-3zm19 0 3 2q-1 3-3 0zm-260 1v4h-1zm174 0q4-2 3 3h-1v-2l-2 3-1-2 1 1zm33 0 2 1h-2zm14 0 1 2-2 1v-1zm4 0v3h-1zm44 0 2 3zm-342 1 1 3-2-1zm25 0 2 2h-1zm13 0 1 3h-1zm8 0v2h-2zm39 0 3 4 2 2-1-1-2-1-2 1v-2zm5 0 1 2zm90 0 3 2-1 2q4 1 3 7v2q-3-1-1-2 1-7-3-8l1-2q-3 1-2-1Zm55 0 3 1-2 1zm53 0 2 1h-2zm-291 1q2-1 1 2l-2 1zm73 0 1 4h-2zm25 0q3 2-1 4zm29 0v3q-3-1 0-3Zm17 0 1 4h-2l1-2zm46 0 2 4h-1zm28 0v2q-1 3-3 0h2zm-203 1 1 2zm53 0v2l1 1-3 1-1-2 1 1zm73 0v4h-1zm117 0 3 3h-1zm28 0q2-1 1 3h-1zm-278 1 2 1 2-1 1 2h-2l-3-1-2 1zm38 0 2 2h-4zm70 0-1 2zm6 0 2 1h-2zm77 0 3 4-1 1v2l-1-2 1-1zm4 0 2 1-1 2zm11 0 1 2zm27 0 1 2zm34 0 1 2h-3zm3 0q2 1 0 3v1l-1-1zm-222 1 2 2-2 1zm54 0 2 2-1-1-2 1zm188 0 3 2q1 2-1 1zm-140 1 1 2q-3 1-1-2Zm52 0 3 2h-4z"/><path fill="#4C4C4C" stroke="#4C4C4C" d="m246 375-1 2v1l-1-1zm15 0 2 1q-2 3-2-1Zm50 0-1 2zm21 0 3 1v2l-4-1zm14 0 1 1-1 4q5-2 4 3h-1q1-3-3-2l2 4q2-1 1 2h2l-1-2 2 1-2 3h-2l-4 4 1-2-2-2 1-3 2 3 2-1-2-4q-2 3-3-1l-2 1-1-2-3 1-1-2-2 1v-1q2 1 1-1h2l4 1q1-3-1-2v-1zm-305 1v3h-3zm14 0v3l-3-1h-2zm47 0 1 5-2 1v-2zm93 0 1 3h-1zm31 0-1 2zm44 0 1 1-3 1v-1zm5 0 2 1h-2zm18 0-1 2v1l-1-1zm4 0 1 2zm26 0 3 2q-1 3 4 1l-1 2q1 2-1 1l-3-1-1-3-2 1zm49 0 2 1-2 3h-2zm-339 1-1 2zm84 0 2 2-1-1zm15 0 2 1h-2zm118 0 3 1h-2v3l-2-1-4 3 5-4zm15 0 1 4q-3 1-2-1zm-198 1v2h-2zm76 0 3 1-4 1zm65 0 1 2zm13 0v3l-2 1zm26 0-1 2zm34 0v3q-3-1 0-3Zm21 0 2 1v3q-2-3-4-1zm10 0-1 2zm51 0 1 2 2-1v1l-2 1zm-233 1-1 2h-2zm160 0v3l-5 4q4-2 5-7Zm8 0 1 3h-1q-3-1 0-3Zm17 0 6 4h1q1 2-1 1l-5-4-3 2zm-254 1 2 2-1 2-1-2h-2zm10 0 2 4-2 4 2 1h-3l1-3-4-2 3-2zm82 0 2 2h-1zm8 0 2 4-4-2zm62 0 2 2-2 1zm10 0 2 2h-1zm20 0 1 2q-3 1-1-2Zm-211 1 1 3h-1zm36 0-1 2zm8 0 2 1h-2zm9 0 1 2h-3zm117 0-2 3zm25 0v3h-1zm-202 1 2 2h-1zm75 0 1 2zm17 0 3 1h-4v2l-1-1zm55 0-1 2zm143 0 1 2z"/><path fill="#4C4C4C" stroke="#4C4C4C" d="m331 382 4 4-4 1 1-2-1-2-3 2q-1-3 2-2zm23 0 6 3 4-1q3 2 0 3l-1-2-5 1-5-1zm-303 1 1 3-2-1zm39 0 2 2h-1zm12 0 2 2v1l-1-2zm37 0 1 2h-4zm102 0 1 4-2 1-1-2 2 1v-2zm61 0 1 2q-2-2-3 1-3 1-2-2zm-238 1 1 5-2-1zm44 0-1 2zm136 0q3-1 2 2-3 1-2-2Zm-133 1-1 2zm82 0v2l-2 1zm13 0v2h-2zm25 0 2 2-1-1zm44 0-1 2h-3zm49 0 3 2h-3zm-71 1 1 2q-3 1-1-2Zm65 0 1 4-1-1h-2l2-1z"/><path fill="#4C4C4C" stroke="#4C4C4C" d="M330 386v2l4 1q-1 2-2 0l-3-1zm10 0v3h-1zm-93 1-1 2v1l-1-2zm-188 1 3 4zm176 0 1 2q-2-2-3 1v1l-1-2zm39 0 2 2-1-1zm50 0-1 2v1l-1-1zm-274 1v3l-3-1zm113 0 1 2zm141 0 1 1h-2v5h-1l-5-2 4-1 1 2zm2 0 3 1 3-1 1 2h-2v2l-1-2-4 3-1-2h2zm-249 1v3l-1 1q-3 1-2-3zm34 0-1 2zm5 0-1 2zm128 0 2 1v2q-2-3-4-1zm59 0-2 3zm43 0q4-1 5 2h-2q1 3-2 2l-2 1q-1-3 2-2l-1-1zm-253 1 1 3-2-1zm108 0-1 2z"/><path fill="#4C4C4C" stroke="#4C4C4C" d="M295 391q3 2 0 3-4 1-3-2zm23 0v2l1 1-3 2q1 3-3 1l-1-2 3 1 2-2-2-1zm20 0v3h-1zm-258 1 2 1-3 1zm20 0 2 2h-1zm44 0 1 2h-3zm13 0 4 3-1-1q-4 1-3-2Zm17 0 1 2zm34 0 2 3zm115 0 1 1h-2v2l-1-1zm24 0 2 2-1-1-2 1zm-288 1 2 2-1-1zm8 0-1 2zm3 0 2 2h-3zm18 0-1 2zm7 0 2 4-3-2zm9 0q2-1 1 3h-1zm92 0 3 6-1-1-2-1-2 1 2-3zm136 0-1 2zm2 0 3 3-3 2-1-2zm-180 2 2 1-2 1zm79 0 1 3-3 1v-1zm72 0 2 1 1 3q-3 1-2-1l-3-1zm23 0 1 4-5-1-2 1-1-2h2q4 1 5-2Zm-41 1-1 2zm-218 1 3 1h-3zm50 0-1 2zm178 0 2 2-1-1z"/></svg>